<?xml version="1.0" encoding="UTF-8"?>
<svg width="1440px" height="704px" viewBox="0 0 1440 704" version="1.1" xmlns="http://www.w3.org/2000/svg" xmlns:xlink="http://www.w3.org/1999/xlink">
    <!-- Generator: Sketch 51.1 (57501) - http://www.bohemiancoding.com/sketch -->
    <title>Fill 1</title>
    <desc>Created with Sketch.</desc>
    <defs></defs>
    <g id="Page-1" stroke="none" stroke-width="1" fill="none" fill-rule="evenodd">
        <g id="Home-Page---Desktop---Picker" transform="translate(0.000000, -505.000000)" fill="#FCF8F7">
            <g id="How-the-journey-looks-like" transform="translate(-40.000000, 505.000000)">
                <path d="M588.087586,1059.77368 C553.959732,970.2455 416.79078,1018.64587 416.79078,826.592301 C416.79078,743.80478 512.013652,705.550302 543.409116,652.163343 C573.723443,600.613692 543.599135,505.815451 567.288262,413.834529 C587.520277,335.275844 772.337484,302.332067 771.959447,233.744211 C771.389688,130.312286 553.255861,167.142422 504.965128,77.8592523 C456.674395,-11.4239171 448.317427,-189.115714 543.409116,-208.44192 C638.500804,-227.768127 986.781736,-624.22651 1084.8216,-270.506422 C1182.86146,83.2136654 1056.13243,807.827654 980.424407,980.538378 C904.716383,1153.2491 622.21544,1149.30187 588.087586,1059.77368 Z" id="Fill-1" transform="translate(768.673905, 351.883125) rotate(-270.000000) translate(-768.673905, -351.883125) "></path>
            </g>
        </g>
    </g>
</svg>