<?xml version="1.0" encoding="iso-8859-1"?>
<!-- Generator: Adobe Illustrator 19.2.1, SVG Export Plug-In . SVG Version: 6.00 Build 0)  -->
<svg version="1.1" id="Layer_1" xmlns="http://www.w3.org/2000/svg" xmlns:xlink="http://www.w3.org/1999/xlink" x="0px" y="0px"
	 viewBox="0 0 48 48" style="enable-background:new 0 0 48 48;" xml:space="preserve">
<rect x="20" y="32" style="fill:#607D8B;" width="8" height="8"/>
<rect x="4" y="9" style="fill:#90A4AE;" width="40" height="27"/>
<rect x="6" y="11" style="fill:#BBDEFB;" width="36" height="23"/>
<rect x="15" y="39" style="fill:#90A4AE;" width="18" height="2"/>
<path style="fill:#64B5F6;" d="M17,31h14v-0.013C31,27.681,28.319,25,25.013,25h-2.025C19.681,25,17,27.681,17,30.987V31z"/>
<path style="fill:#FF9800;" d="M26.001,23h-4v3c0,0,0.328,1,1.959,1c1.631,0,2.041-1,2.041-1V23z"/>
<circle style="fill:#FF9800;" cx="27.5" cy="20.5" r="1.5"/>
<circle style="fill:#FF9800;" cx="20.5" cy="20.5" r="1.5"/>
<path style="fill:#FFB74D;" d="M28,17.216C28,15.01,26.206,15,24,15s-4,0.01-4,2.216c0,0.347,0,3.436,0,3.784c0,2.206,1.794,4,4,4
	s4-1.794,4-4C28,20.653,28,17.564,28,17.216z"/>
<path style="fill:#424242;" d="M23.781,13C21.344,13.219,19,14.93,19,18.574V20l1,1v-3l6.31-2.201L28,18v3l1-1v-1.203
	c0-2.414-0.135-4.205-3-4.797l-0.485-1H23.781z"/>
<rect x="17" y="29" style="fill:#3F51B5;" width="6" height="4"/>
<rect x="25" y="29" style="fill:#3F51B5;" width="6" height="4"/>
<rect x="9" y="29" style="fill:#3F51B5;" width="6" height="4"/>
<rect x="33" y="29" style="fill:#3F51B5;" width="6" height="4"/>
</svg>
