<?xml version="1.0" encoding="iso-8859-1"?>
<!-- Generator: Adobe Illustrator 21.0.2, SVG Export Plug-In . SVG Version: 6.00 Build 0)  -->
<svg version="1.1" id="Layer_1" xmlns="http://www.w3.org/2000/svg" xmlns:xlink="http://www.w3.org/1999/xlink" x="0px" y="0px"
	 viewBox="0 0 48 48" style="enable-background:new 0 0 48 48;" xml:space="preserve">
<g id="surface1_119_">
	<path style="fill:#FF3D00;" d="M24,4C12.947,4,4,12.947,4,24s8.947,20,20,20s20-8.947,20-20S35.053,4,24,4z"/>
	<path style="fill:#FFFFFF;" d="M24,8C15.146,8,8,15.146,8,24s7.146,16,16,16s16-7.146,16-16S32.854,8,24,8z M24,36
		c-6.656,0-12-5.344-12-12s5.344-12,12-12s12,5.344,12,12S30.656,36,24,36z M24,16c-4.455,0-8,3.545-8,8s3.545,8,8,8s8-3.545,8-8
		S28.455,16,24,16z M24,28c-2.266,0-4-1.734-4-4s1.734-4,4-4s4,1.734,4,4S26.266,28,24,28z"/>
	<path style="fill:#1976D2;" d="M43,9c0,0-0.602,2.301-2.199,3.801c-1.602,1.598-8,2.398-8,2.398s0.801-6.5,2.398-8
		C36.699,5.602,39,5,39,5v4H43z"/>
	<path style="fill:#37474F;" d="M42.699,5.301c-0.398-0.402-1-0.402-1.398,0l-18,18c-0.402,0.398-0.402,1,0,1.398
		C23.5,24.898,23.801,25,24,25s0.5-0.102,0.699-0.301l18-18C43.102,6.301,43.102,5.699,42.699,5.301z"/>
	<path style="fill:#42A5F5;" d="M38.977,7.727l1.414,1.414l-5.867,5.871l-1.414-1.414L38.977,7.727z"/>
</g>
</svg>
