<?xml version="1.0" encoding="utf-8"?>
<!-- Generator: Adobe Illustrator 15.0.0, SVG Export Plug-In . SVG Version: 6.00 Build 0)  -->
<!DOCTYPE svg PUBLIC "-//W3C//DTD SVG 1.1//EN" "http://www.w3.org/Graphics/SVG/1.1/DTD/svg11.dtd">
<svg version="1.1"  xmlns="http://www.w3.org/2000/svg" xmlns:xlink="http://www.w3.org/1999/xlink" x="0px" y="0px"
	 width="48px" height="48px" viewBox="0 0 48 48" enable-background="new 0 0 48 48" xml:space="preserve">
<g>
	<path fill="#FFCC80" d="M34.902,23H23.792H23V8.989C23,7.883,22,6,20,6s-3,1.989-3,2.989s0,24.003,0,24.003l-4.375-4.021
		c-1.39-1.392-3.448-1.518-4.838,0.182c-1.235,1.392-0.928,3.555,0.31,4.789l5.692,5.692C16.903,43.001,21.561,44,24.644,44h6.879
		c5.1,0,9.365-4.056,9.365-9.154c0,0,0.014-4.83,0.014-10.846L34.902,23z"/>
	<path fill="#FFCC80" d="M23,27.086C23,28.689,24.35,30,26,30c1.651,0,3-1.311,3-2.914V6.912C29,5.31,27.651,4,26,4
		c-1.65,0-3,1.31-3,2.912V27.086z"/>
	<path fill="#FFCC80" d="M35,31.086C35,32.689,36.35,34,38,34c1.651,0,3-1.311,3-2.914l0.015-18.174c0-1.603-1.349-2.912-3-2.912
		c-1.65,0-3,1.31-3,2.912L35,31.086z"/>
	<path fill="#FFCC80" d="M29,29.086C29,30.689,30.35,32,32,32c1.651,0,3-1.311,3-2.914V8.912C35,7.31,33.651,6,32,6
		c-1.65,0-3,1.31-3,2.912V29.086z"/>
</g>
<g>
	<g>
		<path fill="#F2A25A" d="M23.008,9C23.006,9.008,23,9.029,23,9.029l0.008,13.978c0,0.552,0.447,1,1,1s1-0.448,1-1L23.008,9z"/>
	</g>
	<path fill="#F2A25A" d="M29.052,8.414c-0.021,0.119-0.031,0.239-0.037,0.361v0.002L29,24c0,0.552,0.447,1,1,1s1-0.448,1-1
		L29.052,8.414z"/>
	<path fill="#F2A25A" d="M35.037,12.051C35.016,12.17,35.006,12.29,35,12.412v0.002V25c0,0.552,0.447,1,1,1s1-0.448,1-1
		L35.037,12.051z"/>
</g>
<g>
	<circle fill="#F44336" cx="26" cy="32" r="3"/>
	<circle fill="#F44336" cx="32" cy="32" r="3"/>
	<polygon fill="#F44336" points="28.917,39 34.233,34 29,32 23.458,33.588 	"/>
</g>
</svg>
