<svg id="Layer_1" data-name="Layer 1" xmlns="http://www.w3.org/2000/svg" xmlns:xlink="http://www.w3.org/1999/xlink" viewBox="0 0 77.37 60.09"><defs><style>.cls-1{fill:url(#linear-gradient);}.cls-2{fill:#d5d6db;}.cls-3{fill:#d61c23;}.cls-4{fill:url(#linear-gradient-2);}</style><linearGradient id="linear-gradient" x1="25.5" y1="30.98" x2="54.25" y2="30.98" gradientTransform="translate(-11.25 27.2) rotate(-33.48)" gradientUnits="userSpaceOnUse"><stop offset="0" stop-color="#211c40"/><stop offset="0.9" stop-color="#272847"/></linearGradient><linearGradient id="linear-gradient-2" x1="36.44" y1="25.04" x2="50.35" y2="25.04" gradientTransform="matrix(0.28, -0.96, -0.96, -0.28, 32.36, 55.04)" xlink:href="#linear-gradient"/></defs><title>Interests-Icons</title><path class="cls-1" d="M60.64,38.71C56.87,27.47,45.9,26.27,36.23,25.22a56.16,56.16,0,0,1-11.24-2c-2.77-.92-4.58-2.34-5.38-4.23-1.37-3.24.4-7.06.44-7.15a3.45,3.45,0,0,1,.2-.46,6.24,6.24,0,0,1-.85.05,5.1,5.1,0,0,1-3-2.3L16.32,9c-.25.47-.41.79-.44.86-.12.23-2.75,5.73-.56,11,1.34,3.2,4.1,5.51,8.2,6.87a61.06,61.06,0,0,0,12.21,2.17c4.52.49,9.21,1,12.93,2.5a12.24,12.24,0,0,1,7.58,7.85c2.21,6.58-2.05,12.59-5.5,16.14l6,.16C61.23,50.62,62.58,44.47,60.64,38.71Z"/><polygon class="cls-2" points="57.34 46.94 57.23 47.75 56.65 47.99 39.07 55.4 38.21 55.76 38.31 54.94 57.34 46.94"/><polygon class="cls-2" points="38.21 55.76 37.47 55.18 37.57 54.37 38.31 54.94 38.21 55.76"/><polygon class="cls-2" points="38.31 54.94 37.57 54.37 56.59 46.36 57.34 46.94 38.31 54.94"/><polygon class="cls-2" points="57.21 41.29 57.1 42.1 56.52 42.34 37 50.56 36.14 50.92 36.24 50.11 57.21 41.29"/><polygon class="cls-2" points="36.14 50.92 35.4 50.34 35.5 49.53 36.24 50.11 36.14 50.92"/><polygon class="cls-2" points="36.24 50.11 35.5 49.53 56.46 40.72 57.21 41.29 36.24 50.11"/><polygon class="cls-2" points="55.03 36.51 54.92 37.32 54.34 37.56 34.82 45.78 33.96 46.14 34.07 45.33 55.03 36.51"/><polygon class="cls-2" points="33.96 46.14 33.22 45.57 33.32 44.75 34.07 45.33 33.96 46.14"/><polygon class="cls-2" points="34.07 45.33 33.32 44.75 54.28 35.94 55.03 36.51 34.07 45.33"/><polygon class="cls-2" points="50.97 32.58 50.87 33.39 50.29 33.63 32.41 41.17 31.55 41.52 31.65 40.71 50.97 32.58"/><polygon class="cls-2" points="31.55 41.52 30.81 40.95 30.91 40.14 31.65 40.71 31.55 41.52"/><polygon class="cls-2" points="31.65 40.71 30.91 40.14 50.23 32 50.97 32.58 31.65 40.71"/><polygon class="cls-2" points="44.22 30.19 44.11 31 43.53 31.25 33.36 35.44 32.5 35.79 32.61 34.98 44.22 30.19"/><polygon class="cls-2" points="32.5 35.79 31.76 35.22 31.86 34.41 32.61 34.98 32.5 35.79"/><polygon class="cls-2" points="32.61 34.98 31.86 34.41 43.47 29.62 44.22 30.19 32.61 34.98"/><polygon class="cls-2" points="30.96 25.48 31.75 25.7 32.2 25.26 38.51 19.15 39.17 18.5 38.38 18.27 30.96 25.48"/><polygon class="cls-2" points="39.17 18.5 38.93 17.59 38.15 17.37 38.38 18.27 39.17 18.5"/><polygon class="cls-2" points="38.38 18.27 38.15 17.37 30.72 24.57 30.96 25.48 38.38 18.27"/><polygon class="cls-2" points="25.18 24.11 25.97 24.33 26.42 23.89 38.18 12.5 38.84 11.85 38.05 11.63 25.18 24.11"/><polygon class="cls-2" points="38.84 11.85 38.6 10.94 37.81 10.72 38.05 11.63 38.84 11.85"/><polygon class="cls-2" points="38.05 11.63 37.81 10.72 24.94 23.2 25.18 24.11 38.05 11.63"/><polygon class="cls-2" points="20.58 21.31 21.36 21.53 21.81 21.09 34.63 8.67 35.3 8.02 34.51 7.8 20.58 21.31"/><polygon class="cls-2" points="35.3 8.02 35.06 7.11 34.27 6.89 34.51 7.8 35.3 8.02"/><polygon class="cls-2" points="34.51 7.8 34.27 6.89 20.34 20.4 20.58 21.31 34.51 7.8"/><polygon class="cls-2" points="18.3 15.56 19.09 15.79 19.54 15.35 29.48 5.71 30.15 5.06 29.36 4.84 18.3 15.56"/><polygon class="cls-2" points="30.15 5.06 29.91 4.15 29.12 3.93 29.36 4.84 30.15 5.06"/><polygon class="cls-2" points="29.36 4.84 29.12 3.93 18.07 14.66 18.3 15.56 29.36 4.84"/><path class="cls-3" d="M68.82,53.71a2.33,2.33,0,0,0-3-1.35A54,54,0,0,1,55.07,55c-9.32,1.24-14.1-1-16.48-3.12a12.21,12.21,0,0,1-4.25-10c.07-4,1.44-8.52,2.75-12.88a60.39,60.39,0,0,0,2.79-12.07c.35-4.32-.7-7.76-3.11-10.25-3.94-4.05-10.28-3.9-11.85-3.82l-.32,0c-.77,2-2.1,4.41-2.08,4.41.46,0,3.33.2,4.2.24,0,0,4.27-.15,6.72,2.37,1.44,1.48,2,3.71,1.81,6.63a56.56,56.56,0,0,1-2.6,11.11c-2.82,9.31-6,19.87,2.86,27.74,4.52,4,11.34,5.45,20.26,4.25a58.25,58.25,0,0,0,11.71-2.87,2.42,2.42,0,0,0,.45-.24A2.32,2.32,0,0,0,68.82,53.71Z"/><path class="cls-4" d="M15.75,10.13S16.21,9,16.91,7.54A26.27,26.27,0,0,1,21.7.48,2.26,2.26,0,0,1,24.6.41,2.31,2.31,0,0,1,25,3.66a35.19,35.19,0,0,0-5.55,9.58"/></svg>