<svg id="Layer_1" data-name="Layer 1" xmlns="http://www.w3.org/2000/svg" viewBox="0 0 77.37 60.09"><defs><style>.cls-1,.cls-2{fill:#d61c23;}.cls-1{stroke:#d61c23;stroke-miterlimit:10;stroke-width:0.39px;}.cls-3{fill:#fadddf;}.cls-4{fill:#fff;}</style></defs><title>Interests-Icons</title><path class="cls-1" d="M35.88,20.3c2.34-2.3,5.89-2,8.1.71a3.51,3.51,0,0,0,.22-.43q2.32-7.23,4.63-14.47c.26-.81.53-1.63.81-2.43a4.36,4.36,0,0,1,6.54-2.51,3.92,3.92,0,0,1,2.11,4.94Q55,18.79,51.76,31.45a2.21,2.21,0,0,0,.05.92c.42,2.07.92,4.13,1.27,6.21.4,2.39-.58,4.5-1.65,6.54a33.53,33.53,0,0,1-6.19,8.43,6.38,6.38,0,0,0-2,3.52,5.74,5.74,0,0,1-.28,1,2.35,2.35,0,0,1-3,1.7c-.83-.19-1.65-.45-2.47-.69L22.9,54.88a2.38,2.38,0,0,1-1.87-3,.32.32,0,0,1,0-.14c.92-1.89.49-3.7-.1-5.62a32.52,32.52,0,0,1,0-18.92,36,36,0,0,1,1.64-4.29,4,4,0,0,1,4.34-2.15c.63.07,1.23.28,1.85.38a.72.72,0,0,0,.55-.11,5.13,5.13,0,0,1,6.15-.9ZM22.05,31c-.1.43-.17.66-.2.89A29.56,29.56,0,0,0,23,46,8,8,0,0,1,23,51.92c-.34.81-.2.94.63,1.18l16.23,4.66c1,.29,1.18.27,1.37-.76a9.45,9.45,0,0,1,2.95-5.14,29.05,29.05,0,0,0,5.48-7.52A9.45,9.45,0,0,0,51.2,39.9a29.23,29.23,0,0,0-2-9.36.85.85,0,0,0-.22-.38c-.34-.29-.66-.7-1.06-.81-1.87-.56-3.77-1.05-5.67-1.53-1.65-.42-3.31-.76-5-1.19-1.27-.33-2.08.28-2,1.58a3.87,3.87,0,0,0,2.26,3.41c1.69.79,3.45,1.44,5.2,2.1.93.35,1,.48,1.08,1.46a28.17,28.17,0,0,0,.34,3.17c.12.71,0,1.2-.57,1.37A.93.93,0,0,1,42.37,39c-.19-.55-.3-1.11-.44-1.64A6.44,6.44,0,0,1,36.1,36.1,5.27,5.27,0,0,1,29.69,36l-.48.3a4.33,4.33,0,0,1-6.7-2.81C22.38,32.75,22.23,32,22.05,31Zm28.23-2.33c.73-2.53,1.51-5.09,2.19-7.67q2.07-7.84,4-15.71a2.21,2.21,0,0,0-.22-1.52,2.9,2.9,0,0,0-2.85-1.28,2.22,2.22,0,0,0-2,1.77Q48.21,14.33,45,24.42a11.09,11.09,0,0,0-.28,2.06C46.71,27.21,48.9,27.07,50.28,28.66ZM30.4,23.2c-.55,2-.39,8.79.35,10.78A1.85,1.85,0,0,0,31.81,35a4.75,4.75,0,0,0,2.28,0,1.87,1.87,0,0,0,.77-3.1,5.66,5.66,0,0,1-1.42-4.73,3.23,3.23,0,0,1,1-1.72A1.91,1.91,0,0,0,35,24.23a12.15,12.15,0,0,0,0-1.81.91.91,0,0,0-.31-.54A2.76,2.76,0,0,0,30.4,23.2ZM24,24.54a28.58,28.58,0,0,0,.42,8.79,2.45,2.45,0,0,0,3.84,1.36,1,1,0,0,0,.44-1.11,35.88,35.88,0,0,1-.44-9.14c.15-1.62.09-1.69-1.55-1.82a3.64,3.64,0,0,0-.66,0A2.2,2.2,0,0,0,24,24.54Zm19,1.62c-.12-1.09-.21-2.14-.36-3.18A2.58,2.58,0,0,0,40,20.75c-2-.07-2.72.36-3.08,2a7.67,7.67,0,0,0-.09,1.73c0,.14.23.35.39.39C39.06,25.3,40.92,25.7,43,26.16ZM37.32,33.8a4.36,4.36,0,0,0,.36,1.06c.54.74,2.8,1,3.68.5Z"/><path class="cls-1" d="M37.32,33.8l4,1.56c-.88.54-3.14.24-3.68-.5A4.36,4.36,0,0,1,37.32,33.8Z"/><path class="cls-2" d="M40.65,57.53a2.86,2.86,0,0,1-.67-.15L23.75,52.72a1.41,1.41,0,0,1-.53-.2,1.53,1.53,0,0,1,.15-.45,8.27,8.27,0,0,0-.05-6.19,28.84,28.84,0,0,1-1.26-12.64c0,.12,0,.24.07.36a4.52,4.52,0,0,0,4.6,3.85,5.07,5.07,0,0,0,2.69-.77l.24-.16a5.28,5.28,0,0,0,3.21,1,5.74,5.74,0,0,0,3.22-1,6.21,6.21,0,0,0,4,1.37,9.47,9.47,0,0,0,1.54-.14l0,.13c.1.39.2.79.33,1.18a1.31,1.31,0,0,0,1.26,1,1.74,1.74,0,0,0,.45-.06c.73-.22,1-.83.85-1.82a28.93,28.93,0,0,1-.34-3.12c-.06-1.13-.26-1.4-1.33-1.81l-.48-.18c-1.56-.58-3.17-1.19-4.7-1.9a3.49,3.49,0,0,1-2-3.09,1.32,1.32,0,0,1,.24-1,.91.91,0,0,1,.7-.26,2.14,2.14,0,0,1,.54.08c.89.23,1.78.44,2.68.64l2.29.55c2.1.53,3.87,1,5.65,1.52a1.79,1.79,0,0,1,.64.48l.28.25a1.79,1.79,0,0,1,.1.22,28.58,28.58,0,0,1,2,9.24,8.3,8.3,0,0,1-1.3,3.89l-.19.36a28.51,28.51,0,0,1-5.4,7.42,9.85,9.85,0,0,0-3.07,5.34c-.08.47-.14.58-.17.61Z"/><path class="cls-3" d="M36.62,27.32a1.48,1.48,0,0,1,.44.07c.9.23,1.81.44,2.69.64l2.28.55c1.81.46,3.75,1,5.64,1.52a1.74,1.74,0,0,1,.48.38l.24.23a.36.36,0,0,1,0,.09,28.18,28.18,0,0,1,2,9.11,7.85,7.85,0,0,1-1.25,3.7L49,44a28.13,28.13,0,0,1-5.32,7.32,10.2,10.2,0,0,0-3.18,5.55c0,.1,0,.18,0,.25L40.09,57,23.86,52.35l-.16-.05,0-.08a8.65,8.65,0,0,0,0-6.47,27.78,27.78,0,0,1-1.4-10.45,5,5,0,0,0,4.44,2.54,5.44,5.44,0,0,0,2.9-.83l0,0a5.7,5.7,0,0,0,3.22.95,6.16,6.16,0,0,0,3.2-.87,6.7,6.7,0,0,0,4,1.28,8.94,8.94,0,0,0,1.24-.09,10.15,10.15,0,0,0,.29,1,1.71,1.71,0,0,0,1.63,1.3,1.87,1.87,0,0,0,.56-.09c.54-.15,1.4-.66,1.12-2.25a28.55,28.55,0,0,1-.33-3.08A1.94,1.94,0,0,0,43,33l-.48-.18c-1.55-.59-3.16-1.19-4.67-1.9a3.1,3.1,0,0,1-1.81-2.76,1,1,0,0,1,.14-.69.53.53,0,0,1,.41-.14m0-.78c-.89,0-1.42.61-1.33,1.67a3.87,3.87,0,0,0,2.26,3.41c1.69.79,3.45,1.44,5.2,2.1.93.35,1,.48,1.08,1.46a28.17,28.17,0,0,0,.34,3.17c.12.71,0,1.2-.57,1.37a1,1,0,0,1-.34.05,1,1,0,0,1-.89-.76c-.19-.55-.3-1.11-.44-1.64a9.84,9.84,0,0,1-1.83.2,5.89,5.89,0,0,1-4-1.47,5.26,5.26,0,0,1-3.23,1.06A4.85,4.85,0,0,1,29.69,36l-.48.3a4.61,4.61,0,0,1-2.48.72,4.15,4.15,0,0,1-4.22-3.53c-.13-.78-.28-1.55-.46-2.54-.1.43-.17.66-.2.89A29.56,29.56,0,0,0,23,46,8,8,0,0,1,23,51.92c-.34.81-.2.94.63,1.18l16.23,4.66a3.14,3.14,0,0,0,.78.16c.35,0,.46-.24.59-.92a9.45,9.45,0,0,1,2.95-5.14,29.05,29.05,0,0,0,5.48-7.52A9.45,9.45,0,0,0,51.2,39.9a29.23,29.23,0,0,0-2-9.36.85.85,0,0,0-.22-.38c-.34-.29-.66-.7-1.06-.81-1.87-.56-3.77-1.05-5.67-1.53-1.65-.42-3.31-.76-5-1.19a2.53,2.53,0,0,0-.64-.09Z"/><path class="cls-2" d="M50.09,27.92a7.5,7.5,0,0,0-3.34-1.3c-.54-.12-1.1-.24-1.65-.41l0-.34a5.69,5.69,0,0,1,.21-1.33q2-6.33,4.06-12.65l2.43-7.52a1.83,1.83,0,0,1,1.64-1.5h.31A2.42,2.42,0,0,1,56,4a1.79,1.79,0,0,1,.18,1.21c-1.36,5.42-2.71,10.7-4,15.71-.47,1.78-1,3.57-1.5,5.3C50.42,26.77,50.25,27.35,50.09,27.92Z"/><path class="cls-3" d="M53.78,3.25h0a2,2,0,0,1,1.84.92,1.44,1.44,0,0,1,.13.92c-1.35,5.39-2.71,10.67-4,15.7-.47,1.77-1,3.56-1.5,5.28-.12.41-.24.81-.35,1.21a8.94,8.94,0,0,0-3-1c-.44-.09-.89-.19-1.32-.31v0a5.86,5.86,0,0,1,.19-1.25q2-6.31,4.06-12.63c.81-2.51,1.63-5,2.43-7.53.33-1,.87-1.2,1.3-1.23h.28m0-.78h-.34a2.22,2.22,0,0,0-2,1.77Q48.21,14.33,45,24.42a11.09,11.09,0,0,0-.28,2.06c2,.73,4.22.59,5.6,2.18.73-2.53,1.51-5.09,2.19-7.67q2.07-7.84,4-15.71a2.21,2.21,0,0,0-.22-1.52,2.82,2.82,0,0,0-2.51-1.29Z"/><path class="cls-2" d="M33,34.77a4.63,4.63,0,0,1-1.05-.12,1.53,1.53,0,0,1-.79-.81c-.72-2-.84-8.68-.33-10.54a2.36,2.36,0,0,1,2.29-1.6,2.1,2.1,0,0,1,1.37.48.51.51,0,0,1,.16.26,11.12,11.12,0,0,1,0,1.75,1.49,1.49,0,0,1-.46,1,3.61,3.61,0,0,0-1.08,1.95,6.1,6.1,0,0,0,1.52,5.05,1.63,1.63,0,0,1,.36,1.54,1.34,1.34,0,0,1-.94.93A4.23,4.23,0,0,1,33,34.77Z"/><path class="cls-3" d="M33.07,22.09h0a1.69,1.69,0,0,1,1.11.39s0,0,0,0a12.14,12.14,0,0,1,0,1.63,1.08,1.08,0,0,1-.35.74,4.13,4.13,0,0,0-1.19,2.17,6.47,6.47,0,0,0,1.62,5.37,1.27,1.27,0,0,1,.28,1.17,1,1,0,0,1-.68.66,3.77,3.77,0,0,1-.93.11,4.41,4.41,0,0,1-1-.1,1.21,1.21,0,0,1-.51-.57c-.64-1.73-.85-8.37-.33-10.29a2,2,0,0,1,1.92-1.32m0-.78A2.74,2.74,0,0,0,30.4,23.2c-.55,2-.39,8.79.35,10.78A1.85,1.85,0,0,0,31.81,35a5.46,5.46,0,0,0,1.14.13A4.3,4.3,0,0,0,34.09,35a1.87,1.87,0,0,0,.77-3.1,5.66,5.66,0,0,1-1.42-4.73,3.23,3.23,0,0,1,1-1.72A1.91,1.91,0,0,0,35,24.23a12.15,12.15,0,0,0,0-1.81.86.86,0,0,0-.31-.53,2.44,2.44,0,0,0-1.62-.58Z"/><path class="cls-2" d="M26.73,34.75a1.9,1.9,0,0,1-1.93-1.5,28.25,28.25,0,0,1-.41-8.67A1.79,1.79,0,0,1,26.09,23l.28,0,.31,0a2.87,2.87,0,0,1,1.18.21,2.93,2.93,0,0,1,0,1.18,36.11,36.11,0,0,0,.45,9.25.58.58,0,0,1-.28.71A2.42,2.42,0,0,1,26.73,34.75Z"/><path class="cls-3" d="M26.36,23.39h.29a7.88,7.88,0,0,1,.88.1c0,.21,0,.62-.05.87a36.8,36.8,0,0,0,.45,9.34c0,.23,0,.24-.1.32a2,2,0,0,1-1.1.33,1.5,1.5,0,0,1-1.55-1.19,28,28,0,0,1-.41-8.49c.29-1,.73-1.23,1.35-1.28h.24m0-.79-.31,0A2.2,2.2,0,0,0,24,24.54a28.58,28.58,0,0,0,.42,8.79,2.26,2.26,0,0,0,2.31,1.81,2.84,2.84,0,0,0,1.53-.45,1,1,0,0,0,.44-1.11,35.88,35.88,0,0,1-.44-9.14c.15-1.62.09-1.69-1.55-1.82l-.35,0Z"/><path class="cls-2" d="M41.79,25.49l-4.5-1-.1-.1a9.09,9.09,0,0,1,.1-1.56c.3-1.35.78-1.7,2.33-1.7H40A2.2,2.2,0,0,1,42.24,23c.11.71.18,1.42.26,2.15l0,.47Z"/><path class="cls-3" d="M39.62,21.52H40a1.82,1.82,0,0,1,1.9,1.57c.1.67.17,1.35.24,2.06l-.25-.06c-1.48-.32-2.87-.63-4.25-1a5,5,0,0,1,.08-1.24c.23-1.09.5-1.39,1.94-1.39m0-.78c-1.74,0-2.38.48-2.71,2a7.67,7.67,0,0,0-.09,1.73c0,.14.23.35.39.39,1.85.43,3.71.83,5.78,1.29-.12-1.09-.21-2.14-.36-3.18A2.58,2.58,0,0,0,40,20.75Z"/><path class="cls-4" d="M35.89,46.56l-1.58-.46-.62,1.43,1.57.45-.67,1.59L33,49.12l-.71,1.67-1.73-.49.71-1.68-1.42-.41-.72,1.68-1.71-.49.71-1.68-1.57-.45.68-1.58,1.57.45.61-1.43-1.55-.45.65-1.59,1.58.45.75-1.76,1.71.49-.75,1.76,1.43.41L34,42.26l1.72.49L35,44.52l1.57.45ZM32,47l.61-1.43-1.42-.41-.62,1.43Z"/><path class="cls-4" d="M37,43.12l4,1.14L38.61,52.6l-2.47-.71L38,45.53l-1.52-.44Z"/><path class="cls-2" d="M44.17,38.55,44.5,41,25.06,39.56l-2.79-3.67-.22-5,.89,2.33,2.7,3.14,2.16-.72a4.28,4.28,0,0,1,1.95-.18l2.3.29,4.58-.42,5.44,1Z"/></svg>