<?xml version="1.0" encoding="utf-8"?>
<!-- Generator: Adobe Illustrator 15.0.0, SVG Export Plug-In . SVG Version: 6.00 Build 0)  -->
<!DOCTYPE svg PUBLIC "-//W3C//DTD SVG 1.1//EN" "http://www.w3.org/Graphics/SVG/1.1/DTD/svg11.dtd">
<svg version="1.1"  xmlns="http://www.w3.org/2000/svg" xmlns:xlink="http://www.w3.org/1999/xlink" x="0px" y="0px"
	 width="48px" height="48px" viewBox="0 0 48 48" enable-background="new 0 0 48 48" xml:space="preserve">
<rect x="3" y="21" fill="#FFC107" width="42" height="19"/>
<g>
	<path fill="#455A64" d="M45,21v-5c0-1.104-0.896-2-2-2H5c-1.104,0-2,0.896-2,2v5H45z"/>
	<path fill="#455A64" d="M19,14v-4h9v4h2v-4c0-1.104-0.896-2-2-2h-9c-1.104,0-2,0.896-2,2v4H19z"/>
</g>
<g>
	<rect x="9" y="19" fill="#78909C" width="6" height="9"/>
	<rect x="33" y="19" fill="#78909C" width="6" height="9"/>
</g>
<g>
	<rect x="9" y="24" fill="#455A64" width="6" height="2"/>
	<rect x="33" y="24" fill="#455A64" width="6" height="2"/>
</g>
</svg>
