<svg id="Layer_1" data-name="Layer 1" xmlns="http://www.w3.org/2000/svg" xmlns:xlink="http://www.w3.org/1999/xlink" viewBox="0 0 77.37 60.09"><defs><style>.cls-1,.cls-4{fill:#fff;}.cls-2{fill:#d9d9e0;}.cls-3{fill:#b9bbc3;}.cls-4{stroke:#dad9e1;stroke-miterlimit:10;stroke-width:0.5px;}.cls-5{fill:#373a5c;}.cls-6{opacity:0.23;}.cls-7{mask:url(#mask);}.cls-8{fill:#cd4b54;}.cls-9{mask:url(#mask-2);}.cls-10{fill:#d9d9df;}.cls-11{fill:#e5e5e4;}.cls-12{fill:#202851;}.cls-13{fill:#e9d536;}.cls-14{fill:#dda65e;}</style><mask id="mask" x="53.22" y="-0.1" width="8.57" height="8.53" maskUnits="userSpaceOnUse"><g id="_77a732ad-5407-40b2-823c-f3082ba1c8ea" data-name="77a732ad-5407-40b2-823c-f3082ba1c8ea"><g id="_6204e5f2-5d88-407e-a0ca-93b9379d2193" data-name="6204e5f2-5d88-407e-a0ca-93b9379d2193"><g id="_7639f613-f21c-4d6c-b213-84755818477e" data-name="7639f613-f21c-4d6c-b213-84755818477e"><polygon id="_40684f33-ef41-4627-9269-0e00e4d24972" data-name="40684f33-ef41-4627-9269-0e00e4d24972" class="cls-1" points="54.84 -0.1 61.79 1.54 60.16 8.44 53.22 6.8 54.84 -0.1"/></g></g></g></mask><mask id="mask-2" x="52.53" y="1.46" width="8.98" height="8.94" maskUnits="userSpaceOnUse"><g id="_77a732ad-5407-40b2-823c-f3082ba1c8ea-2" data-name="77a732ad-5407-40b2-823c-f3082ba1c8ea"><g id="_6204e5f2-5d88-407e-a0ca-93b9379d2193-2" data-name="6204e5f2-5d88-407e-a0ca-93b9379d2193"><g id="_7639f613-f21c-4d6c-b213-84755818477e-2" data-name="7639f613-f21c-4d6c-b213-84755818477e"><polygon id="_40684f33-ef41-4627-9269-0e00e4d24972-2" data-name="40684f33-ef41-4627-9269-0e00e4d24972" class="cls-1" points="54.23 1.46 61.51 3.18 59.8 10.4 52.52 8.69 54.23 1.46"/></g></g></g></mask></defs><title>Interests-Icons</title><rect class="cls-2" x="22.06" y="6.87" width="42.62" height="52.09" rx="2.38" ry="2.38" transform="translate(1.93 -2.4) rotate(3.24)"/><rect class="cls-3" x="28.26" y="15.81" width="33.15" height="3.55" rx="1.71" ry="1.71" transform="translate(1.07 -2.5) rotate(3.24)"/><rect class="cls-3" x="27.83" y="23.06" width="17.76" height="3.55" rx="1.71" ry="1.71" transform="translate(1.46 -2.03) rotate(3.24)"/><rect class="cls-3" x="47.14" y="23.77" width="4.18" height="3.55" rx="1.71" ry="1.71" transform="translate(1.52 -2.74) rotate(3.24)"/><rect class="cls-3" x="51.31" y="24.16" width="9.48" height="3.55" rx="1.71" ry="1.71" transform="translate(1.55 -3.12) rotate(3.24)"/><rect class="cls-3" x="42.63" y="31.21" width="17.76" height="3.55" rx="1.71" ry="1.71" transform="translate(101.07 68.83) rotate(-176.76)"/><rect class="cls-3" x="36.9" y="30.5" width="4.18" height="3.55" rx="1.71" ry="1.71" transform="translate(76.09 66.71) rotate(-176.76)"/><rect class="cls-3" x="27.43" y="30.07" width="7.91" height="3.55" rx="1.71" ry="1.71" transform="translate(60.92 65.42) rotate(-176.76)"/><rect class="cls-3" x="26.95" y="38.86" width="33.15" height="3.55" rx="1.71" ry="1.71" transform="translate(2.36 -2.39) rotate(3.24)"/><rect class="cls-3" x="26.52" y="46.55" width="33.15" height="3.55" rx="1.71" ry="1.71" transform="translate(2.8 -2.36) rotate(3.24)"/><rect class="cls-4" x="10.01" y="1.44" width="42.62" height="52.09" rx="2.34" ry="2.34" transform="translate(-1.7 2.06) rotate(-3.67)"/><path class="cls-5" d="M29.94,16.59a1.84,1.84,0,1,1,1.71-2h0A1.83,1.83,0,0,1,29.94,16.59Zm-.22-3.32a1.49,1.49,0,1,0,1.58,1.39h0A1.49,1.49,0,0,0,29.72,13.27Z"/><path class="cls-5" d="M37.43,16.11a1.84,1.84,0,1,1,1.72-2h0A1.84,1.84,0,0,1,37.43,16.11Zm-.21-3.32a1.49,1.49,0,1,0,1.57,1.39h0A1.48,1.48,0,0,0,37.22,12.79Z"/><path class="cls-5" d="M44.92,15.63a1.84,1.84,0,1,1,1.72-2h0A1.83,1.83,0,0,1,44.92,15.63Zm-.21-3.32a1.49,1.49,0,1,0,1.58,1.39h0A1.49,1.49,0,0,0,44.71,12.31Z"/><path class="cls-5" d="M30.36,23.18a1.84,1.84,0,1,1,1.72-2,1.84,1.84,0,0,1-1.72,2Zm-.21-3.32a1.49,1.49,0,1,0,1.57,1.39v0a1.49,1.49,0,0,0-1.57-1.38Z"/><path class="cls-5" d="M37.85,22.7A1.84,1.84,0,0,1,37.61,19a1.84,1.84,0,0,1,.26,3.68Zm-.21-3.32a1.49,1.49,0,0,0,.18,3,1.5,1.5,0,0,0,1.4-1.58v0a1.48,1.48,0,0,0-1.57-1.38Z"/><path class="cls-5" d="M45.35,22.22a1.84,1.84,0,1,1,1.72-2,1.85,1.85,0,0,1-1.72,2Zm-.22-3.32a1.49,1.49,0,1,0,1.58,1.39v0a1.49,1.49,0,0,0-1.58-1.38Z"/><path class="cls-5" d="M30.78,29.76a1.84,1.84,0,0,1-.24-3.68,1.84,1.84,0,0,1,2,1.72h0A1.85,1.85,0,0,1,30.78,29.76Zm-.21-3.32a1.48,1.48,0,1,0,1.58,1.38h0A1.48,1.48,0,0,0,30.57,26.44Z"/><path class="cls-5" d="M45.77,28.79a1.84,1.84,0,1,1,1.72-1.95h0A1.84,1.84,0,0,1,45.77,28.79Zm-.21-3.32a1.49,1.49,0,1,0,1.57,1.39h0A1.49,1.49,0,0,0,45.56,25.47Z"/><path class="cls-5" d="M31.62,42.81a1.84,1.84,0,1,1,1.72-2h0A1.85,1.85,0,0,1,31.62,42.81Zm-.21-3.32A1.48,1.48,0,1,0,33,40.87h0a1.48,1.48,0,0,0-1.57-1.39Z"/><path class="cls-5" d="M38.28,29.29a1.84,1.84,0,1,1,1.71-2h0A1.83,1.83,0,0,1,38.28,29.29ZM38.06,26a1.49,1.49,0,1,0,1.58,1.39h0A1.49,1.49,0,0,0,38.06,26Z"/><path class="cls-5" d="M46.19,35.37a1.84,1.84,0,1,1,1.72-1.95h0a1.83,1.83,0,0,1-1.71,1.95ZM46,32.05a1.49,1.49,0,1,0,1.58,1.4h0A1.49,1.49,0,0,0,46,32.05Z"/><path class="cls-5" d="M31.21,36.35a1.84,1.84,0,1,1,1.71-2h0A1.83,1.83,0,0,1,31.21,36.35ZM31,33a1.49,1.49,0,1,0,1.58,1.39h0A1.49,1.49,0,0,0,31,33Z"/><path class="cls-5" d="M39.12,42.44a1.84,1.84,0,0,1-.24-3.68,1.84,1.84,0,0,1,2,1.72h0A1.85,1.85,0,0,1,39.12,42.44Zm-.21-3.32a1.48,1.48,0,1,0,1.58,1.38h0A1.49,1.49,0,0,0,38.91,39.12Z"/><path class="cls-5" d="M46.61,42a1.84,1.84,0,1,1,1.72-2h0A1.84,1.84,0,0,1,46.61,42Zm-.21-3.32A1.48,1.48,0,0,0,45,40.21,1.49,1.49,0,1,0,48,40h0A1.48,1.48,0,0,0,46.4,38.64Z"/><path class="cls-5" d="M32.05,49.5a1.84,1.84,0,1,1,1.72-2h0A1.85,1.85,0,0,1,32.05,49.5Zm-.21-3.32a1.48,1.48,0,1,0,1.57,1.38h0a1.48,1.48,0,0,0-1.57-1.38Z"/><path class="cls-5" d="M39.54,49a1.84,1.84,0,1,1,1.72-2h0A1.84,1.84,0,0,1,39.54,49Zm-.21-3.32a1.48,1.48,0,1,0,1.58,1.39h0a1.49,1.49,0,0,0-1.58-1.38Z"/><path class="cls-5" d="M47,48.54a1.84,1.84,0,1,1,1.72-2h0A1.86,1.86,0,0,1,47,48.54Zm-.22-3.32a1.48,1.48,0,0,0,.19,3A1.49,1.49,0,0,0,48.4,46.6h0a1.47,1.47,0,0,0-1.58-1.38Z"/><circle class="cls-5" cx="15.63" cy="15.67" r="1.57"/><path class="cls-5" d="M15.75,17.5a1.84,1.84,0,1,1,1.72-1.95,1.84,1.84,0,0,1-1.72,1.95Zm-.21-3.32a1.49,1.49,0,0,0,.19,3,1.47,1.47,0,0,0,1.38-1.58h0A1.48,1.48,0,0,0,15.54,14.18Z"/><path class="cls-5" d="M23.24,17A1.84,1.84,0,1,1,25,15.07,1.83,1.83,0,0,1,23.24,17ZM23,13.7a1.49,1.49,0,1,0,1.58,1.39A1.49,1.49,0,0,0,23,13.7Z"/><path class="cls-5" d="M16.17,24.09a1.84,1.84,0,1,1,1.72-2,1.83,1.83,0,0,1-1.72,2ZM16,20.77a1.49,1.49,0,1,0,1.58,1.39v0A1.5,1.5,0,0,0,16,20.76Z"/><path class="cls-5" d="M23.67,23.61a1.84,1.84,0,0,1-2-1.72,1.84,1.84,0,1,1,2,1.72Zm-.22-3.32A1.49,1.49,0,1,0,25,21.68v0a1.49,1.49,0,0,0-1.58-1.38Z"/><path class="cls-5" d="M16.6,30.67a1.84,1.84,0,1,1,1.72-2,1.85,1.85,0,0,1-1.72,2Zm-.22-3.32A1.48,1.48,0,0,0,15,28.92a1.49,1.49,0,0,0,3-.19h0A1.48,1.48,0,0,0,16.38,27.35Z"/><path class="cls-5" d="M24.09,30.19a1.84,1.84,0,0,1-.24-3.68,1.84,1.84,0,0,1,2,1.72A1.86,1.86,0,0,1,24.09,30.19Zm-.21-3.33a1.49,1.49,0,1,0,.19,3,1.47,1.47,0,0,0,1.38-1.58h0A1.48,1.48,0,0,0,23.88,26.86Z"/><path class="cls-5" d="M17,37.25a1.84,1.84,0,1,1,1.72-2,1.85,1.85,0,0,1-1.72,2Zm-.22-3.32a1.48,1.48,0,0,0-1.39,1.57,1.49,1.49,0,1,0,3-.18h0A1.48,1.48,0,0,0,16.8,33.93Z"/><path class="cls-5" d="M24.51,36.77a1.84,1.84,0,1,1,1.72-2,1.84,1.84,0,0,1-1.72,2Zm-.21-3.33a1.49,1.49,0,1,0,1.58,1.4h0A1.49,1.49,0,0,0,24.3,33.44Z"/><path class="cls-5" d="M17.44,43.83a1.84,1.84,0,1,1,1.72-2h0A1.84,1.84,0,0,1,17.44,43.83Zm-.21-3.32a1.48,1.48,0,1,0,.19,3A1.47,1.47,0,0,0,18.8,41.9h0A1.48,1.48,0,0,0,17.23,40.51Z"/><path class="cls-5" d="M24.94,43.35a1.84,1.84,0,1,1,1.72-2h0A1.85,1.85,0,0,1,24.94,43.35ZM24.72,40a1.48,1.48,0,1,0,1.58,1.38h0A1.49,1.49,0,0,0,24.72,40Z"/><path class="cls-5" d="M17.86,50.41a1.84,1.84,0,1,1,1.72-2h0A1.84,1.84,0,0,1,17.86,50.41Zm-.21-3.32a1.48,1.48,0,1,0,1.58,1.39h0a1.49,1.49,0,0,0-1.58-1.39Z"/><path class="cls-5" d="M25.36,49.93a1.84,1.84,0,1,1,1.72-2h0A1.85,1.85,0,0,1,25.36,49.93Zm-.22-3.32A1.48,1.48,0,1,0,26.72,48h0a1.49,1.49,0,0,0-1.58-1.38Z"/><g class="cls-6"><path class="cls-1" d="M38.52,27a.54.54,0,0,1,.23.19.48.48,0,0,1,.09.29.63.63,0,0,1-.05.3.57.57,0,0,1-.2.21.85.85,0,0,1-.31.09l-.47,0-.08-1.13.49,0A.61.61,0,0,1,38.52,27Zm-.1.78a.29.29,0,0,0,.1-.12.32.32,0,0,0,0-.17.33.33,0,0,0,0-.16.23.23,0,0,0-.11-.11.45.45,0,0,0-.16,0H38l0,.65.2,0a.22.22,0,0,0,.15-.06Z"/></g><path class="cls-5" d="M38.69,35.79a1.84,1.84,0,1,1,1.72-2h0A1.84,1.84,0,0,1,38.69,35.79Zm-.21-3.32a1.49,1.49,0,1,0,1.58,1.39h0A1.49,1.49,0,0,0,38.48,32.47Z"/><circle class="cls-5" cx="23.5" cy="21.81" r="1.57"/><circle class="cls-5" cx="39.43" cy="47.15" r="1.57"/><circle class="cls-5" cx="31.52" cy="40.97" r="1.62"/><circle class="cls-5" cx="46.07" cy="33.55" r="1.67"/><rect class="cls-2" x="13.22" y="6.23" width="33.66" height="3.55" rx="1.71" ry="1.71" transform="translate(-0.45 1.94) rotate(-3.67)"/><g id="c3cd9901-9e62-4f49-ad0e-31814f6d1c67"><g id="_7babbd22-268f-4d8e-bdc3-87293134dc7a" data-name="7babbd22-268f-4d8e-bdc3-87293134dc7a"><g class="cls-7"><path id="_25a8bcb6-9419-47ee-974a-0ec1cbffd3a7" data-name="25a8bcb6-9419-47ee-974a-0ec1cbffd3a7" class="cls-8" d="M57.8,7.87l-2.88-1a1.88,1.88,0,0,1-1.13-2.39l1-2.82A1.89,1.89,0,0,1,57.2.46h0l2.88,1a1.88,1.88,0,0,1,1.14,2.4l-1,2.84a1.87,1.87,0,0,1-2.4,1.13"/></g></g><g id="_7babbd22-268f-4d8e-bdc3-87293134dc7a-2" data-name="7babbd22-268f-4d8e-bdc3-87293134dc7a"><g class="cls-9"><path id="_25a8bcb6-9419-47ee-974a-0ec1cbffd3a7-2" data-name="25a8bcb6-9419-47ee-974a-0ec1cbffd3a7" class="cls-10" d="M57.33,9.81l-3-1.09a2,2,0,0,1-1.19-2.5l1.17-3.66c.35-1,.36-1,1-.83,0,0,4.88,1.71,5.64,2,.53.22.39.42.14,1.19L59.84,8.63a2,2,0,0,1-2.51,1.18"/></g></g><path id="b858bee5-e499-4146-82c7-f0bd0d4fcd96" class="cls-11" d="M52.66,27.87,48,31.54a.44.44,0,0,1-.56-.2h0l-1.3-5.82a.42.42,0,0,1,.2-.56h0L50.37,23a.41.41,0,0,1,.55.19h0l1.92,4.08a.42.42,0,0,1-.2.56h0"/><path id="dd2d4e62-3ea9-46a2-8d89-9d968f4db888" class="cls-12" d="M49.09,30.63l-1.15.9a.42.42,0,0,1-.56-.2h0L47,29.88"/><path id="_550ad257-91b1-4a68-9f65-ac611956f18b" data-name="550ad257-91b1-4a68-9f65-ac611956f18b" class="cls-13" d="M52.24,27.83l-5.7-2A.92.92,0,0,1,46,24.6h0L53.7,3.12a.92.92,0,0,1,1.16-.56l5.7,2.05a.91.91,0,0,1,.55,1.18L53.4,27.27a.94.94,0,0,1-1.19.56"/><path id="_0f780949-6142-45f6-ab60-533cb14e84be" data-name="0f780949-6142-45f6-ab60-533cb14e84be" class="cls-14" d="M53.45,8.79a.57.57,0,0,1-.35-.71L54.5,4a.56.56,0,0,1,1.06.37L54.14,8.45a.55.55,0,0,1-.7.34"/><path id="_23e627c9-aa29-46e2-8521-bb67ab9d3c3f" data-name="23e627c9-aa29-46e2-8521-bb67ab9d3c3f" class="cls-14" d="M53.49,10.16a.47.47,0,0,1-.59.3h0a.46.46,0,1,1,.6-.29"/></g></svg>