<svg id="Layer_1" data-name="Layer 1" xmlns="http://www.w3.org/2000/svg" viewBox="0 0 77.37 60.09"><defs><style>.cls-1{fill:#131b3e;}.cls-2{fill:#333456;}.cls-3{fill:#e3e7ed;}.cls-4{fill:#83a0bc;}.cls-5{fill:#babcc5;}</style></defs><title>Interests-Icons</title><g id="Layer_2" data-name="Layer 2"><g id="Layer_1-2" data-name="Layer 1-2"><path class="cls-1" d="M64.92,37.26V31.93L42.87,18.61V4A4.14,4.14,0,0,0,34.6,4V18.61L12.54,31.93v5.33L34.6,30.6V45.26l-5.52,4v4l9.65-2.66,9.65,2.66v-4l-5.51-4V30.6Z"/><path class="cls-1" d="M38.73,50.59l9.65,2.66v-4l-5.51-4V30.6l22.05,6.66V31.93L42.87,18.61V4a4.18,4.18,0,0,0-4.14-4"/><path class="cls-2" d="M38.73,0A4.17,4.17,0,0,0,34.6,4V18.61L12.54,31.93v5.33L34.6,30.6V45.26l-5.52,4v4l9.65-2.66"/><path class="cls-3" d="M27.84,58.5h-.91v-.91a.18.18,0,0,0-.18-.18h0a.18.18,0,0,0-.18.18h0v.91h-.91a.18.18,0,0,0-.18.18.19.19,0,0,0,.18.19h.91v.9a.19.19,0,0,0,.18.19h0a.19.19,0,0,0,.18-.19v-.9h.91a.19.19,0,0,0,.18-.19h0a.18.18,0,0,0-.18-.18Z"/><path class="cls-4" d="M18.57,47.72h-.9v-.91a.19.19,0,0,0-.19-.18.18.18,0,0,0-.18.18h0v.91h-.91a.19.19,0,0,0-.19.18.18.18,0,0,0,.18.18h.92V49a.18.18,0,0,0,.18.18.19.19,0,0,0,.19-.18h0v-.91h.9a.17.17,0,0,0,.18-.17h0a.18.18,0,0,0-.18-.19Z"/><path class="cls-4" d="M61.67,39.36h-.9v-.91a.19.19,0,0,0-.19-.18.18.18,0,0,0-.18.18v.91h-.9a.18.18,0,0,0-.19.18.19.19,0,0,0,.18.19h.93v.9a.19.19,0,1,0,.37,0h0v-.9h.9a.19.19,0,0,0,.19-.18h0a.2.2,0,0,0-.19-.19Z"/><path class="cls-5" d="M27.29,37.26h-.9v-.9a.18.18,0,0,0-.18-.18h0a.18.18,0,0,0-.18.18h0v.9h-.91a.19.19,0,0,0-.18.19.18.18,0,0,0,.18.18H26v.9a.19.19,0,0,0,.18.19h0a.18.18,0,0,0,.18-.19v-.9h.91a.18.18,0,0,0,.18-.18h0a.19.19,0,0,0-.18-.19h0Z"/><path class="cls-3" d="M59,54.75h-.91v-.91a.18.18,0,0,0-.18-.18h0a.18.18,0,0,0-.18.18h0v.91h-.9a.18.18,0,0,0-.19.18.19.19,0,0,0,.18.19h.91V56a.19.19,0,0,0,.18.19h0a.19.19,0,0,0,.18-.19v-.9H59a.19.19,0,0,0,.18-.19h0a.18.18,0,0,0-.18-.18Z"/><path class="cls-4" d="M40.68,55.87h-.9V55a.18.18,0,0,0-.19-.19.18.18,0,0,0-.18.19v.9h-.9a.19.19,0,0,0-.19.19.18.18,0,0,0,.18.18h.91v.9a.19.19,0,1,0,.37,0h0v-.9h.9a.19.19,0,0,0,.19-.18h0a.2.2,0,0,0-.19-.19Z"/><path class="cls-5" d="M50,42.44h-.91v-.9a.18.18,0,0,0-.18-.18h0a.18.18,0,0,0-.18.18h0v.91H47.8a.17.17,0,0,0-.23.11.18.18,0,0,0,.11.24.24.24,0,0,0,.12,0h.91v.9a.19.19,0,0,0,.18.19h0a.19.19,0,0,0,.18-.19v-.9H50a.18.18,0,0,0,.18-.18h0a.17.17,0,0,0-.17-.19h0Z"/></g></g></svg>