<svg id="Layer_1" data-name="Layer 1" xmlns="http://www.w3.org/2000/svg" viewBox="0 0 77.37 60.09"><defs><style>.cls-1{fill:#062c5f;}.cls-2{fill:#fdd13c;}.cls-3{fill:#005e34;}.cls-4{fill:#fff;}.cls-5{fill:#cd4b53;}.cls-6{fill:#062244;}</style></defs><title>Interests-Icons</title><polygon class="cls-1" points="18.72 10.47 20.44 10.19 22 5.88 20.2 6.19 18.72 10.47"/><polygon class="cls-1" points="17.54 11.02 18.62 10.66 18.82 9.53 18.18 6.53 16.59 7.1 17.54 11.02"/><path class="cls-2" d="M25.52,44.3q1.85-8.36,3.56-16.75c1.1-5.37,2.32-10.75,3.16-16.17a11.26,11.26,0,0,0,.16-1.3.16.16,0,0,0-.16-.16c-3,0-6.08.08-9.11.13-2.88,0-5.8.21-8.67.07a.18.18,0,0,0-.17.17,33,33,0,0,0,.79,6.24c.47,2.92,1,5.83,1.54,8.74.68,3.74,1.29,7.49,2,11.23.89,4.79,1.81,9.56,2.74,14.34.35,1.82.71,3.65,1.07,5.47.14.73.23,1.51.44,2.23a.16.16,0,0,0,.32,0c.17-1.19.25-1.54.36-2.35.2-1.45.4-2.91.64-4.35.42-2.5.8-5,1.34-7.49,0-.2-.27-.29-.32-.09-.55,2.54-.94,5.12-1.37,7.67-.24,1.44-.47,2.87-.69,4.3a16.57,16.57,0,0,0-.29,2.31l.32,0c-.28-1-.39-2-.58-3-.47-2.39-.93-4.78-1.4-7.17-1.05-5.45-2.11-10.91-3.09-16.38-.54-3-1-6-1.58-9-.45-2.5-2-10.94-1.9-12.63l-.16.16c2.81.14,5.66,0,8.48-.07,3.1-.05,6.2-.13,9.3-.13l-.17-.17A22.1,22.1,0,0,1,31.64,13c-.28,1.54-.59,3.09-.9,4.63-.55,2.79-1.14,5.56-1.68,8.35C28,31.62,26.72,37.24,25.5,42.85l-.3,1.36C25.16,44.42,25.47,44.51,25.52,44.3Z"/><polygon class="cls-2" points="32.23 10.24 14.29 10.29 17.89 31.74 22.85 58.49 32.23 10.24"/><path class="cls-1" d="M25.27,41.67c1.09-5,2.16-10,3.17-14.94,1-4.8,2.07-9.59,2.83-14.43a9,9,0,0,0,.13-1.16.14.14,0,0,0-.14-.14c-2.71,0-5.42.07-8.13.12-2.56,0-5.17.19-7.73.06a.15.15,0,0,0-.15.14,29.89,29.89,0,0,0,.7,5.57c.43,2.61.9,5.2,1.37,7.8.61,3.34,1.16,6.69,1.78,10,.79,4.27,1.62,8.54,2.45,12.8.31,1.62.63,3.25.95,4.87.13.66.2,1.35.39,2a.15.15,0,0,0,.29,0c.1-.8.16-1.42.27-2.1.19-1.3.41-2.59.62-3.88.37-2.23.71-4.47,1.2-6.68,0-.18-.24-.26-.28-.08-.5,2.27-.85,4.56-1.23,6.85-.21,1.27-.42,2.55-.61,3.83a13,13,0,0,0-.26,2.06l.29,0a26.43,26.43,0,0,1-.53-2.65c-.41-2.13-.83-4.26-1.24-6.39-.94-4.87-1.89-9.73-2.76-14.61-.48-2.68-.93-5.37-1.41-8-.4-2.23-.8-4.47-1.16-6.7a25.23,25.23,0,0,1-.54-4.58l-.14.15c2.51.12,5,0,7.56-.06,2.77,0,5.53-.12,8.3-.12l-.15-.15a20.62,20.62,0,0,1-.38,2.6c-.25,1.38-.53,2.76-.8,4.14-.5,2.48-1,5-1.5,7.45-1,5-2.09,10-3.18,15.05-.09.4-.18.81-.26,1.21C24.94,41.78,25.23,41.86,25.27,41.67Z"/><path class="cls-1" d="M18,13.56h9.77l-.24,1.89c-1.65.22-3.27.45-4.86.68-.07,0-.28,0-1,.07l-.48,0h-.34l.34,0,.48,0a7.59,7.59,0,0,1,1,.08l4.66.67L27,18.92H18.62l-.14-1.16h4.86l1.07,0h1.06l-1.06-.1-1.06-.13-5-.75-.15-1.16,5.18-.76,1.15-.11.72-.08.45,0H24.55l-1.16,0h-5.3Z"/><path class="cls-1" d="M18.7,19.51H27l-.16,1.28H18.86Z"/><path class="cls-1" d="M19.83,21.38h6l.8.68-.26,2.09-.88.68H23.92c-.05-.42-.11-.85-.17-1.28h1.37l.07-.9H20.47l.08.92h1.57c.09.42.17.85.25,1.27H20.15l-.86-.67L19,22.06Z"/><path class="cls-1" d="M19.45,25.44h6.76l-.16,1.26H23.73l0,1h2.24L25.77,29H19.9l-.17-1.29h2.64l0-1H19.61Z"/><path class="cls-1" d="M20,29.55h5.72l-.16,1.27h-5.4Z"/><path class="cls-1" d="M20.8,31.42h4.06q.27.33.51.66c-.09.75-.19,1.49-.28,2.24l-.57.65h-.84c0-.42-.05-.85-.08-1.27h.73l.08-1H21.26l.08,1h1.14V33h.88L23.3,35H21.15l-.58-.68-.28-2.2Z"/><path class="cls-1" d="M20.69,35.2c1.47.38,2.86.76,4.14,1.14l-.24,1.9c-1.22.38-2.35.75-3.38,1.13L21,38l.7-.21-.07-1-.81-.21C20.8,36.12,20.74,35.66,20.69,35.2Zm1.71,1.64,0,.89,1.13-.35a6,6,0,0,1,.61-.09,5.21,5.21,0,0,1-.6-.1Z"/><path class="cls-1" d="M21.24,39.61h3.18l-.19,1.47a16.05,16.05,0,0,0-1.48,1.28l-.21.15-.07,0-.13.1.21-.06.22-.07h1.28l-.15,1.16H21.76l-.19-1.46A14,14,0,0,1,22.93,41a.82.82,0,0,1,.26-.17l.14-.07.14-.08-.11,0-.17.05a1.26,1.26,0,0,1-.28,0H21.39Z"/><polygon class="cls-3" points="55.9 10.13 57.75 10.18 59.99 6.24 58.15 6.21 55.9 10.13"/><polygon class="cls-3" points="54.64 10.15 55.78 10.08 56.26 9.03 56.41 5.97 54.72 6.13 54.64 10.15"/><path class="cls-3" d="M53.49,44.3q1.84-8.36,3.56-16.75c1.1-5.37,2.32-10.75,3.16-16.17a11.26,11.26,0,0,0,.16-1.3.16.16,0,0,0-.16-.16c-3,0-6.08.08-9.11.13s-5.79.21-8.67.07a.17.17,0,0,0-.16.17,32.18,32.18,0,0,0,.78,6.24c.48,2.92,1,5.83,1.54,8.74.68,3.74,1.29,7.49,2,11.23.89,4.79,1.81,9.56,2.74,14.34.36,1.82.71,3.65,1.07,5.47.14.73.23,1.51.44,2.23a.16.16,0,0,0,.32,0c.13-.83.2-1.52.3-2.37.19-1.45.46-2.9.7-4.34.42-2.5.8-5,1.34-7.49,0-.2-.27-.29-.31-.08-.56,2.53-1,5.11-1.38,7.66-.23,1.44-.47,2.87-.68,4.3a15.19,15.19,0,0,0-.3,2.32l.33,0a29.8,29.8,0,0,1-.59-3q-.7-3.59-1.39-7.17c-1.06-5.45-2.12-10.91-3.1-16.37-.53-3-1-6-1.58-9-.45-2.5-2-10.94-1.9-12.63-.05.05-.11.1-.16.16,2.81.14,5.67,0,8.48-.07,3.1-.05,6.2-.13,9.3-.13L60,10.08A22.1,22.1,0,0,1,59.61,13c-.28,1.54-.58,3.09-.89,4.63C58.16,20.42,57.57,23.19,57,26c-1.09,5.64-2.34,11.26-3.56,16.87-.1.46-.19.91-.29,1.37C53.13,44.42,53.45,44.51,53.49,44.3Z"/><polygon class="cls-3" points="60.23 10.21 42.09 10.29 50.89 58.25 60.23 10.21"/><path class="cls-4" d="M53.24,41.67q1.65-7.45,3.17-14.94c1-4.8,2.07-9.59,2.83-14.43a11.13,11.13,0,0,0,.14-1.16.15.15,0,0,0-.15-.14c-2.71,0-5.42.07-8.13.12s-5.16.19-7.73.06c-.08,0-.14.07-.15.14a29.89,29.89,0,0,0,.7,5.57c.43,2.61.9,5.2,1.37,7.8.61,3.34,1.16,6.69,1.78,10q1.2,6.4,2.45,12.8c.32,1.62.63,3.25.95,4.87.13.66.21,1.35.39,2a.15.15,0,0,0,.29,0c.1-.81.17-1.42.27-2.1.2-1.3.41-2.59.62-3.88.37-2.23.72-4.47,1.2-6.68,0-.18-.24-.26-.28-.08-.5,2.27-.85,4.56-1.23,6.85-.21,1.27-.42,2.55-.61,3.83a14.32,14.32,0,0,0-.26,2.06l.29,0c-.25-.85-.35-1.78-.52-2.65q-.63-3.19-1.25-6.39c-.94-4.87-1.89-9.73-2.76-14.61-.48-2.68-.92-5.37-1.41-8-.4-2.23-.8-4.47-1.15-6.7a23.57,23.57,0,0,1-.54-4.58l-.15.15c2.51.13,5.05,0,7.57-.06,2.76,0,5.53-.12,8.29-.12l-.15-.15a20.62,20.62,0,0,1-.38,2.6c-.25,1.38-.52,2.76-.8,4.14-.5,2.48-1,5-1.5,7.45-1,5-2.09,10-3.18,15.05-.09.4-.17.81-.26,1.21C52.92,41.78,53.2,41.86,53.24,41.67Z"/><path class="cls-4" d="M46.69,12.94H55l-.24,2.45-.92.57h-6l-.94-.59ZM53.42,14H48.3l.06.83h5Z"/><path class="cls-4" d="M47,16.36l7.55,1L54.42,19l-7,.95-.11-1.16,1.43-.18-.05-.85-1.5-.18Zm3,1.39,0,.76,2.22-.3,1.17-.08c-.5,0-1-.06-1.16-.08Z"/><path class="cls-4" d="M47.42,20.32h6.86L54,22.72l-.77.57H51.54c-.19-.16-.39-.31-.6-.47l-.57.47H47.72l-.11-1.08h2.75V21.4H47.53ZM53,21.4H51.53l0,.81H53Z"/><path class="cls-4" d="M52.69,23.68h1.25l-.28,2.86H52.52l0-.89H48c0-.36-.07-.72-.1-1.08h4.79Z"/><path class="cls-4" d="M48.08,26.92h5.54l-.16,1.61-2.73.58s-.15,0-.54.06l-.27,0-.19,0h.19l.27,0a2.46,2.46,0,0,1,.55.07l2.59.57-.16,1.61H48.54l-.1-1h2.7l.58,0,.59,0-.58-.09a5.38,5.38,0,0,1-.59-.11l-2.78-.64c0-.33-.07-.66-.1-1l2.9-.64.66-.1.4-.07.25,0h-.65l-.65,0h-3Z"/><path class="cls-4" d="M49.11,32.21h3.48l.45.57-.19,1.84c-.17.19-.33.39-.49.58h-3c-.16-.19-.32-.39-.49-.58-.06-.61-.12-1.23-.19-1.84Zm3.09,1.08H49.5l0,.82h2.6Z"/><path class="cls-4" d="M49.4,35.91h3.33L52.62,37H49.74l0,.84h2.74l-.1,1.09h-2.8l-.41-.57L49,36.48Z"/><path class="cls-4" d="M51.77,39.3h.62l-.29,2.86h-.5l0-.89H49.51l-.11-1.09h2.31Z"/><path class="cls-4" d="M49.64,42.54h2.42L52,43.62h-.8l0,.85h.73l-.1,1.08H49.94l-.11-1.09h.87v-.84h-.95Z"/><polygon class="cls-5" points="42.61 4.9 44.71 4.96 47.25 0.47 45.17 0.45 42.61 4.9"/><polygon class="cls-5" points="41.18 4.92 42.47 4.84 43.02 3.65 43.18 0.18 41.26 0.35 41.18 4.92"/><polygon class="cls-5" points="32.15 5.28 34.1 4.97 35.87 0.07 33.82 0.43 32.15 5.28"/><polygon class="cls-5" points="30.8 5.91 32.03 5.5 32.26 4.21 31.54 0.81 29.73 1.46 30.8 5.91"/><path class="cls-6" d="M39.87,43.73q2.1-9.49,4-19c1.25-6.11,2.64-12.22,3.6-18.38a14.74,14.74,0,0,0,.18-1.47.19.19,0,0,0-.19-.19c-3.45,0-6.9.1-10.35.15-3.27.05-6.58.24-9.85.08a.2.2,0,0,0-.19.19A37.78,37.78,0,0,0,28,12.17c.55,3.32,1.15,6.62,1.75,9.93.78,4.25,1.47,8.52,2.26,12.76q1.53,8.16,3.12,16.3c.4,2.07.81,4.14,1.21,6.21.17.83.26,1.72.51,2.53.06.2.32.16.36,0,.18-1,.25-1.75.34-2.68.18-1.66.52-3.29.8-4.94.47-2.83.91-5.69,1.52-8.5.05-.24-.31-.34-.36-.1-.63,2.88-1.07,5.81-1.56,8.71q-.41,2.44-.78,4.89a16.61,16.61,0,0,0-.33,2.62l.37,0c-.33-1.09-.45-2.26-.67-3.37L35,48.29c-1.2-6.19-2.4-12.39-3.51-18.6-.61-3.42-1.18-6.84-1.79-10.26C29.13,16.59,27.42,7,27.49,5.08l-.19.18c3.2.16,6.44,0,9.64-.07C40.46,5.13,44,5,47.5,5l-.19-.18a24.93,24.93,0,0,1-.49,3.31c-.31,1.76-.66,3.51-1,5.26-.64,3.17-1.31,6.32-1.92,9.49-1.24,6.41-2.66,12.79-4,19.17-.11.52-.23,1-.34,1.55C39.46,43.86,39.82,44,39.87,43.73Z"/><polygon class="cls-6" points="47.5 5.03 27.11 5.08 31.13 28.71 36.84 59.85 47.5 5.03"/><path class="cls-5" d="M39.58,40.74q1.88-8.48,3.61-17c1.11-5.45,2.35-10.9,3.21-16.39a11.88,11.88,0,0,0,.16-1.32.18.18,0,0,0-.17-.17c-3.08,0-6.16.09-9.23.14-2.92.05-5.88.22-8.79.07a.18.18,0,0,0-.17.17,32.93,32.93,0,0,0,.8,6.32c.48,3,1,5.92,1.56,8.87.69,3.79,1.31,7.59,2,11.38q1.36,7.28,2.79,14.54l1.08,5.54c.14.74.23,1.54.44,2.26a.17.17,0,0,0,.33,0c.18-1,.19-1.62.31-2.4.22-1.47.46-2.93.7-4.4.43-2.53.81-5.08,1.36-7.59.05-.21-.27-.3-.32-.09-.56,2.57-1,5.18-1.39,7.78-.24,1.45-.48,2.9-.7,4.36a15.27,15.27,0,0,0-.29,2.34l.33-.05c-.29-1-.4-2-.6-3L35.2,44.81c-1.07-5.52-2.15-11.05-3.14-16.6-.54-3-1.05-6.1-1.6-9.14-.46-2.54-.91-5.07-1.31-7.62a27.56,27.56,0,0,1-.62-5.19l-.16.16c2.85.14,5.74,0,8.6-.06,3.14-.05,6.28-.14,9.42-.14l-.17-.17a21.36,21.36,0,0,1-.44,3c-.28,1.57-.59,3.13-.9,4.69-.57,2.83-1.16,5.64-1.71,8.47-1.1,5.72-2.37,11.41-3.61,17.1l-.3,1.38C39.22,40.86,39.54,41,39.58,40.74Z"/><path class="cls-4" d="M32.41,9.13H43.1l-.28,1.56H33.44l.14,1.22h9l-.28,1.57H33c-.43-.28-.88-.55-1.34-.83L31.19,10C31.58,9.68,32,9.4,32.41,9.13Z"/><path class="cls-4" d="M32,14.51H42.14c-.21,1.18-.42,2.36-.64,3.55l-1.09.81H36.72l-1-.86c0-.65-.07-1.29-.11-1.93H32.28C32.19,15.56,32.09,15,32,14.51Zm8.09,1.57H37.35v1.19H40C40,16.87,40.05,16.48,40.09,16.08Z"/><path class="cls-4" d="M32.94,19.77H41.2l-.67,3.73H39.16c.08-.72.15-1.44.23-2.16H37.93l-.08,2H36.47l-.06-2H34.8c.08.72.15,1.44.23,2.15H33.6Z"/><path class="cls-4" d="M33.77,24.42h6.6l-.32,1.82c-1.15.52-2.2,1.05-3.15,1.58l-.47.18-.14.05-.29.12.46-.07a3.43,3.43,0,0,1,.48-.08h2.79c-.09.48-.17.95-.26,1.43h-4.8l-.33-1.81c.88-.52,1.86-1,2.94-1.57a2.69,2.69,0,0,1,.54-.2l.3-.08.29-.1-.23,0-.36.06a2.81,2.81,0,0,1-.58.06H34C33.94,25.37,33.85,24.89,33.77,24.42Z"/><path class="cls-4" d="M34.85,30.48h4.44L39,32.29a17.68,17.68,0,0,0-2,1.58s-.12.07-.28.19l-.09,0-.16.12.27-.07a1.27,1.27,0,0,1,.28-.08h1.66c-.09.47-.17,1-.26,1.42H35.75l-.33-1.8a14.32,14.32,0,0,1,1.79-1.57,1.21,1.21,0,0,1,.35-.2l.19-.09.19-.1-.15,0-.24.06a.88.88,0,0,1-.37.06H35.1C35,31.42,34.93,31,34.85,30.48Z"/></svg>