<?xml version="1.0" encoding="UTF-8"?>
<svg width="366px" height="147px" viewBox="0 0 366 147" version="1.1" xmlns="http://www.w3.org/2000/svg" xmlns:xlink="http://www.w3.org/1999/xlink">
    <!-- Generator: Sketch 51.3 (57544) - http://www.bohemiancoding.com/sketch -->
    <title>MED SCHOOL ADMISSION SUPPORT</title>
    <desc>Created with Sketch.</desc>
    <defs>
        <polygon id="path-1" points="5.87833626e-06 6.34894587e-05 203.070121 6.34894587e-05 203.070121 256.427025 5.87833626e-06 256.427025"></polygon>
        <linearGradient x1="50%" y1="3.82196003%" x2="59.7015798%" y2="91.3327116%" id="linearGradient-3">
            <stop stop-color="#9F9F9F" offset="0%"></stop>
            <stop stop-color="#666666" offset="100%"></stop>
        </linearGradient>
        <path d="M292.60293,292.450637 C297.112892,289.038076 301.733775,276.71179 286.702927,267.434625 C264.518917,253.746619 278.601043,227.954166 278.601043,227.954166 C278.601043,227.954166 292.94749,206.643356 278.103083,187.598147 C263.258676,168.552937 214.316972,159.129453 216.122373,102.166105 C217.927774,45.2027577 154.306863,21.2369461 115.581605,48.5492393 C72.3511037,79.0357341 71.7894234,147.669287 116.848925,171.505299 C134.463974,180.824943 146.62506,185.176785 189.42368,204.486315 C232.222301,223.795844 213.226652,261.060262 246.346908,285.280954 C275.610922,306.662564 288.088248,295.863199 292.60293,292.450637 Z" id="path-4"></path>
        <filter x="-5.1%" y="-4.2%" width="110.3%" height="108.4%" filterUnits="objectBoundingBox" id="filter-5">
            <feGaussianBlur stdDeviation="8.5" in="SourceAlpha" result="shadowBlurInner1"></feGaussianBlur>
            <feOffset dx="0" dy="5" in="shadowBlurInner1" result="shadowOffsetInner1"></feOffset>
            <feComposite in="shadowOffsetInner1" in2="SourceAlpha" operator="arithmetic" k2="-1" k3="1" result="shadowInnerInner1"></feComposite>
            <feColorMatrix values="0 0 0 0 0.231026786   0 0 0 0 0.231026786   0 0 0 0 0.231026786  0 0 0 1 0" type="matrix" in="shadowInnerInner1"></feColorMatrix>
        </filter>
        <linearGradient x1="26.9012616%" y1="63.034238%" x2="77.867943%" y2="29.6802553%" id="linearGradient-6">
            <stop stop-color="#211C40" offset="0%"></stop>
            <stop stop-color="#272847" offset="90%"></stop>
        </linearGradient>
        <linearGradient x1="28.4809582%" y1="98.5468016%" x2="68.4577623%" y2="-1.68785577%" id="linearGradient-7">
            <stop stop-color="#211C40" offset="0%"></stop>
            <stop stop-color="#272847" offset="90%"></stop>
        </linearGradient>
        <linearGradient x1="49.999267%" y1="99.9687077%" x2="49.999267%" y2="-0.0417580232%" id="linearGradient-8">
            <stop stop-color="#FFFFFF" offset="0%"></stop>
            <stop stop-color="#FCFCFC" offset="31%"></stop>
            <stop stop-color="#F1F2F2" offset="58%"></stop>
            <stop stop-color="#E0E1E2" offset="83%"></stop>
            <stop stop-color="#CFD1D2" offset="100%"></stop>
        </linearGradient>
        <linearGradient x1="50.000692%" y1="99.9996924%" x2="50.000692%" y2="-0.00824310433%" id="linearGradient-9">
            <stop stop-color="#FFFFFF" offset="0%"></stop>
            <stop stop-color="#FCFCFC" offset="31%"></stop>
            <stop stop-color="#F1F2F2" offset="58%"></stop>
            <stop stop-color="#E0E1E2" offset="83%"></stop>
            <stop stop-color="#CFD1D2" offset="100%"></stop>
        </linearGradient>
        <linearGradient x1="50%" y1="100%" x2="50%" y2="0%" id="linearGradient-10">
            <stop stop-color="#FFFFFF" offset="0%"></stop>
            <stop stop-color="#FCFCFC" offset="31%"></stop>
            <stop stop-color="#F1F2F2" offset="58%"></stop>
            <stop stop-color="#E0E1E2" offset="83%"></stop>
            <stop stop-color="#CFD1D2" offset="100%"></stop>
        </linearGradient>
    </defs>
    <g id="Page-1" stroke="none" stroke-width="1" fill="none" fill-rule="evenodd">
        <g id="Form--med--student" transform="translate(-233.000000, -142.000000)">
            <g id="MED-SCHOOL-ADMISSION-SUPPORT" transform="translate(233.000000, 57.000000)">
                <g id="Group-3" transform="translate(176.025945, 161.595531) rotate(-122.000000) translate(-176.025945, -161.595531) translate(74.025945, 33.095531)">
                    <mask id="mask-2" fill="white">
                        <use xlink:href="#path-1"></use>
                    </mask>
                    <g id="Clip-2"></g>
                    <path d="M4.52317348,251.239438 C0.055726091,248.049885 -4.75403394,236.217053 9.57412352,226.832133 C30.7563896,212.957453 16.3941346,188.308281 16.3941346,188.308281 C16.3941346,188.308281 1.90618666,168.021922 15.8074562,149.164557 C29.7087257,130.307359 76.952383,119.8641 73.6868742,64.6655419 C70.4215325,9.4669839 131.527849,-15.4594681 169.835943,10.0001629 C212.59711,38.4193382 214.964716,104.964319 171.870931,129.279086 C155.022898,138.78544 143.336966,143.327985 102.315109,163.190907 C61.2932512,183.053661 80.7174878,218.691466 49.2126904,243.058681 C21.3977826,264.572253 8.99062087,254.42899 4.52317348,251.239438" id="Fill-1" fill="#F6F7FA" mask="url(#mask-2)"></path>
                </g>
                <g id="Shape" fill-rule="nonzero" transform="translate(190.047328, 167.738926) rotate(-47.000000) translate(-190.047328, -167.738926) ">
                    <use fill="url(#linearGradient-3)" xlink:href="#path-4"></use>
                    <use fill="black" fill-opacity="1" filter="url(#filter-5)" xlink:href="#path-4"></use>
                </g>
                <g id="Interests-Icons-04" transform="translate(193.534878, 156.501218) rotate(2.000000) translate(-193.534878, -156.501218) translate(133.034878, 90.001218)" fill-rule="nonzero">
                    <path d="M102.608,86.1334426 C94.314,61.4422951 70.18,58.8062295 48.906,56.4996721 C40.5352699,55.8777267 32.249803,54.4056415 24.178,52.1062295 C18.084,50.0852459 14.102,46.9659016 12.342,42.8140984 C9.328,35.6967213 13.222,27.3052459 13.31,27.107541 C13.4319174,26.7604964 13.5789726,26.4227734 13.75,26.0970492 C13.1298983,26.1761326 12.5051108,26.2128301 11.88,26.2068852 C9.11305182,25.4290935 6.75060353,23.6205824 5.28,21.1544262 L5.104,20.8688525 C4.554,21.9013115 4.202,22.6042623 4.136,22.7580328 C3.872,23.2632787 -1.914,35.3452459 2.904,46.9219672 C5.852,53.9514754 11.924,59.0259016 20.944,62.0134426 C29.7127765,64.5085663 38.713185,66.1057637 47.806,66.7803279 C57.75,67.8567213 68.068,68.9770492 76.252,72.2721311 C84.2112235,75.0911524 90.3849614,81.4752707 92.928,89.5163934 C97.79,103.97082 88.418,117.173115 80.828,124.971475 L94.028,125.322951 C103.906,112.296393 106.876,98.7865574 102.608,86.1334426 Z" id="Shape" fill="url(#linearGradient-6)"></path>
                    <polygon id="Shape" fill="#D5D6DB" points="95.348 104.212459 95.106 105.991803 93.83 106.519016 55.154 122.796721 53.262 123.587541 53.482 121.78623"></polygon>
                    <polygon id="Shape" fill="#D5D6DB" points="53.262 123.587541 51.634 122.313443 51.854 120.534098 53.482 121.78623"></polygon>
                    <polygon id="Shape" fill="#D5D6DB" points="53.482 121.78623 51.854 120.534098 93.698 102.938361 95.348 104.212459"></polygon>
                    <polygon id="Shape" fill="#D5D6DB" points="95.062 91.8009836 94.82 93.5803279 93.544 94.107541 50.6 112.16459 48.708 112.95541 48.928 111.176066"></polygon>
                    <polygon id="Shape" fill="#D5D6DB" points="48.708 112.95541 47.08 111.681311 47.3 109.901967 48.928 111.176066"></polygon>
                    <polygon id="Shape" fill="#D5D6DB" points="48.928 111.176066 47.3 109.901967 93.412 90.5488525 95.062 91.8009836"></polygon>
                    <polygon id="Shape" fill="#D5D6DB" points="90.266 81.3006557 90.024 83.08 88.748 83.6072131 45.804 101.664262 43.912 102.455082 44.154 100.675738"></polygon>
                    <polygon id="Shape" fill="#D5D6DB" points="43.912 102.455082 42.284 101.202951 42.504 99.4016393 44.154 100.675738"></polygon>
                    <polygon id="Shape" fill="#D5D6DB" points="44.154 100.675738 42.504 99.4016393 88.616 80.0485246 90.266 81.3006557"></polygon>
                    <polygon id="Shape" fill="#D5D6DB" points="81.334 72.667541 81.114 74.4468852 79.838 74.9740984 40.502 91.537377 38.61 92.3062295 38.83 90.5268852"></polygon>
                    <polygon id="Shape" fill="#D5D6DB" points="38.61 92.3062295 36.982 91.0540984 37.202 89.2747541 38.83 90.5268852"></polygon>
                    <polygon id="Shape" fill="#D5D6DB" points="38.83 90.5268852 37.202 89.2747541 79.706 71.3934426 81.334 72.667541"></polygon>
                    <polygon id="Shape" fill="#D5D6DB" points="66.484 67.417377 66.242 69.1967213 64.966 69.7459016 42.592 78.9501639 40.7 79.7190164 40.942 77.9396721"></polygon>
                    <polygon id="Shape" fill="#D5D6DB" points="40.7 79.7190164 39.072 78.4668852 39.292 76.687541 40.942 77.9396721"></polygon>
                    <polygon id="Shape" fill="#D5D6DB" points="40.942 77.9396721 39.292 76.687541 64.834 66.1652459 66.484 67.417377"></polygon>
                    <polygon id="Shape" fill="#D5D6DB" points="37.312 57.0708197 39.05 57.5540984 40.04 56.587541 53.922 43.1655738 55.374 41.7377049 53.636 41.232459"></polygon>
                    <polygon id="Shape" fill="#D5D6DB" points="55.374 41.7377049 54.846 39.7386885 53.13 39.2554098 53.636 41.232459"></polygon>
                    <polygon id="Shape" fill="#D5D6DB" points="53.636 41.232459 53.13 39.2554098 36.784 55.0718033 37.312 57.0708197"></polygon>
                    <polygon id="Shape" fill="#D5D6DB" points="24.596 54.0613115 26.334 54.5445902 27.324 53.5780328 53.196 28.557377 54.648 27.1295082 52.91 26.6462295"></polygon>
                    <polygon id="Shape" fill="#D5D6DB" points="54.648 27.1295082 54.12 25.1304918 52.382 24.6472131 52.91 26.6462295"></polygon>
                    <polygon id="Shape" fill="#D5D6DB" points="52.91 26.6462295 52.382 24.6472131 24.068 52.0622951 24.596 54.0613115"></polygon>
                    <polygon id="Shape" fill="#D5D6DB" points="14.476 47.9104918 16.192 48.3937705 17.182 47.4272131 45.386 20.1439344 46.86 18.7160656 45.122 18.2327869"></polygon>
                    <polygon id="Shape" fill="#D5D6DB" points="46.86 18.7160656 46.332 16.7170492 44.594 16.2337705 45.122 18.2327869"></polygon>
                    <polygon id="Shape" fill="#D5D6DB" points="45.122 18.2327869 44.594 16.2337705 13.948 45.9114754 14.476 47.9104918"></polygon>
                    <polygon id="Shape" fill="#D5D6DB" points="9.46 35.2793443 11.198 35.7845902 12.188 34.8180328 34.056 13.6416393 35.53 12.2137705 33.792 11.7304918"></polygon>
                    <polygon id="Shape" fill="#D5D6DB" points="35.53 12.2137705 35.002 10.2147541 33.264 9.73147541 33.792 11.7304918"></polygon>
                    <polygon id="Shape" fill="#D5D6DB" points="33.792 11.7304918 33.264 9.73147541 8.954 33.3022951 9.46 35.2793443"></polygon>
                    <path d="M120.604,119.084262 C119.597985,116.448922 116.646531,115.122746 114.004,116.118689 C106.340434,118.855625 98.4154735,120.798947 90.354,121.918033 C69.85,124.641967 59.334,119.721311 54.098,115.064262 C47.7103126,109.606306 44.2501925,101.47698 44.748,93.0970492 C44.902,84.3101639 47.916,74.3809836 50.798,64.8032787 C53.7488615,56.1986019 55.8056808,47.3137234 56.936,38.2888525 C57.706,28.7990164 55.396,21.2422951 50.094,15.772459 C41.426,6.8757377 27.478,7.2052459 24.024,7.38098361 L23.32,7.38098361 C21.626,11.7744262 18.7,17.0685246 18.744,17.0685246 C19.756,17.0685246 26.07,17.5078689 27.984,17.5957377 C27.984,17.5957377 37.378,17.2662295 42.768,22.8019672 C45.936,26.0531148 47.168,30.9518033 46.75,37.3662295 C45.6721132,45.6731481 43.7556974,53.8499363 41.03,61.7718033 C34.826,82.2232787 27.83,105.420656 47.322,122.708852 C57.266,131.495738 72.27,134.680984 91.894,132.044918 C100.676615,130.838812 109.310182,128.725967 117.656,125.740328 C118.003676,125.599899 118.335518,125.42318 118.646,125.213115 C120.670678,123.891547 121.488259,121.332388 120.604,119.084262 Z" id="Shape" fill="#D61C23"></path>
                    <path d="M3.85,23.3511475 C3.85,23.3511475 4.862,20.8688525 6.402,17.6616393 C9.04487672,11.9532069 12.6044753,6.71451945 16.94,2.15278689 C18.7487979,0.565674191 21.4366197,0.500892421 23.32,1.99901639 C24.3875729,2.82732215 25.0805996,4.04624341 25.2457511,5.38609938 C25.4109025,6.72595534 25.0345645,8.07629458 24.2,9.13836066 C19.0434121,15.4659742 14.9224196,22.5687258 11.99,30.1829508" id="Shape" fill="url(#linearGradient-7)"></path>
                </g>
                <g id="Ucat-blue" transform="translate(0.000000, 130.000000)" fill-rule="nonzero">
                    <path d="M86.7233641,0.439726027 L67.4791244,0.563013699 L67.4390323,0.398630137 L63.9109217,4.17945205 L62.3874194,0.410958904 L55.6920276,0.410958904 L49.7583871,6.53424658 L45.7050691,16.3027397 L44.5023041,14.9465753 C43.8134577,15.760232 42.9669346,16.4180169 42.0165899,16.8780822 C41.1823383,17.3109467 40.2650816,17.5495101 39.3304147,17.5767123 C38.1276498,17.8232877 36.6041475,16.7958904 36.6041475,16.7958904 L44.5023041,8.63013699 L48.1506912,4.02739726 C46.8665243,2.72733412 45.3391398,1.70688328 43.6603687,1.02739726 C42.2544469,0.459685451 40.7610221,0.153522787 39.2502304,0.123287671 C37.0050691,0.123287671 35.0004608,0.452054795 33.1963134,1.47945205 C32.251782,2.00526763 31.3873377,2.66983218 30.6304147,3.45205479 L30.4299539,3.65753425 L30.2294931,3.8630137 L30.0290323,4.06849315 L29.8285714,4.2739726 L29.6281106,4.47945205 L29.4276498,4.68493151 L29.2271889,4.89041096 L29.0267281,5.09589041 L28.8262673,5.30136986 L28.6258065,5.50684932 L28.4253456,5.71232877 L28.2248848,5.91780822 L28.024424,6.12328767 L27.8239631,6.32876712 L27.6235023,6.53424658 L27.4230415,6.73972603 L27.2225806,6.94520548 L27.0221198,7.15068493 L26.821659,7.35616438 L26.785576,0.410958904 L20.2906452,0.410958904 L14.2768203,6.53424658 L14.2768203,17.0136986 C14.1966359,16.9315068 13.9961751,16.8493151 13.9159908,16.7671233 C13.1943318,15.9863014 12.9136866,14.9178082 12.9136866,13.6438356 L12.9537788,0.410958904 L6.41474654,0.410958904 L0.400921659,6.52191781 L0.400921659,19.7958904 C0.358797249,21.6096741 0.802524823,23.4005927 1.68387097,24.9739726 C2.53320762,26.4499556 3.78831943,27.6364259 5.2921659,28.3849315 C6.94422377,29.1969797 8.75625967,29.6089544 10.588341,29.5890411 L31.6728111,29.5890411 C32.4500741,29.667113 33.2329213,29.667113 34.0101843,29.5890411 L74.2547005,29.5890411 L80.3487097,23.0136986 L80.3487097,11.9178082 L86.7634562,5.75342466 L86.7233641,0.439726027 Z" id="Shape" fill="url(#linearGradient-8)"></path>
                    <path d="M14.0322581,16.7136986 C14.7123373,17.4931585 15.6995069,17.9160353 16.7184332,17.8643836 C17.6821048,17.868433 18.6014126,17.4496227 19.2442396,16.7136986 C19.9622817,15.8622696 20.3225972,14.7542612 20.2465438,13.6315068 L20.2465438,0.410958904 L26.7815668,0.410958904 L26.7815668,13.6438356 C26.813476,15.4512637 26.3851013,17.2359895 25.5387097,18.8219178 C24.7200449,20.2934724 23.4915941,21.4811323 22.0105991,22.2328767 C20.3518141,23.0575298 18.5254937,23.4660268 16.6823502,23.4246575 C14.8121288,23.4664624 12.9583895,23.0582824 11.2699078,22.2328767 C9.76606137,21.4843711 8.51094956,20.2979008 7.6616129,18.8219178 C6.80648546,17.2348577 6.37630258,15.4441078 6.41474654,13.6315068 L6.41474654,0.410958904 L12.9497696,0.410958904 L12.9497696,13.6438356 C12.9066683,14.7725987 13.2950542,15.8740345 14.0322581,16.7136986 Z" id="Shape" fill="#333557"></path>
                    <path d="M42.0606912,6.39863014 C41.2229054,5.88528193 40.2700768,5.6021854 39.2943318,5.57671233 C38.3437615,5.56249799 37.4099398,5.83394285 36.6081567,6.35753425 C35.811444,6.89218438 35.1624913,7.62814977 34.7238249,8.49452055 C34.2391981,9.44375123 34.004289,10.506061 34.0422581,11.5767123 C34.0243314,12.6453425 34.2581319,13.7026388 34.7238249,14.6589041 C35.1624913,15.5252749 35.811444,16.2612403 36.6081567,16.7958904 C37.4019442,17.3375041 38.3413371,17.6105684 39.2943318,17.5767123 C40.2289987,17.5495101 41.1462553,17.3109467 41.9805069,16.8780822 C42.9385812,16.3915957 43.8068168,15.7380224 44.5464055,14.9465753 L48.3150691,19.0561644 C47.095013,20.410267 45.6227436,21.500193 43.9851152,22.2616438 C40.4940319,23.945945 36.4288266,23.8238358 33.0399539,21.9328767 C31.2874364,20.953218 29.8406533,19.4858847 28.8663594,17.7 C27.8677244,15.8510014 27.3435083,13.7723436 27.3428571,11.6589041 C27.3165372,9.58492585 27.8433247,7.54296466 28.8663594,5.75342466 C29.8469018,3.94546522 31.3249101,2.47333206 33.116129,1.52054795 C36.5371988,-0.335023515 40.5979596,-0.486384376 44.1414747,1.10958904 C45.6990323,1.78084032 47.1048071,2.77412957 48.2709677,4.02739726 L44.5023041,8.63013699 C43.8595898,7.71023531 43.0256566,6.94806392 42.0606912,6.39863014 Z" id="Shape" fill="#333557"></path>
                    <path d="M64.5483871,23.0136986 L63.2654378,19.3972603 L54.364977,19.3972603 L53.0419355,23.0136986 L46.3064516,23.0136986 L55.6880184,0.410958904 L62.4235023,0.410958904 L71.4843318,23.0136986 L64.5483871,23.0136986 Z M56.1691244,14.5068493 L61.5013825,14.5068493 L58.8552995,7.15068493 L56.1691244,14.5068493 Z" id="Shape" fill="#333557"></path>
                    <polygon id="Shape" fill="#333557" points="67.4390323 0.410958904 86.8035484 0.410958904 86.8035484 5.75342466 80.3888018 5.75342466 80.3888018 23.0136986 73.8136866 23.0136986 73.8136866 5.75342466 67.4390323 5.75342466 67.4390323 0.410958904"></polygon>
                </g>
                <g id="GAMSAT-blue" transform="translate(280.000000, 130.000000)" fill-rule="nonzero">
                    <path d="M69.7014337,0.2775 L60.0921147,0.2775 L58.1100358,2.2775 L56.8806452,2.2775 L57.0562724,0.2775 L53.9426523,0.2775 L53.9175627,0.3275 L53.8924731,0.3275 L53.8673835,0.3775 L53.8422939,0.3775 L53.8172043,0.4275 L53.7921147,0.4275 L53.7670251,0.4775 L53.7419355,0.4775 L53.7419355,0.5275 L53.7168459,0.5275 L53.6917563,0.5775 L53.6666667,0.5775 L53.6415771,0.6275 L53.6164875,0.6275 L53.5913978,0.6775 L53.5663082,0.6775 L53.5412186,0.7275 L53.516129,0.7275 L53.4910394,0.7775 L53.4659498,0.7775 L53.4408602,0.8275 L53.4157706,0.8275 L53.390681,0.8775 L53.3655914,0.8775 L53.3405018,0.9275 L53.3154122,0.9275 L53.2903226,0.9775 L53.265233,0.9775 L53.265233,1.0275 L53.2401434,1.0275 L53.2150538,1.0775 L53.1648746,1.0775 L53.1397849,1.1275 L53.1146953,1.1275 L53.0896057,1.1775 L53.0645161,1.1775 L53.0394265,1.2275 L53.0143369,1.2275 L52.9892473,1.2775 L52.9641577,1.2775 L52.9390681,1.3275 L52.9139785,1.3275 L52.8888889,1.3775 L52.8637993,1.3775 L52.8387097,1.4275 L52.8136201,1.4275 L52.7885305,1.4775 L52.7634409,1.4775 L52.7383513,1.5275 L52.7132616,1.5275 L52.688172,1.5775 L52.6630824,1.5775 L52.6379928,1.6275 L52.6129032,1.6275 L52.5878136,1.6775 L52.562724,1.6775 L52.5376344,1.7275 L52.5125448,1.7275 L52.4874552,1.7775 L52.4623656,1.7775 L52.437276,1.8275 L52.4121864,1.8275 L52.3870968,1.8775 L52.3620072,1.8775 L52.3369176,1.9275 L52.311828,1.9275 L52.2867384,1.9775 L52.2616487,1.9775 L52.2365591,2.0275 L52.2114695,2.0275 L52.1863799,2.0775 L52.1612903,2.0775 L52.1362007,2.1275 L52.1111111,2.1275 L52.0860215,2.1775 L52.0609319,2.1775 L52.0358423,2.2275 L52.0107527,2.2275 L51.9856631,2.2775 L51.9605735,2.2775 L51.9354839,2.3275 L51.9103943,2.3275 L51.9103943,2.3775 L51.8853047,2.3775 L51.8602151,2.4275 L51.8351254,2.4275 L51.8100358,2.4775 L51.7849462,2.4775 L51.7598566,2.5275 L51.734767,2.5275 L51.7096774,2.5775 L51.6845878,2.5775 L51.6594982,2.6275 L51.6344086,2.6275 L51.609319,2.6775 L51.5842294,2.6775 L51.5591398,2.7275 L51.5340502,2.7275 L51.5089606,2.7775 L51.483871,2.7775 L51.4587814,2.8275 L51.4336918,2.8275 L49.5544803,7.25 C49.4765017,6.84906952 49.3045682,6.4721667 49.0526882,6.15 C48.7080232,5.70760306 48.2601687,5.35574813 47.7480287,5.125 C47.6225806,5.075 47.472043,5 47.3215054,4.95 L47.346595,4.925 L48.425448,3.8 L48.4505376,3.6 L49.6046595,1.325 C48.9523297,0.925 48.2247312,0.85 47.472043,0.65 C46.7054822,0.430137997 45.9112938,0.320695694 45.1136201,0.325 C44.3595631,0.296689825 43.6077987,0.424373825 42.9057348,0.7 C42.4039427,0.95 41.8268817,0.825 41.4756272,1.25 L41.3,1.35 L41.2498208,1.4 L41.1996416,1.45 L41.1469534,1.5 L41.1218638,1.55 L41.0716846,1.6 L40.9713262,1.7 L40.921147,1.75 L40.8709677,1.8 L40.5698925,2.075 L40.3691756,2.275 L40.3189964,2.325 L40.2688172,2.375 L40.1684588,2.475 L40.1182796,2.525 L40.0681004,2.575 L40.0179211,2.625 L39.9677419,2.675 L39.9175627,2.725 L39.8673835,2.775 L39.8172043,2.825 L39.7670251,2.875 L39.7168459,2.925 L39.6164875,3.025 L39.5663082,3.075 L39.516129,3.125 L39.1648746,3.475 L39.1146953,3.525 L39.1146953,0.275 L35.6523297,0.275 L35.6272401,0.325 L35.6021505,0.325 L35.6021505,0.375 L35.5770609,0.375 L35.5519713,0.425 L35.5268817,0.425 L35.5017921,0.475 L35.4767025,0.475 L35.4516129,0.525 L35.4265233,0.525 L35.4014337,0.575 L35.3763441,0.575 L35.3512545,0.625 L35.3261649,0.675 L35.3010753,0.675 L35.2759857,0.725 L35.2508961,0.725 L35.2258065,0.775 L35.2007168,0.775 L35.1756272,0.825 L35.1505376,0.825 L35.125448,0.875 L35.1003584,0.875 L35.0752688,0.925 L35.0501792,0.925 L35.0250896,0.975 L35,0.975 L34.9749104,1.025 L34.9498208,1.025 L34.9247312,1.075 L34.8996416,1.075 L34.874552,1.125 L34.8494624,1.125 L34.8494624,1.175 L34.8243728,1.175 L34.7992832,1.225 L34.7741935,1.225 L34.7491039,1.275 L34.7240143,1.275 L34.6989247,1.325 L34.6738351,1.325 L34.6487455,1.375 L34.5985663,1.375 L34.5734767,1.425 L34.5483871,1.425 L34.5232975,1.475 L34.4982079,1.475 L34.4731183,1.525 L34.4480287,1.525 L34.4229391,1.575 L34.3978495,1.575 L34.3727599,1.625 L34.3476703,1.625 L34.3225806,1.675 L34.297491,1.675 L34.2724014,1.725 L34.2473118,1.725 L34.2222222,1.775 L34.1971326,1.775 L34.172043,1.825 L34.1469534,1.825 L34.1218638,1.875 L34.0967742,1.875 L34.0716846,1.925 L34.046595,1.925 L34.0215054,1.975 L33.9964158,1.975 L33.9713262,2.025 L33.9462366,2.025 L33.921147,2.075 L33.8960573,2.075 L33.8709677,2.125 L33.8458781,2.125 L33.8207885,2.175 L33.7956989,2.175 L33.7706093,2.225 L33.7455197,2.225 L33.7204301,2.275 L33.6953405,2.275 L33.6702509,2.325 L33.6451613,2.325 L33.6200717,2.375 L33.5949821,2.375 L33.5698925,2.425 L33.5448029,2.425 L33.5197133,2.475 L33.4946237,2.475 L33.4695341,2.525 L33.4444444,2.525 L33.4193548,2.575 L33.3942652,2.575 L33.3691756,2.625 L33.344086,2.625 L33.3189964,2.675 L33.2939068,2.675 L33.2688172,2.725 L33.2437276,2.725 L33.218638,2.775 L33.1935484,2.775 L33.1684588,2.825 L33.1433692,2.825 L32.0645161,5 L29.8064516,0.275 L26.3189964,0.275 L26.3189964,0.325 L26.2688172,0.325 L26.2688172,0.375 L26.218638,0.375 L26.218638,0.425 L26.1684588,0.425 L26.1684588,0.475 L26.1182796,0.475 L26.1182796,0.525 L26.0681004,0.525 L26.0681004,0.575 L26.0179211,0.575 L26.0179211,0.625 L25.9677419,0.625 L25.9677419,0.675 L25.9175627,0.675 L25.9175627,0.725 L25.8673835,0.725 L25.8673835,0.775 L25.8172043,0.775 L25.8172043,0.825 L25.7670251,0.825 L25.7670251,0.875 L25.7168459,0.875 L25.7168459,0.925 L25.6666667,0.925 L25.6666667,0.975 L25.6164875,0.975 L25.6164875,1.025 L25.5663082,1.025 L25.5663082,1.075 L25.516129,1.075 L25.516129,1.125 L25.4659498,1.125 L25.4659498,1.175 L25.4157706,1.175 L25.4157706,1.225 L25.3655914,1.225 L25.3655914,1.275 L25.3154122,1.275 L25.3154122,1.325 L25.265233,1.325 L25.265233,1.375 L25.2150538,1.375 L25.2150538,1.425 L25.1648746,1.425 L25.1648746,1.475 L25.1146953,1.475 L25.1146953,1.525 L25.0645161,1.525 L25.0645161,1.575 L25.0143369,1.575 L25.0143369,1.625 L24.9641577,1.625 L24.9641577,1.675 L24.9139785,1.675 L24.9139785,1.725 L24.8637993,1.725 L24.8637993,1.775 L24.8136201,1.775 L24.8136201,1.825 L24.7634409,1.825 L24.7634409,1.875 L24.7132616,1.875 L24.7132616,1.925 L24.6630824,1.925 L24.6630824,1.975 L24.6129032,1.975 L24.6129032,2.025 L24.562724,2.025 L24.562724,2.075 L24.5125448,2.075 L24.5125448,2.125 L24.4623656,2.125 L24.4623656,2.175 L24.4121864,2.175 L24.4121864,2.225 L24.3620072,2.225 L24.3620072,2.275 L24.2616487,2.275 L24.2616487,2.325 L24.2114695,2.325 L24.2114695,2.375 L24.1612903,2.375 L24.1612903,2.425 L24.1111111,2.425 L24.1111111,2.475 L24.0609319,2.475 L24.0609319,2.525 L24.0107527,2.525 L24.0107527,2.575 L23.9605735,2.575 L23.9605735,2.625 L23.9103943,2.625 L23.9103943,2.675 L23.8602151,2.675 L23.8602151,2.725 L23.8100358,2.725 L23.8100358,2.775 L23.8100358,5.95 L21.4516129,0.275 L18.1172043,0.275 L18.0921147,0.325 L18.0645161,0.325 L18.0394265,0.375 L18.0143369,0.375 L17.9892473,0.425 L17.9641577,0.425 L17.9390681,0.475 L17.9139785,0.475 L17.8888889,0.525 L17.8637993,0.525 L17.8387097,0.575 L17.8136201,0.575 L17.7885305,0.625 L17.7634409,0.625 L17.7383513,0.675 L17.7132616,0.675 L17.688172,0.725 L17.6630824,0.725 L17.6379928,0.775 L17.6129032,0.775 L17.5878136,0.825 L17.562724,0.825 L17.5376344,0.875 L17.5125448,0.875 L17.4874552,0.925 L17.4623656,0.925 L17.437276,0.975 L17.4121864,0.975 L17.4121864,1.025 L17.3870968,1.025 L17.3620072,1.075 L17.3369176,1.075 L17.311828,1.125 L17.2867384,1.125 L17.2616487,1.175 L17.2365591,1.175 L17.2114695,1.225 L17.1863799,1.225 L17.1612903,1.275 L17.1362007,1.275 L17.1111111,1.325 L17.0860215,1.325 L17.0609319,1.375 L17.0358423,1.375 L17.0107527,1.425 L16.9856631,1.425 L16.9605735,1.475 L16.9354839,1.475 L16.9103943,1.525 L16.8853047,1.525 L16.8602151,1.575 L16.8351254,1.575 L16.8100358,1.625 L16.7849462,1.625 L16.7598566,1.675 L16.734767,1.675 L16.7096774,1.725 L16.6845878,1.725 L16.6594982,1.775 L16.6344086,1.775 L16.609319,1.825 L16.5842294,1.825 L16.5591398,1.875 L16.5340502,1.875 L16.5089606,1.925 L16.483871,1.925 L16.4587814,1.975 L16.4336918,1.975 L16.4086022,2.025 L16.3835125,2.025 L16.3584229,2.075 L16.3333333,2.075 L16.3082437,2.125 L16.2831541,2.125 L16.2580645,2.175 L16.2329749,2.175 L16.2078853,2.225 L16.1827957,2.225 L16.1577061,2.275 L16.1326165,2.275 L16.1075269,2.325 L16.0824373,2.325 L16.0573477,2.375 L16.0322581,2.375 L16.0071685,2.425 L15.9820789,2.425 L15.9569892,2.475 L15.9318996,2.475 L15.90681,2.525 L15.8817204,2.525 L15.8566308,2.575 L15.8315412,2.575 L15.8064516,2.625 L15.781362,2.625 L15.781362,2.675 L15.7562724,2.675 L15.7311828,2.725 L15.7060932,2.725 L15.6810036,2.775 L15.655914,2.775 L15.6308244,2.825 L15.6057348,2.825 L13.3476703,8.125 L13.3476703,5.5525 L10.5376344,5.5525 L10.5376344,5.0775 L11.6666667,3.9775 L13.4480287,1.7025 C12.8346094,1.19665233 12.1387653,0.799239267 11.390681,0.5275 C10.5881345,0.229068341 9.73833072,0.0766499638 8.88172043,0.0775 C7.7920601,0.0553448678 6.71408147,0.304542725 5.74551971,0.8025 C5.18806045,1.09720222 4.68016012,1.47676702 4.24014337,1.9275 L4.18996416,1.9775 L4.13978495,2.0275 L4.08960573,2.0775 L4.03942652,2.1275 L3.98924731,2.1775 L3.9390681,2.2275 L3.88888889,2.2775 L3.83870968,2.3275 L3.73835125,2.4275 L3.68817204,2.4775 L3.63799283,2.5275 L3.58781362,2.5775 L3.4874552,2.6775 L3.43727599,2.7275 L3.38709677,2.7775 L3.33691756,2.8275 L3.28673835,2.8775 L3.23655914,2.9275 L3.13620072,3.0275 L3.08602151,3.0775 L3.03584229,3.1275 L2.98566308,3.1775 L2.88530466,3.2775 L2.83512545,3.3275 L2.78494624,3.3775 L2.73476703,3.4275 L2.6344086,3.5275 L2.58422939,3.5775 L2.53405018,3.6275 L2.48387097,3.6775 L2.38351254,3.7775 L2.33333333,3.8275 L2.28315412,3.8775 L2.23297491,3.9275 L2.1827957,3.9775 L2.13261649,4.0275 L2.03225806,4.1275 L1.98207885,4.1775 L1.88172043,4.2775 L1.83154122,4.3275 L1.78136201,4.3775 L1.7311828,4.4275 C1.44776639,4.71089579 1.20312162,5.0303199 1.00358423,5.3775 C0.495627113,6.24094717 0.235272695,7.22676058 0.250896057,8.2275 C0.231665205,9.25565484 0.501046702,10.2687217 1.02867384,11.1525 C1.53345593,12.005789 2.26206969,12.7058716 3.13620072,13.1775 C4.06139857,13.6735458 5.09633238,13.9313552 6.14695341,13.9275 L63.8530466,13.9275 L66.562724,11.2025 L66.562724,11.1775 L66.5125448,11.1775 L66.5376344,5.3775 L67.3154122,5.3775 L67.3154122,5.3275 L67.3655914,5.3275 L67.3655914,5.2775 L67.4157706,5.2775 L67.4157706,5.2275 L67.4659498,5.2275 L67.4659498,5.1775 L67.516129,5.1775 L67.516129,5.1275 L67.5663082,5.1275 L67.5663082,5.0775 L67.6164875,5.0775 L67.6164875,5.0275 L67.6666667,5.0275 L67.6666667,4.9775 L67.7168459,4.9775 L67.7168459,4.9275 L67.7670251,4.9275 L67.7670251,4.8775 L67.8172043,4.8775 L67.8172043,4.8275 L67.8673835,4.8275 L67.8673835,4.7775 L67.9175627,4.7775 L67.9175627,4.7275 L67.9677419,4.7275 L67.9677419,4.6775 L68.0179211,4.6775 L68.0179211,4.6275 L68.0681004,4.6275 L68.0681004,4.5775 L68.1182796,4.5775 L68.1182796,4.5275 L68.1684588,4.5275 L68.1684588,4.4775 L68.218638,4.4775 L68.218638,4.4275 L68.2688172,4.4275 L68.2688172,4.3775 L68.3189964,4.3775 L68.3189964,4.3275 L68.3691756,4.3275 L68.3691756,4.2775 L68.4193548,4.2775 L68.4193548,4.2275 L68.4695341,4.2275 L68.4695341,4.1775 L68.5197133,4.1775 L68.5197133,4.1275 L68.5698925,4.1275 L68.5698925,4.0775 L68.6200717,4.0775 L68.6200717,4.0275 L68.6702509,4.0275 L68.6702509,3.9775 L68.7204301,3.9775 L68.7204301,3.9275 L68.7706093,3.9275 L68.7706093,3.8775 L68.8207885,3.8775 L68.8207885,3.8275 L68.8709677,3.8275 L68.8709677,3.7775 L68.921147,3.7775 L68.921147,3.7275 L68.9713262,3.7275 L68.9713262,3.6775 L69.0215054,3.6775 L69.0215054,3.6275 L69.0716846,3.6275 L69.0716846,3.5775 L69.1218638,3.5775 L69.1218638,3.5275 L69.172043,3.5275 L69.172043,3.4775 L69.2222222,3.4775 L69.2222222,3.4275 L69.2724014,3.4275 L69.2724014,3.3775 L69.3225806,3.3775 L69.3225806,3.3275 L69.3727599,3.3275 L69.3727599,3.2775 L69.4229391,3.2775 L69.4229391,3.2275 L69.4731183,3.2275 L69.4731183,3.1775 L69.5232975,3.1775 L69.5232975,3.1275 L69.5734767,3.1275 L69.5734767,3.0775 L69.6236559,3.0775 L69.6236559,3.0275 L69.6738351,3.0275 L69.6738351,2.9775 L69.7240143,2.9775 L69.7240143,2.9275 L69.7741935,2.9275 L69.7741935,2.8775 L69.7014337,0.2775 Z" id="Shape" fill="url(#linearGradient-9)"></path>
                    <polygon id="Shape" fill="#CD4C54" points="47.7229391 11.1525 47.7731183 11.1025 47.8232975 11.0525 47.8734767 11.0025 47.9236559 10.9525 47.9487455 10.9275"></polygon>
                    <path d="M10.5376344,5.5525 L13.3476703,5.5525 L13.3476703,10 C12.6681352,10.4512598 11.9236558,10.7968807 11.1397849,11.025 C10.3365624,11.2813563 9.49928741,11.4161902 8.65591398,11.425 C7.60529295,11.4288552 6.57035914,11.1710458 5.64516129,10.675 C4.77103027,10.2033716 4.04241651,9.50328899 3.53763441,8.65 C2.99934469,7.76960647 2.72107683,6.75582322 2.73476703,5.725 C2.70355731,3.64967284 3.86236318,1.73816483 5.72043011,0.8 C6.689968,0.302502884 7.76884826,0.0541552908 8.85913978,0.0775 C9.71575008,0.0766499638 10.5655539,0.229068341 11.3681004,0.5275 C12.1461903,0.805573462 12.8683437,1.21954032 13.5007168,1.75 L11.644086,3.975 C11.2648453,3.59665305 10.8124568,3.29897289 10.3143369,3.1 C9.84749149,2.8947062 9.34425333,2.78421922 8.83405018,2.775 C8.3360544,2.76494424 7.84652735,2.9043096 7.42903226,3.175 C6.99762529,3.42959905 6.64914752,3.80287475 6.42544803,4.25 C6.17409889,4.70904054 6.05268664,5.22752043 6.07419355,5.75 C6.07068675,6.28954251 6.19990182,6.82172401 6.45053763,7.3 C6.67423712,7.74712525 7.0227149,8.12040095 7.45412186,8.375 C7.88710681,8.63160848 8.38047606,8.76960349 8.88422939,8.775 C9.46525262,8.74410028 10.0315654,8.58165308 10.5401434,8.3 L10.5376344,5.5525 Z" id="Shape" fill="#282847"></path>
                    <path d="M22.5078853,11.2025 L21.8555556,9.4525 L17.4397849,9.4525 L16.7874552,11.2025 L13.425448,11.2025 L18.1172043,0.2775 L21.4792115,0.2775 L25.9953405,11.2025 L22.5078853,11.2025 Z M18.3430108,7.1025 L21.002509,7.1025 L19.6978495,3.5275 L18.3430108,7.1025 Z" id="Shape" fill="#282847"></path>
                    <polygon id="Shape" fill="#282847" points="26.3215054 0.2775 29.8089606 0.2775 32.7444444 6.3525 35.6799283 0.2775 39.1673835 0.2775 39.1673835 11.2025 36.3071685 11.2025 36.3071685 4.7025 33.7982079 10.1025 31.690681 10.1025 29.1817204 4.7025 29.1817204 11.2025 26.3215054 11.2025"></polygon>
                    <path d="M46.518638,2.9275 C45.9631336,2.72261061 45.3791725,2.60454892 44.7874552,2.5775 C44.5573972,2.57000117 44.3303075,2.63092234 44.1351254,2.7525 C43.977226,2.85923159 43.8831266,3.03738187 43.8842294,3.2275 C43.8886786,3.52877988 44.0778275,3.79661047 44.3609319,3.9025 C44.8359038,4.12541019 45.3317169,4.30125577 45.8412186,4.4275 C46.4891085,4.60657772 47.1258201,4.82362217 47.7480287,5.0775 C48.2601687,5.30824813 48.7080232,5.66010306 49.0526882,6.1025 C49.4434274,6.61913192 49.6388723,7.25648538 49.6046595,7.9025 C49.6254112,8.5931787 49.4134209,9.27088529 49.002509,9.8275 C48.5870105,10.3707714 48.0196377,10.7795604 47.3716846,11.0025 C46.6411921,11.272389 45.8676023,11.4079191 45.0885305,11.4025 C44.1243585,11.3930555 43.1676584,11.2327689 42.253405,10.9275 C41.3639806,10.6404022 40.5318366,10.2004333 39.7946237,9.6275 L41.0240143,7.1525 C41.6273396,7.66569361 42.3147888,8.07161599 43.0562724,8.3525 C43.7021424,8.65303986 44.4014098,8.82298376 45.1136201,8.8525 C45.4039805,8.8759205 45.6942145,8.80581203 45.9415771,8.6525 C46.1345504,8.52522796 46.248282,8.30802092 46.2426523,8.0775 C46.2324714,7.77210634 46.0469952,7.49974918 45.7659498,7.3775 C45.2831035,7.15879281 44.7785452,6.9912074 44.2605735,6.8775 C43.6098051,6.71826987 42.9723154,6.50931824 42.3537634,6.2525 C41.8481004,6.02255669 41.401856,5.68051771 41.0491039,5.2525 C40.6660454,4.74152988 40.4711407,4.11476548 40.4971326,3.4775 C40.4783464,2.81794995 40.6717595,2.16970208 41.0491039,1.6275 C41.444064,1.07935173 41.994536,0.661442367 42.6297491,0.4275 C43.3869052,0.125533922 44.1979984,-0.0190907164 45.0132616,0.0025 C45.8450594,0.00661301272 46.6723614,0.124376921 47.472043,0.3525 C48.223924,0.556853447 48.94222,0.868406807 49.6046595,1.2775 L48.4003584,3.7775 C47.7996457,3.43914535 47.1699252,3.15469163 46.518638,2.9275 Z" id="Shape" fill="#282847"></path>
                    <path d="M58.3358423,11.2025 L57.6835125,9.4525 L53.2426523,9.4525 L52.5903226,11.2025 L49.2283154,11.2025 L53.9426523,0.2775 L57.3046595,0.2775 L61.8207885,11.2025 L58.3358423,11.2025 Z M54.1709677,7.1025 L56.8304659,7.1025 L55.5258065,3.5275 L54.1709677,7.1025 Z" id="Shape" fill="#282847"></path>
                    <polygon id="Shape" fill="#282847" points="60.0921147 0.2775 69.7265233 0.2775 69.7265233 2.8775 66.5401434 2.8775 66.5401434 11.2275 63.2784946 11.2275 63.2784946 2.8775 60.0921147 2.8775"></polygon>
                </g>
                <g id="MMI-blue" transform="translate(306.000000, 185.000000)" fill-rule="nonzero">
                    <polygon id="Shape" fill="url(#linearGradient-10)" points="54.2035088 0 52.3192982 1.93661972 52.3192982 0 46.2105263 0 40.9473684 5.28169014 39.6912281 7.90492958 35.8842105 0 29.7438596 0 27.8736842 1.93661972 27.8736842 0 21.7298246 0 16.4877193 5.28169014 16.4666667 5.28169014 15.2105263 7.90492958 11.4035088 0 5.30175439 0 0 5.28169014 0 24.6549296 5.03859649 24.6549296 5.04210526 24.6514085 17.5684211 24.6514085 17.5684211 24.6549296 22.6105263 24.6549296 22.6140351 24.6514085 24.4807018 24.6514085 24.4807018 24.6549296 29.5192982 24.6549296 29.522807 24.6514085 42.0491228 24.6514085 42.0491228 24.6549296 47.0912281 24.6549296 47.0947368 24.6514085 48.9614035 24.6514085 48.9614035 24.6549296 54.6912281 24.6549296 59.9122807 19.3309859 59.9157895 0.00352112676"></polygon>
                    <polygon id="Shape" fill="#333557" points="5.31578947 0 11.4491228 0 16.6175439 10.7323944 21.754386 0 27.8877193 0 27.8877193 19.3415493 22.8561404 19.3415493 22.8561404 7.86267606 18.4596491 17.4366197 14.7368421 17.4366197 10.3473684 7.86267606 10.3473684 19.3415493 5.31578947 19.3415493"></polygon>
                    <polygon id="Shape" fill="#333557" points="29.7578947 0 35.8877193 0 41.0526316 10.7323944 46.2 0 52.3298246 0 52.3298246 19.3415493 47.2982456 19.3415493 47.2982456 7.86267606 42.8982456 17.4366197 39.1859649 17.4366197 34.7894737 7.86267606 34.7894737 19.3415493 29.7578947 19.3415493"></polygon>
                    <polygon id="Shape" fill="#333557" points="54.2 0 59.9157895 0 59.9157895 19.3415493 54.2 19.3415493"></polygon>
                </g>
            </g>
        </g>
    </g>
</svg>