<svg id="Layer_1" data-name="Layer 1" xmlns="http://www.w3.org/2000/svg" viewBox="0 0 77.37 60.09"><defs><style>.cls-1{fill:#1d2248;}.cls-2{fill:#fffff9;}.cls-3{fill:#e4e4e4;}.cls-4{fill:#b9bbc4;}.cls-5{isolation:isolate;}.cls-6{fill:#cc4c54;}.cls-7{fill:#f1f2f5;}.cls-8{fill:#a81f24;}.cls-9{fill:#fff;}</style></defs><title>Interests-Icons</title><g id="Layer_2" data-name="Layer 2"><g id="Layer_1-2" data-name="Layer 1-2"><rect class="cls-1" x="18.02" y="7.84" width="43.54" height="52.31" rx="2.44" ry="2.44"/><path class="cls-2" d="M51.82,55.76H23.7a2,2,0,0,1-2-2V14.26a2,2,0,0,1,2-2H55.88a2,2,0,0,1,2,2v35"/><path class="cls-3" d="M28.75,36.59H48.56a1,1,0,0,1,1,.95h0a1,1,0,0,1-1,1H28.75a1,1,0,0,1-.95-1h0A1,1,0,0,1,28.75,36.59Z"/><path class="cls-4" d="M28.75,33h23a1,1,0,0,1,.95.95h0a1,1,0,0,1-.95,1h-23a1,1,0,0,1-.95-1h0A1,1,0,0,1,28.75,33Z"/><path class="cls-3" d="M28.75,45.62H48.84a1,1,0,0,1,.95,1h0a1,1,0,0,1-.95,1H28.75a1,1,0,0,1-.95-1h0A1,1,0,0,1,28.75,45.62Z"/><path class="cls-4" d="M28.75,42H43.41a1,1,0,0,1,1,1h0a1,1,0,0,1-1,1H28.75a1,1,0,0,1-.95-1h0A1,1,0,0,1,28.75,42Z"/><rect class="cls-4" x="27.82" y="5.18" width="25.03" height="4.81" rx="2.33" ry="2.33"/><path class="cls-4" d="M40.33,9.24a4.59,4.59,0,1,1,4.59-4.58A4.59,4.59,0,0,1,40.33,9.24Zm0-6.45A1.87,1.87,0,1,0,42.2,4.66,1.87,1.87,0,0,0,40.33,2.79Z"/><path class="cls-4" d="M51.82,55.76V51.31a2,2,0,0,1,2-2h4.06"/><g class="cls-5"><path class="cls-6" d="M39.56,28.13l-.65-1.68h-4.1l-.66,1.68H31.61l4.07-9.48h2.54l4,9.48Zm-4-3.57h2.62l-1.3-3.38Z"/><path class="cls-6" d="M48.59,22.93v1.55H46.35v2.24H44.82V24.48H42.56V22.93h2.26V20.68h1.53v2.25Z"/></g></g></g><g id="Layer_2-2" data-name="Layer 2"><g id="Layer_1-2-2" data-name="Layer 1-2"><circle class="cls-7" cx="60.16" cy="38.01" r="7.28"/><circle class="cls-6" cx="61.53" cy="38.01" r="7.28"/><path class="cls-8" d="M61.53,45.49A7.48,7.48,0,1,1,69,38,7.49,7.49,0,0,1,61.53,45.49Zm0-14.57A7.1,7.1,0,1,0,68.62,38,7.11,7.11,0,0,0,61.53,30.92Z"/><path class="cls-9" d="M60.39,41.47h0A1.09,1.09,0,0,1,59.5,41l-1.82-2.46a1.11,1.11,0,1,1,1.78-1.32l1,1.31,3.31-4.08a1.11,1.11,0,0,1,1.72,1.39l-4.21,5.2A1.11,1.11,0,0,1,60.39,41.47Z"/></g></g></svg>