<?xml version="1.0" encoding="UTF-8"?>
<svg width="331px" height="149px" viewBox="0 0 331 149" version="1.1" xmlns="http://www.w3.org/2000/svg" xmlns:xlink="http://www.w3.org/1999/xlink">
    <!-- Generator: Sketch 51.3 (57544) - http://www.bohemiancoding.com/sketch -->
    <title>Standardised Testing tutoring</title>
    <desc>Created with Sketch.</desc>
    <defs>
        <polygon id="path-1" points="5.87833626e-06 6.34894587e-05 203.070121 6.34894587e-05 203.070121 256.427025 5.87833626e-06 256.427025"></polygon>
        <path d="M279.60293,292.450637 C284.112892,289.038076 288.733775,276.71179 273.702927,267.434625 C251.518917,253.746619 265.601043,227.954166 265.601043,227.954166 C265.601043,227.954166 279.94749,206.643356 265.103083,187.598147 C250.258676,168.552937 201.316972,159.129453 203.122373,102.166105 C204.927774,45.2027577 141.306863,21.2369461 102.581605,48.5492393 C59.3511037,79.0357341 58.7894234,147.669287 103.848925,171.505299 C121.463974,180.824943 133.62506,185.176785 176.42368,204.486315 C219.222301,223.795844 200.226652,261.060262 233.346908,285.280954 C262.610922,306.662564 275.088248,295.863199 279.60293,292.450637 Z" id="path-3"></path>
        <filter x="-5.1%" y="-4.2%" width="110.3%" height="108.4%" filterUnits="objectBoundingBox" id="filter-4">
            <feGaussianBlur stdDeviation="8.5" in="SourceAlpha" result="shadowBlurInner1"></feGaussianBlur>
            <feOffset dx="0" dy="5" in="shadowBlurInner1" result="shadowOffsetInner1"></feOffset>
            <feComposite in="shadowOffsetInner1" in2="SourceAlpha" operator="arithmetic" k2="-1" k3="1" result="shadowInnerInner1"></feComposite>
            <feColorMatrix values="0 0 0 0 0.832004677   0 0 0 0 0.767809434   0 0 0 0 0.257457255  0 0 0 1 0" type="matrix" in="shadowInnerInner1"></feColorMatrix>
        </filter>
    </defs>
    <g id="Page-1" stroke="none" stroke-width="1" fill="none" fill-rule="evenodd">
        <g id="Form--Desktop-2-Interests--Standardised-testing" transform="translate(-254.000000, -134.000000)">
            <g id="Standardised-Testing-tutoring" transform="translate(246.000000, 51.000000)">
                <g id="Group-3" transform="translate(163.025945, 161.595531) rotate(-122.000000) translate(-163.025945, -161.595531) translate(61.025945, 33.095531)">
                    <mask id="mask-2" fill="white">
                        <use xlink:href="#path-1"></use>
                    </mask>
                    <g id="Clip-2"></g>
                    <path d="M4.52317348,251.239438 C0.055726091,248.049885 -4.75403394,236.217053 9.57412352,226.832133 C30.7563896,212.957453 16.3941346,188.308281 16.3941346,188.308281 C16.3941346,188.308281 1.90618666,168.021922 15.8074562,149.164557 C29.7087257,130.307359 76.952383,119.8641 73.6868742,64.6655419 C70.4215325,9.4669839 131.527849,-15.4594681 169.835943,10.0001629 C212.59711,38.4193382 214.964716,104.964319 171.870931,129.279086 C155.022898,138.78544 143.336966,143.327985 102.315109,163.190907 C61.2932512,183.053661 80.7174878,218.691466 49.2126904,243.058681 C21.3977826,264.572253 8.99062087,254.42899 4.52317348,251.239438" id="Fill-1" fill="#F6F7FA" mask="url(#mask-2)"></path>
                </g>
                <g id="Shape" fill-rule="nonzero" transform="translate(177.047328, 167.738926) rotate(-47.000000) translate(-177.047328, -167.738926) ">
                    <use fill="#E9D536" xlink:href="#path-3"></use>
                    <use fill="black" fill-opacity="1" filter="url(#filter-4)" xlink:href="#path-3"></use>
                </g>
                <g id="Interests-Icons-03" transform="translate(119.000000, 101.000000)" fill-rule="nonzero">
                    <rect id="Rectangle-path" fill="#D9D9E0" transform="translate(70.740735, 65.827192) rotate(3.240000) translate(-70.740735, -65.827192) " x="28.1207353" y="13.7371917" width="85.24" height="104.18" rx="4.76"></rect>
                    <rect id="Rectangle-path" fill="#B9BBC3" transform="translate(73.678910, 35.181800) rotate(3.240000) translate(-73.678910, -35.181800) " x="40.5289101" y="31.6317995" width="66.3" height="7.1" rx="3.42"></rect>
                    <rect id="Rectangle-path" fill="#B9BBC3" transform="translate(57.415366, 49.680196) rotate(3.240000) translate(-57.415366, -49.680196) " x="39.6553662" y="46.1301958" width="35.52" height="7.1" rx="3.42"></rect>
                    <rect id="Rectangle-path" fill="#B9BBC3" transform="translate(82.455085, 51.093150) rotate(3.240000) translate(-82.455085, -51.093150) " x="78.2750847" y="47.5431501" width="8.36" height="7.1" rx="3.42"></rect>
                    <rect id="Rectangle-path" fill="#B9BBC3" transform="translate(96.089197, 51.882816) rotate(3.240000) translate(-96.089197, -51.882816) " x="86.6091974" y="48.3328161" width="18.96" height="7.1" rx="3.42"></rect>
                    <rect id="Rectangle-path" fill="#B9BBC3" transform="translate(87.013200, 65.972910) rotate(-176.760000) translate(-87.013200, -65.972910) " x="69.2532" y="62.4229103" width="35.52" height="7.1" rx="3.42"></rect>
                    <rect id="Rectangle-path" fill="#B9BBC3" transform="translate(61.972919, 64.565865) rotate(-176.760000) translate(-61.972919, -64.565865) " x="57.7929185" y="61.0158646" width="8.36" height="7.1" rx="3.42"></rect>
                    <rect id="Rectangle-path" fill="#B9BBC3" transform="translate(46.770000, 63.704137) rotate(-176.760000) translate(-46.770000, -63.704137) " x="38.8600002" y="60.1541369" width="15.82" height="7.1" rx="3.42"></rect>
                    <rect id="Rectangle-path" fill="#B9BBC3" transform="translate(71.037594, 81.280032) rotate(3.240000) translate(-71.037594, -81.280032) " x="37.8875936" y="77.7300324" width="66.3" height="7.1" rx="3.42"></rect>
                    <rect id="Rectangle-path" fill="#B9BBC3" transform="translate(70.189713, 96.646842) rotate(3.240000) translate(-70.189713, -96.646842) " x="37.0397132" y="93.0968423" width="66.3" height="7.1" rx="3.42"></rect>
                    <rect id="Rectangle-path" stroke="#DAD9E1" fill="#FFFFFF" transform="translate(46.630161, 54.967698) rotate(-3.670000) translate(-46.630161, -54.967698) " x="4.01016057" y="2.87769803" width="85.24" height="104.18" rx="4.68"></rect>
                    <path d="M43.88,33.18 C41.8628994,33.3147751 40.1147563,31.7971855 39.9648012,29.7811566 C39.8148461,27.7651277 41.3192335,26.0056104 43.3340765,25.8404838 C45.3489194,25.6753572 47.1197113,27.1664571 47.3,29.18 C47.3940181,30.1676755 47.0830373,31.1512036 46.438293,31.9052905 C45.7935487,32.6593774 44.8702882,33.1194064 43.88,33.18 Z M43.44,26.54 C42.2363478,26.6154091 41.1968138,27.408865 40.8066167,28.5500098 C40.4164195,29.6911545 40.7524973,30.95498 41.6579806,31.751576 C42.5634639,32.548172 43.8598115,32.7204677 44.9419332,32.1880414 C46.024055,31.6556151 46.6785805,30.5234493 46.6,29.32 C46.4929633,27.680748 45.0795284,26.4372831 43.44,26.54 Z" id="Shape" fill="#373A5C"></path>
                    <path d="M58.86,32.22 C56.8446179,32.3437022 55.1059676,30.8203631 54.9636957,28.8062067 C54.8214239,26.7920503 56.328674,25.0394339 58.3414336,24.8786045 C60.3541932,24.7177752 62.1206268,26.2088082 62.3,28.22 C62.3882698,29.2097101 62.0725623,30.1930549 61.4246709,30.946417 C60.7767795,31.699779 59.8517721,32.159126 58.86,32.22 Z M58.44,25.58 C57.2339484,25.6474539 56.1879178,26.436292 55.7914753,27.5773196 C55.3950328,28.7183471 55.7266096,29.9858259 56.6310199,30.7865458 C57.5354303,31.5872658 58.8337477,31.7628144 59.9183291,31.2310309 C61.0029104,30.6992473 61.6591847,29.5653382 61.58,28.36 C61.5336864,27.5744265 61.1764615,26.8396307 60.5872629,26.3179836 C59.9980644,25.7963365 59.2253968,25.5307817 58.44,25.58 Z" id="Shape" fill="#373A5C"></path>
                    <path d="M73.84,31.26 C71.8246179,31.3837022 70.0859676,29.8603631 69.9436957,27.8462067 C69.8014239,25.8320503 71.308674,24.0794339 73.3214336,23.9186045 C75.3341932,23.7577752 77.1006268,25.2488082 77.28,27.26 C77.3740104,28.2509464 77.060355,29.2374389 76.4113178,29.9921333 C75.7622807,30.7468277 74.8338539,31.2046168 73.84,31.26 Z M73.42,24.62 C72.2163478,24.6954091 71.1768138,25.488865 70.7866167,26.6300098 C70.3964195,27.7711545 70.7324973,29.03498 71.6379806,29.831576 C72.5434639,30.628172 73.8398115,30.8004677 74.9219332,30.2680414 C76.004055,29.7356151 76.6585805,28.6034493 76.58,27.4 C76.4729633,25.760748 75.0595284,24.5172831 73.42,24.62 Z" id="Shape" fill="#373A5C"></path>
                    <path d="M44.72,46.36 C42.7046179,46.4837022 40.9659676,44.9603631 40.8236957,42.9462067 C40.6814239,40.9320503 42.188674,39.1794339 44.2014336,39.0186045 C46.2141932,38.8577752 47.9806268,40.3488082 48.16,42.36 C48.2482698,43.3497101 47.9325623,44.3330549 47.2846709,45.086417 C46.6367795,45.839779 45.7117721,46.299126 44.72,46.36 Z M44.3,39.72 C43.0939484,39.7874539 42.0479178,40.576292 41.6514753,41.7173196 C41.2550328,42.8583471 41.5866096,44.1258259 42.4910199,44.9265458 C43.3954303,45.7272658 44.6937477,45.9028144 45.7783291,45.3710309 C46.8629104,44.8392473 47.5191847,43.7053382 47.44,42.5 C47.3224484,40.8769958 45.9246743,39.6483791 44.3,39.74 L44.3,39.72 Z" id="Shape" fill="#373A5C"></path>
                    <path d="M59.7,45.4 C57.6565464,45.5325483 55.8925483,43.9834536 55.76,41.94 C55.6274517,39.8965464 57.1765464,38.1325483 59.22,38 C60.5347374,37.9071109 61.7991605,38.522682 62.5369735,39.6148334 C63.2747865,40.7069848 63.3738979,42.1097929 62.7969735,43.2948334 C62.2200491,44.4798739 61.0547374,45.2671109 59.74,45.36 L59.7,45.4 Z M59.28,38.76 C57.6231458,38.8594113 56.3605888,40.2831458 56.46,41.94 C56.5594113,43.5968542 57.9831458,44.8594112 59.64,44.76 C61.2820207,44.6528313 62.5312543,43.2429819 62.44,41.6 C62.3329857,39.9717838 60.9284916,38.7372603 59.3,38.84 L59.28,38.76 Z" id="Shape" fill="#373A5C"></path>
                    <path d="M74.7,44.44 C72.6846179,44.5637022 70.9459676,43.0403631 70.8036957,41.0262067 C70.6614239,39.0120503 72.168674,37.2594339 74.1814336,37.0986045 C76.1941932,36.9377752 77.9606268,38.4288082 78.14,40.44 C78.2226416,41.4284777 77.9049238,42.4087442 77.2581489,43.1608081 C76.611374,43.9128719 75.6897112,44.3737457 74.7,44.44 Z M74.26,37.8 C73.0563478,37.8754091 72.0168138,38.668865 71.6266167,39.8100098 C71.2364195,40.9511545 71.5724973,42.21498 72.4779806,43.011576 C73.3834639,43.808172 74.6798115,43.9804677 75.7619332,43.4480414 C76.844055,42.9156151 77.4985805,41.7834493 77.42,40.58 C77.3025065,38.9487346 75.8922438,37.7169861 74.26,37.82 L74.26,37.8 Z" id="Shape" fill="#373A5C"></path>
                    <path d="M45.56,59.52 C43.5275922,59.6525483 41.7725485,58.1124078 41.6400001,56.08 C41.5074518,54.0475922 43.0475922,52.2925484 45.08,52.16 C46.0697101,52.0717302 47.0530549,52.3874377 47.806417,53.0353291 C48.559779,53.6832205 49.019126,54.6082279 49.08,55.6 C49.1399579,56.5883095 48.8012991,57.559418 48.1397704,58.2961204 C47.4782417,59.0328228 46.5490411,59.4736487 45.56,59.52 Z M45.14,52.88 C43.5109665,52.993806 42.2818455,54.4053903 42.3931723,56.0345952 C42.5044991,57.6638 43.9142113,58.8950677 45.5435837,58.7862204 C47.1729561,58.677373 48.4063676,57.2695361 48.3,55.64 C48.2487129,54.8542896 47.8864913,54.1213922 47.2934609,53.6034288 C46.7004304,53.0854655 45.925468,52.8251264 45.14,52.88 Z" id="Shape" fill="#373A5C"></path>
                    <path d="M75.54,57.58 C74.0540561,57.6742592 72.6577335,56.8638211 72.0025117,55.5268101 C71.3472898,54.1897992 71.562296,52.5897057 72.5472152,51.4730821 C73.5321344,50.3564586 75.0928646,49.9433626 76.5012188,50.4265316 C77.9095731,50.9097006 78.8880012,52.1939145 78.98,53.68 C79.1054444,55.7063429 77.5661498,57.4514734 75.54,57.58 Z M75.12,50.94 C73.9139484,51.0074539 72.8679178,51.796292 72.4714753,52.9373196 C72.0750328,54.0783471 72.4066096,55.3458259 73.3110199,56.1465458 C74.2154303,56.9472658 75.5137477,57.1228144 76.5983291,56.5910309 C77.6829104,56.0592473 78.3391847,54.9253382 78.26,53.72 C78.1528527,52.0890186 76.7519467,50.848726 75.12,50.94 Z" id="Shape" fill="#373A5C"></path>
                    <path d="M47.24,85.62 C45.2246179,85.7437022 43.4859676,84.2203631 43.3436957,82.2062067 C43.2014239,80.1920503 44.708674,78.4394339 46.7214336,78.2786045 C48.7341932,78.1177752 50.5006268,79.6088082 50.68,81.62 C50.7626416,82.6084777 50.4449238,83.5887442 49.7981489,84.3408081 C49.151374,85.0928719 48.2297112,85.5537457 47.24,85.62 Z M46.82,78.98 C45.1945494,79.1045745 43.9757999,80.519996 44.0939791,82.1459241 C44.2121583,83.7718521 45.6227743,84.9961604 47.2491547,84.8843784 C48.8755351,84.7725964 50.1053831,83.3668075 50,81.74 C49.9536864,80.9544265 49.5964615,80.2196307 49.0072629,79.6979836 C48.4180644,79.1763365 47.6453968,78.9107817 46.86,78.96 L46.82,78.98 Z" id="Shape" fill="#373A5C"></path>
                    <path d="M60.56,58.58 C58.5428994,58.7147751 56.7947563,57.1971855 56.6448012,55.1811566 C56.4948461,53.1651277 57.9992335,51.4056104 60.0140765,51.2404838 C62.0289194,51.0753572 63.7997113,52.5664571 63.98,54.58 C64.0740181,55.5676755 63.7630373,56.5512036 63.118293,57.3052905 C62.4735487,58.0593774 61.5502882,58.5194064 60.56,58.58 Z M60.12,52 C58.9163478,52.0754091 57.8768138,52.868865 57.4866167,54.0100098 C57.0964195,55.1511545 57.4324973,56.41498 58.3379806,57.211576 C59.2434639,58.008172 60.5398115,58.1804677 61.6219332,57.6480414 C62.704055,57.1156151 63.3585805,55.9834493 63.28,54.78 C63.1729633,53.140748 61.7595284,51.8972831 60.12,52 Z" id="Shape" fill="#373A5C"></path>
                    <path d="M76.38,70.74 C74.8940561,70.8342592 73.4977335,70.0238211 72.8425117,68.6868101 C72.1872898,67.3497992 72.402296,65.7497057 73.3872152,64.6330821 C74.3721344,63.5164586 75.9328646,63.1033626 77.3412188,63.5865316 C78.7495731,64.0697006 79.7280012,65.3539145 79.82,66.84 C79.8857822,67.8111941 79.5619713,68.768585 78.9201734,69.5004598 C78.2783755,70.2323346 77.371468,70.6783945 76.4,70.74 L76.38,70.74 Z M76,64.1 C74.3587818,64.2021392 73.1104866,65.6143859 73.2106298,67.2557272 C73.310773,68.8970684 74.7215005,70.1470801 76.3629623,70.0489332 C78.0044241,69.9507862 79.2561506,68.54158 79.16,66.9 C79.113677,66.1091264 78.7543425,65.3692495 78.1613956,64.8438535 C77.5684487,64.3184575 76.7906994,64.0507918 76,64.1 Z" id="Shape" fill="#373A5C"></path>
                    <path d="M46.42,72.7 C44.4028994,72.8347751 42.6547563,71.3171855 42.5048012,69.3011566 C42.3548461,67.2851277 43.8592335,65.5256104 45.8740765,65.3604838 C47.8889194,65.1953572 49.6597113,66.6864571 49.84,68.7 C49.9340181,69.6876755 49.6230373,70.6712036 48.978293,71.4252905 C48.3335487,72.1793774 47.4102882,72.6394064 46.42,72.7 Z M46,66 C44.7963478,66.0754091 43.7568138,66.868865 43.3666167,68.0100098 C42.9764195,69.1511545 43.3124973,70.41498 44.2179806,71.211576 C45.1234639,72.008172 46.4198115,72.1804677 47.5019332,71.6480414 C48.584055,71.1156151 49.2385805,69.9834493 49.16,68.78 C49.0529633,67.140748 47.6395284,65.8972831 46,66 Z" id="Shape" fill="#373A5C"></path>
                    <path d="M62.24,84.88 C60.2075921,85.0125483 58.4525483,83.4724079 58.32,81.44 C58.1874517,79.4075921 59.7275921,77.6525483 61.76,77.52 C62.7497101,77.4317302 63.7330549,77.7474377 64.486417,78.3953291 C65.239779,79.0432205 65.699126,79.9682279 65.76,80.96 C65.8199579,81.9483095 65.4812991,82.919418 64.8197704,83.6561204 C64.1582417,84.3928228 63.2290411,84.8336487 62.24,84.88 Z M61.82,78.24 C60.1909665,78.353806 58.9618455,79.7653903 59.0731723,81.3945952 C59.1844991,83.0238 60.5942113,84.2550677 62.2235837,84.1462204 C63.8529561,84.037373 65.0863676,82.6295361 64.98,81 C64.8625065,79.3687346 63.4522438,78.1369861 61.82,78.24 Z" id="Shape" fill="#373A5C"></path>
                    <path d="M77.22,84 C75.2046179,84.1237022 73.4659676,82.6003631 73.3236957,80.5862067 C73.1814239,78.5720503 74.688674,76.8194339 76.7014336,76.6586045 C78.7141932,76.4977752 80.4806268,77.9888082 80.66,80 C80.7482698,80.9897101 80.4325623,81.9730549 79.7846709,82.726417 C79.1367795,83.479779 78.2117721,83.939126 77.22,84 Z M76.8,77.36 C75.1885871,77.4462273 73.9431771,78.8072825 74,80.42 C74.0750257,81.4917968 74.7161491,82.4421522 75.6818653,82.9130764 C76.6475814,83.3840006 77.791175,83.303949 78.6818654,82.7030764 C79.5725558,82.1022037 80.0750258,81.0717968 80,80 C79.9388672,79.2139607 79.5666738,78.4847897 78.965951,77.9741753 C78.3652281,77.4635609 77.5856204,77.213701 76.8,77.28 L76.8,77.36 Z" id="Shape" fill="#373A5C"></path>
                    <path d="M48.1,99 C46.0846179,99.1237022 44.3459676,97.6003631 44.2036957,95.5862067 C44.0614239,93.5720503 45.568674,91.8194339 47.5814336,91.6586045 C49.5941932,91.4977752 51.3606268,92.9888082 51.54,95 C51.6226416,95.9884777 51.3049238,96.9687442 50.6581489,97.7208081 C50.011374,98.4728719 49.0897112,98.9337457 48.1,99 Z M47.68,92.36 C46.4844615,92.4354252 45.4522504,93.2240036 45.0651653,94.3576554 C44.6780802,95.4913072 45.0124454,96.7465027 45.9121913,97.5373621 C46.8119371,98.3282216 48.0996548,98.4988059 49.1742843,97.9694925 C50.2489138,97.4401792 50.8985633,96.3153364 50.82,95.12 C50.7129857,93.4917838 49.3084916,92.2572603 47.68,92.36 Z" id="Shape" fill="#373A5C"></path>
                    <path d="M63.08,98 C61.0646179,98.1237022 59.3259676,96.6003631 59.1836957,94.5862067 C59.0414239,92.5720503 60.548674,90.8194339 62.5614336,90.6586045 C64.5741932,90.4977752 66.3406268,91.9888082 66.52,94 C66.6082698,94.9897101 66.2925623,95.9730549 65.6446709,96.726417 C64.9967795,97.479779 64.0717721,97.939126 63.08,98 Z M62.66,91.36 C61.0333484,91.4729573 59.8043871,92.8801725 59.9114397,94.5072234 C60.0184922,96.1342742 61.4212376,97.368335 63.0486663,97.2671886 C64.676095,97.1660421 65.915239,95.7677851 65.82,94.14 C65.7025065,92.5087346 64.2922438,91.2769861 62.66,91.38 L62.66,91.36 Z" id="Shape" fill="#373A5C"></path>
                    <path d="M78,97.08 C75.9846179,97.2037022 74.2459676,95.6803631 74.1036957,93.6662067 C73.9614239,91.6520503 75.468674,89.8994339 77.4814336,89.7386045 C79.4941932,89.5777752 81.2606268,91.0688082 81.44,93.08 C81.5171222,94.0672497 81.1974345,95.0445046 80.5517478,95.7953031 C79.9060611,96.5461016 78.9876707,97.0084722 78,97.08 Z M77.56,90.44 C75.9031458,90.5449341 74.6450659,91.9731458 74.75,93.63 C74.8549341,95.2868542 76.2831458,96.5449341 77.94,96.44 C78.7564906,96.4102627 79.5249608,96.0465942 80.0656518,95.4340631 C80.6063429,94.8215319 80.871826,94.0138687 80.8,93.2 C80.7540048,92.4122892 80.3933059,91.6761288 79.7990176,91.1570668 C79.2047293,90.6380048 78.4267385,90.3796135 77.64,90.44 L77.56,90.44 Z" id="Shape" fill="#373A5C"></path>
                    <circle id="Oval" fill="#373A5C" cx="15.26" cy="31.34" r="3.14"></circle>
                    <path d="M15.5,35 C14.0140561,35.0942592 12.6177335,34.2838211 11.9625117,32.9468101 C11.3072898,31.6097992 11.522296,30.0097057 12.5072152,28.8930821 C13.4921344,27.7764586 15.0528646,27.3633626 16.4612188,27.8465316 C17.8695731,28.3297006 18.8480012,29.6139145 18.94,31.1 C19.0654444,33.1263429 17.5261498,34.8714734 15.5,35 Z M15.08,28.36 C13.4231458,28.4649341 12.1650659,29.8931458 12.27,31.55 C12.3749341,33.2068542 13.8031458,34.4649341 15.46,34.36 C16.2477108,34.3140048 16.9838712,33.9533059 17.5029332,33.3590176 C18.0219952,32.7647293 18.2803865,31.9867385 18.22,31.2 C18.1892079,30.4037812 17.8387035,29.6536038 17.2477483,29.1191093 C16.6567931,28.5846148 15.8753028,28.3109499 15.08,28.36 Z" id="Shape" fill="#373A5C"></path>
                    <path d="M30.48,34 C28.453031,34.08569 26.739064,32.5147478 26.6482554,30.4880017 C26.5574467,28.4612555 28.1240554,26.7433267 30.1505657,26.6473999 C32.1770761,26.5514732 33.8989558,28.1137384 34,30.14 C34.0543514,31.1210004 33.7120045,32.0826598 33.0499777,32.8086325 C32.3879508,33.5346051 31.4618423,33.9639223 30.48,34 Z M30,27.4 C28.7963478,27.4754091 27.7568138,28.268865 27.3666167,29.4100098 C26.9764195,30.5511545 27.3124973,31.81498 28.2179806,32.611576 C29.1234639,33.408172 30.4198115,33.5804677 31.5019332,33.0480414 C32.584055,32.5156151 33.2385805,31.3834493 33.16,30.18 C33.0529633,28.540748 31.6395284,27.2972831 30,27.4 Z" id="Shape" fill="#373A5C"></path>
                    <path d="M16.34,48.18 C14.3246179,48.3037022 12.5859676,46.7803631 12.4436957,44.7662067 C12.3014239,42.7520503 13.808674,40.9994339 15.8214336,40.8386045 C17.8341932,40.6777752 19.6006268,42.1688082 19.78,44.18 C19.8740104,45.1709464 19.560355,46.1574389 18.9113178,46.9121333 C18.2622807,47.6668277 17.3338539,48.1246168 16.34,48.18 Z M16,41.54 C14.7963478,41.6154091 13.7568138,42.408865 13.3666167,43.5500098 C12.9764195,44.6911545 13.3124973,45.95498 14.2179806,46.751576 C15.1234639,47.548172 16.4198115,47.7204677 17.5019332,47.1880414 C18.584055,46.6556151 19.2385805,45.5234493 19.16,44.32 C19.0528313,42.6779793 17.6429819,41.4287457 16,41.52 L16,41.54 Z" id="Shape" fill="#373A5C"></path>
                    <path d="M31.34,47.22 C30.3502899,47.3082698 29.3669451,46.9925623 28.613583,46.3446709 C27.860221,45.6967795 27.400874,44.7717721 27.34,43.78 C27.2162978,41.7646179 28.7396369,40.0259676 30.7537933,39.8836957 C32.7679497,39.7414239 34.5205661,41.248674 34.6813955,43.2614336 C34.8422248,45.2741932 33.3511918,47.0406268 31.34,47.22 Z M30.9,40.58 C29.6893424,40.6314544 28.6303924,41.4108688 28.2214068,42.5515134 C27.8124212,43.692158 28.134849,44.9668745 29.0369816,45.7758838 C29.9391143,46.584893 31.2412929,46.7670817 32.3308169,46.2367263 C33.4203409,45.706371 34.0802326,44.5690914 34,43.36 C33.8825065,41.7287346 32.4722438,40.4969861 30.84,40.6 L30.9,40.58 Z" id="Shape" fill="#373A5C"></path>
                    <path d="M17.2,61.34 C15.1846179,61.4637022 13.4459676,59.9403631 13.3036957,57.9262067 C13.1614239,55.9120503 14.668674,54.1594339 16.6814336,53.9986045 C18.6941932,53.8377752 20.4606268,55.3288082 20.64,57.34 C20.7226416,58.3284777 20.4049238,59.3087442 19.7581489,60.0608081 C19.111374,60.8128719 18.1897112,61.2737457 17.2,61.34 Z M16.76,54.7 C15.1317838,54.8070143 13.8972603,56.2115084 14,57.84 C14.0678805,58.9117968 14.7024014,59.865964 15.6645448,60.3430762 C16.6266883,60.8201884 17.7702818,60.7477608 18.6645448,60.1530762 C19.5588078,59.5583916 20.0678805,58.5317968 20,57.46 C19.9495353,56.6592036 19.5761308,55.913204 18.9653208,55.3928843 C18.3545107,54.8725646 17.5586344,54.6225102 16.76,54.7 Z" id="Shape" fill="#373A5C"></path>
                    <path d="M32.18,60.38 C30.1475921,60.5125483 28.3925483,58.9724079 28.26,56.94 C28.1274517,54.9075921 29.6675921,53.1525483 31.7,53.02 C32.6897101,52.9317302 33.6730549,53.2474377 34.426417,53.8953291 C35.179779,54.5432205 35.639126,55.4682279 35.7,56.46 C35.7544933,57.4469653 35.4139393,58.4150376 34.7535184,59.1505064 C34.0930976,59.8859751 33.1671187,60.3283598 32.18,60.38 Z M31.76,53.72 C30.1031458,53.8249341 28.8450659,55.2531458 28.95,56.91 C29.0549341,58.5668542 30.4831458,59.8249341 32.14,59.72 C32.9277108,59.6740048 33.6638712,59.3133059 34.1829332,58.7190176 C34.7019952,58.1247293 34.9603865,57.3467385 34.9,56.56 C34.8692079,55.7637812 34.5187035,55.0136038 33.9277483,54.4791093 C33.3367931,53.9446148 32.5553028,53.6709499 31.76,53.72 Z" id="Shape" fill="#373A5C"></path>
                    <path d="M18,74.5 C15.9846179,74.6237022 14.2459676,73.1003631 14.1036957,71.0862067 C13.9614239,69.0720503 15.468674,67.3194339 17.4814336,67.1586045 C19.4941932,66.9977752 21.2606268,68.4888082 21.44,70.5 C21.5226416,71.4884777 21.2049238,72.4687442 20.5581489,73.2208081 C19.911374,73.9728719 18.9897112,74.4337457 18,74.5 Z M17.56,67.86 C16.7744265,67.9063136 16.0396307,68.2635385 15.5179836,68.8527371 C14.9963365,69.4419356 14.7307817,70.2146032 14.78,71 C14.8794113,72.6568542 16.3031458,73.9194113 17.96,73.82 C19.6168542,73.7205887 20.8794113,72.2968542 20.78,70.64 C20.7339931,69.8469927 20.3711853,69.1057541 19.7731501,68.5829434 C19.1751148,68.0601327 18.3920432,67.7996277 17.6,67.86 L17.56,67.86 Z" id="Shape" fill="#373A5C"></path>
                    <path d="M33.02,73.54 C31.0046179,73.6637022 29.2659676,72.1403631 29.1236957,70.1262067 C28.9814239,68.1120503 30.488674,66.3594339 32.5014336,66.1986045 C34.5141932,66.0377752 36.2806268,67.5288082 36.46,69.54 C36.5482698,70.5297101 36.2325623,71.5130549 35.5846709,72.266417 C34.9367795,73.019779 34.0117721,73.479126 33.02,73.54 Z M32.6,66.88 C30.9587818,66.9821392 29.7104866,68.3943859 29.8106298,70.0357272 C29.910773,71.6770684 31.3215005,72.9270801 32.9629623,72.8289332 C34.6044241,72.7307862 35.8561506,71.32158 35.76,69.68 C35.713677,68.8891264 35.3543425,68.1492495 34.7613956,67.6238535 C34.1684487,67.0984575 33.3906994,66.8307918 32.6,66.88 Z" id="Shape" fill="#373A5C"></path>
                    <path d="M18.88,87.66 C16.8646179,87.7837022 15.1259676,86.2603631 14.9836957,84.2462067 C14.8414239,82.2320503 16.348674,80.4794339 18.3614336,80.3186045 C20.3741932,80.1577752 22.1406268,81.6488082 22.32,83.66 C22.4082698,84.6497101 22.0925623,85.6330549 21.4446709,86.386417 C20.7967795,87.139779 19.8717721,87.599126 18.88,87.66 Z M18.46,81.02 C16.8031458,81.1249341 15.5450659,82.5531458 15.65,84.21 C15.7549341,85.8668542 17.1831458,87.1249341 18.84,87.02 C19.6390743,86.9747602 20.3851682,86.6057011 20.9060316,85.9980271 C21.4268951,85.3903531 21.6775038,84.5965925 21.6,83.8 C21.5536864,83.0144265 21.1964615,82.2796307 20.6072629,81.7579836 C20.0180644,81.2363365 19.2453968,80.9707817 18.46,81.02 Z" id="Shape" fill="#373A5C"></path>
                    <path d="M33.88,86.7 C31.8646179,86.8237022 30.1259676,85.3003631 29.9836957,83.2862067 C29.8414239,81.2720503 31.348674,79.5194339 33.3614336,79.3586045 C35.3741932,79.1977752 37.1406268,80.6888082 37.32,82.7 C37.4026416,83.6884777 37.0849238,84.6687442 36.4381489,85.4208081 C35.791374,86.1728719 34.8697112,86.6337457 33.88,86.7 Z M33.44,80 C31.8109665,80.113806 30.5818455,81.5253903 30.6931723,83.1545952 C30.8044991,84.7838 32.2142113,86.0150677 33.8435837,85.9062204 C35.4729561,85.797373 36.7063676,84.3895361 36.6,82.76 C36.4825065,81.1287346 35.0722438,79.8969861 33.44,80 Z" id="Shape" fill="#373A5C"></path>
                    <path d="M19.72,100.82 C17.7046179,100.943702 15.9659676,99.4203631 15.8236957,97.4062067 C15.6814239,95.3920503 17.188674,93.6394339 19.2014336,93.4786045 C21.2141932,93.3177752 22.9806268,94.8088082 23.16,96.82 C23.2482698,97.8097101 22.9325623,98.7930549 22.2846709,99.546417 C21.6367795,100.299779 20.7117721,100.759126 19.72,100.82 Z M19.3,94.18 C17.6733484,94.2929573 16.4443871,95.7001725 16.5514397,97.3272234 C16.6584922,98.9542742 18.0612376,100.188335 19.6886663,100.087189 C21.316095,99.9860421 22.555239,98.5877851 22.46,96.96 C22.3529633,95.320748 20.9395284,94.0772831 19.3,94.18 Z" id="Shape" fill="#373A5C"></path>
                    <path d="M34.72,99.86 C32.7046179,99.9837022 30.9659676,98.4603631 30.8236957,96.4462067 C30.6814239,94.4320503 32.188674,92.6794339 34.2014336,92.5186045 C36.2141932,92.3577752 37.9806268,93.8488082 38.16,95.86 C38.2426416,96.8484777 37.9249238,97.8287442 37.2781489,98.5808081 C36.631374,99.3328719 35.7097112,99.7937457 34.72,99.86 Z M34.28,93.22 C32.6533484,93.3329573 31.4243871,94.7401725 31.5314397,96.3672234 C31.6384922,97.9942742 33.0412376,99.228335 34.6686663,99.1271886 C36.296095,99.0260421 37.535239,97.6277851 37.44,96 C37.3225065,94.3687346 35.9122438,93.1369861 34.28,93.24 L34.28,93.22 Z" id="Shape" fill="#373A5C"></path>
                    <g id="Group" opacity="0.23" transform="translate(58.000000, 52.000000)" fill="#FFFFFF">
                        <path d="M3.04,2 C3.22597452,2.08095793 3.3853922,2.21265078 3.5,2.38 C3.62118095,2.54876198 3.68434248,2.75228247 3.68,2.96 C3.69616723,3.16516543 3.66183346,3.37116802 3.58,3.56 C3.48510613,3.73214405 3.34731314,3.87682668 3.18,3.98 C2.98672809,4.07905183 2.77626699,4.14015344 2.56,4.16 L1.62,4.16 L1.46,1.9 L2.44,1.9 C2.64523522,1.88214029 2.85165091,1.9165429 3.04,2 Z M2.84,3.56 C2.9273629,3.49979832 2.9965392,3.41678677 3.04,3.32 C3.07065478,3.20873957 3.07065478,3.09126043 3.04,2.98 C3.0662501,2.87494834 3.0662501,2.76505166 3.04,2.66 C2.99444536,2.56333986 2.91666014,2.48555464 2.82,2.44 C2.71418972,2.42088479 2.60581028,2.42088479 2.5,2.44 L2,2.44 L2,3.74 L2.4,3.74 C2.51159959,3.73949318 2.61883697,3.69659823 2.7,3.62 L2.84,3.56 Z" id="Shape"></path>
                    </g>
                    <path d="M61.38,71.58 C59.3646179,71.7037022 57.6259676,70.1803631 57.4836957,68.1662067 C57.3414239,66.1520503 58.848674,64.3994339 60.8614336,64.2386045 C62.8741932,64.0777752 64.6406268,65.5688082 64.82,67.58 C64.9082698,68.5697101 64.5925623,69.5530549 63.9446709,70.306417 C63.2967795,71.059779 62.3717721,71.519126 61.38,71.58 Z M60.96,64.94 C59.7563478,65.0154091 58.7168138,65.808865 58.3266167,66.9500098 C57.9364195,68.0911545 58.2724973,69.35498 59.1779806,70.151576 C60.0834639,70.948172 61.3798115,71.1204677 62.4619332,70.5880414 C63.544055,70.0556151 64.1985805,68.9234493 64.12,67.72 C64.0129633,66.080748 62.5995284,64.8372831 60.96,64.94 Z" id="Shape" fill="#373A5C"></path>
                    <circle id="Oval" fill="#373A5C" cx="31" cy="43.62" r="3.14"></circle>
                    <circle id="Oval" fill="#373A5C" cx="62.86" cy="94.3" r="3.14"></circle>
                    <circle id="Oval" fill="#373A5C" cx="47.04" cy="81.94" r="3.24"></circle>
                    <circle id="Oval" fill="#373A5C" cx="76.14" cy="67.1" r="3.34"></circle>
                    <rect id="Rectangle-path" fill="#D9D9E0" transform="translate(44.101548, 16.010179) rotate(-3.670000) translate(-44.101548, -16.010179) " x="10.4415479" y="12.4601793" width="67.32" height="7.1" rx="3.42"></rect>
                    <g id="c3cd9901-9e62-4f49-ad0e-31814f6d1c67" transform="translate(74.000000, 0.000000)">
                        <g id="_7babbd22-268f-4d8e-bdc3-87293134dc7a" transform="translate(16.000000, 0.000000)" fill="#CD4B54">
                            <path d="M9.6,15.74 L3.84,13.74 C1.90442935,13.0348031 0.896698767,10.9034083 1.58,8.96 L3.58,3.32 C3.89464536,2.35810748 4.58187142,1.56256058 5.48782426,1.11146373 C6.39377711,0.660366878 7.44278518,0.591398857 8.4,0.92 L14.16,2.92 C16.1141082,3.6169631 17.1344193,5.76498636 16.44,7.72 L14.44,13.4 C14.1057452,14.3381353 13.4111294,15.1042137 12.5101023,15.5284473 C11.6090751,15.9526809 10.5760576,16.0000298 9.64,15.66" id="_25a8bcb6-9419-47ee-974a-0ec1cbffd3a7"></path>
                        </g>
                        <g id="_7babbd22-268f-4d8e-bdc3-87293134dc7a-2" transform="translate(16.000000, 2.000000)" fill="#D9D9DF">
                            <path d="M8.66,17.62 L2.66,15.44 C0.654771216,14.6806233 -0.395021737,12.4751759 0.28,10.44 L2.62,3.12 C3.32,1.12 3.34,1.12 4.62,1.46 C4.62,1.46 14.38,4.88 15.9,5.46 C16.96,5.9 16.68,6.3 16.18,7.84 L13.68,15.26 C12.9124757,17.2676035 10.6956216,18.3097899 8.66,17.62" id="_25a8bcb6-9419-47ee-974a-0ec1cbffd3a7-2"></path>
                        </g>
                        <path d="M15.32,55.74 L6,63.08 C5.57942623,63.2572861 5.0931134,63.0836029 4.88,62.68 L2.28,51.04 C2.1842603,50.8384738 2.17262774,50.6071382 2.24766839,50.3970244 C2.32270904,50.1869106 2.47825718,50.0152825 2.68,49.92 L10.74,46 C10.9361332,45.9037166 11.1625817,45.8896897 11.3690981,45.9610317 C11.5756146,46.0323737 11.7451192,46.1831845 11.84,46.38 L15.68,54.54 C15.7757397,54.7415262 15.7873723,54.9728618 15.7123316,55.1829756 C15.637291,55.3930894 15.4817428,55.5647175 15.28,55.66" id="b858bee5-e499-4146-82c7-f0bd0d4fcd96" fill="#E5E5E4"></path>
                        <path d="M8.18,61.26 L5.88,63.06 C5.67847376,63.1557397 5.44713824,63.1673723 5.23702442,63.0923316 C5.02691061,63.017291 4.85528248,62.8617428 4.76,62.66 L4,59.76" id="dd2d4e62-3ea9-46a2-8d89-9d968f4db888" fill="#202851"></path>
                        <path d="M14.48,55.66 L3.08,51.66 C2.59983625,51.4908545 2.21120932,51.1303327 2.00656226,50.6641922 C1.8019152,50.1980516 1.7995394,49.6679562 2,49.2 L17.4,6.24 C17.7393941,5.29726221 18.7707114,4.79938492 19.72,5.12 L31.12,9.22 C31.5824122,9.38229899 31.959832,9.72422196 32.1668683,10.1684088 C32.3739046,10.6125957 32.3930597,11.1215065 32.22,11.58 L16.8,54.54 C16.4433841,55.4985615 15.385913,55.9961949 14.42,55.66" id="_550ad257-91b1-4a68-9f65-ac611956f18b" fill="#E9D536"></path>
                        <path d="M16.9,17.58 C16.3224545,17.3722793 16.013032,16.7445936 16.2,16.16 L19,8 C19.1321883,7.62129847 19.4563701,7.34188544 19.8504294,7.26701307 C20.2444887,7.19214071 20.6485584,7.33318391 20.9104294,7.63701307 C21.1723004,7.94084223 21.2521883,8.36129847 21.12,8.74 L18.28,16.9 C18.1846443,17.1759144 17.9835222,17.4026087 17.7209314,17.5301528 C17.4583405,17.657697 17.1558197,17.6756292 16.88,17.58" id="_0f780949-6142-45f6-ab60-533cb14e84be" fill="#DDA65E"></path>
                        <path d="M16.98,20.32 C16.8180608,20.8100103 16.2913493,21.0778297 15.8,20.92 C15.3299751,20.7431481 15.0886134,20.2220468 15.257701,19.7491733 C15.4267886,19.2762998 15.9438445,19.0263895 16.4194384,19.1876669 C16.8950323,19.3489444 17.1534236,19.8618147 17,20.34" id="_23e627c9-aa29-46e2-8521-bb67ab9d3c3f" fill="#DDA65E"></path>
                    </g>
                </g>
                <g id="SAT" transform="translate(8.000000, 157.000000)" fill-rule="nonzero">
                    <circle id="Oval-4" fill="#F6F7FA" cx="33" cy="33" r="33"></circle>
                    <path d="M24.8877551,27.8841997 C24.1581633,27.6211038 23.3954082,27.4566689 22.5994898,27.4237819 C22.3010204,27.4237819 21.9693878,27.4895559 21.7372449,27.6539908 C21.5382653,27.7855387 21.4056122,28.0157476 21.4056122,28.2788435 C21.4056122,28.6734873 21.6709184,29.0352441 22.0357143,29.166792 C22.6658163,29.4298879 23.3290816,29.6600968 23.9923469,29.8245317 C24.8545918,30.0547406 25.6836735,30.3507234 26.5127551,30.6795933 C27.1760204,30.9755761 27.7729592,31.4359939 28.2372449,32.0279596 C28.7678571,32.7185862 29,33.5407608 28.9668367,34.3958224 C29,35.3166579 28.7015306,36.2046064 28.1709184,36.9281201 C27.6071429,37.6516337 26.877551,38.1778254 26.0153061,38.4738083 C25.0535714,38.8355651 24.0255102,39 22.9642857,39 C21.7040816,39 20.4438776,38.7697911 19.2168367,38.3751473 C18.0561224,37.9805035 16.9617347,37.4214248 16,36.6650242 L17.625,33.4092129 C18.4209184,34.0669525 19.3163265,34.6260312 20.3112245,34.9877881 C21.1734694,35.3824319 22.1020408,35.6126407 23.0306122,35.6455277 C23.4285714,35.6784147 23.7933673,35.5797538 24.125,35.3824319 C24.3903061,35.2179969 24.5229592,34.9220141 24.5229592,34.6260312 C24.5229592,34.2313874 24.2576531,33.8696306 23.8928571,33.7051957 C23.2627551,33.4092129 22.5994898,33.211891 21.9030612,33.047456 C21.0408163,32.8501342 20.2117347,32.5541513 19.4158163,32.2252815 C18.752551,31.9292986 18.1556122,31.5017678 17.6913265,30.9098021 C17.1938776,30.2520625 16.9285714,29.4298879 16.9617347,28.5748263 C16.9285714,27.7197648 17.1938776,26.8647032 17.6913265,26.1411896 C18.2219388,25.417676 18.9515306,24.8585972 19.7806122,24.5626144 C20.7755102,24.1679706 21.869898,23.9706487 22.9311224,24.0035357 C24.0255102,24.0035357 25.119898,24.1679706 26.1811224,24.4639534 C27.1760204,24.7270493 28.1377551,25.1545801 29,25.6807718 L27.4081633,28.9694701 C26.6454082,28.5748263 25.7831633,28.1801825 24.8877551,27.8841997 Z" id="Shape" fill="#272847"></path>
                    <path d="M40.308,39 L39.424,36.7574371 L33.44,36.7574371 L32.556,39 L28,39 L34.324,25 L38.88,25 L45,39 L40.308,39 Z M34.664,33.7459954 L38.268,33.7459954 L36.5,29.1647597 L34.664,33.7459954 Z" id="Shape" fill="#272847"></path>
                    <polygon id="Shape" fill="#272847" points="43 25 56 25 56 28.3242009 51.7005208 28.3242009 51.7005208 39 47.2994792 39 47.2994792 28.3242009 43 28.3242009"></polygon>
                    <path d="M55,27.7000674 L55,24.3277476 L42.2296984,24.3277476 L39.6024749,26.9218397 L38.5050271,24.3277476 L34.0487239,24.3277476 L30.7563805,27.6352151 L28.228925,33.3097915 C28.129157,32.7909731 27.896365,32.3045808 27.5638051,31.8830409 C27.0982212,31.2993701 26.4996133,30.845404 25.8344934,30.5535687 C25.6682135,30.4887164 25.4686775,30.3914379 25.2691415,30.3265856 L26.7656613,28.899835 L28.295437,25.689646 C27.3975251,25.268106 26.4996133,24.619583 25.5351895,24.4574523 C24.4709977,24.1656169 23.3735499,24.0034861 22.2761021,24.0034861 C21.1786543,23.97106 20.1144625,24.1656169 19.1167827,24.5547307 C18.4849188,24.8141399 17.8863109,25.1708276 17.387471,25.6572198 L17.320959,25.7220721 L17.187935,25.8517768 L17.121423,25.9166291 L17.0549111,25.9814814 L16.9883991,26.0463337 L16.8553751,26.1760383 L16.7888631,26.2408906 L16.7223511,26.3057429 L16.6558391,26.3705952 L16.5228152,26.5002998 L16.4563032,26.5651521 L16.3897912,26.6300044 L16.3232792,26.6948567 L16.1902552,26.8245613 L16.1237432,26.8894136 L16.0572312,26.9542659 L15.9907193,27.0191182 L15.8576953,27.1488228 L15.7911833,27.2136751 L15.7246713,27.2785274 L15.6581593,27.3433797 L15.5251353,27.4730843 L15.4586234,27.5379366 L15.3921114,27.6027889 L15.3255994,27.6676412 L15.1925754,27.7973458 L15.1260634,27.8621981 L15.0595514,27.9270504 L14.9930394,27.9919027 L14.9265275,28.056755 L14.8600155,28.1216073 L14.7269915,28.2513119 L14.6604795,28.3161642 L14.5939675,28.3810165 L14.5274555,28.4458688 L14.3944316,28.5755734 L14.3279196,28.6404257 L14.2614076,28.705278 L14.1948956,28.7701304 L14.0618716,28.899835 C13.8955916,29.0619657 13.7293117,29.2240965 13.5962877,29.4186534 C13.0974478,30.1320287 12.8313998,30.9751086 12.8646558,31.8181886 C12.8646558,32.6288423 13.1307038,33.40707 13.6627997,34.055593 C14.0286156,34.5095591 14.4941995,34.8986729 15.0262954,35.1580821 L13.6295437,36.4875543 L12,39.6977433 C12.9644238,40.4435447 14.0618716,41.0272155 15.2590874,41.3839031 C16.4563032,41.7730169 17.7200309,42 18.9837587,42 L47.2513534,42 L50.7764888,38.4979757 L50.7764888,30.9102563 L51.7409126,30.9102563 L55,27.7000674 Z" id="Shape" fill="#CD4B53"></path>
                    <path d="M24.8877551,27.8841997 C24.1581633,27.6211038 23.3954082,27.4566689 22.5994898,27.4237819 C22.3010204,27.4237819 21.9693878,27.4895559 21.7372449,27.6539908 C21.5382653,27.7855387 21.4056122,28.0157476 21.4056122,28.2788435 C21.4056122,28.6734873 21.6709184,29.0352441 22.0357143,29.166792 C22.6658163,29.4298879 23.3290816,29.6600968 23.9923469,29.8245317 C24.8545918,30.0547406 25.6836735,30.3507234 26.5127551,30.6795933 C27.1760204,30.9755761 27.7729592,31.4359939 28.2372449,32.0279596 C28.7678571,32.7185862 29,33.5407608 28.9668367,34.3958224 C29,35.3166579 28.7015306,36.2046064 28.1709184,36.9281201 C27.6071429,37.6516337 26.877551,38.1778254 26.0153061,38.4738083 C25.0535714,38.8355651 24.0255102,39 22.9642857,39 C21.7040816,39 20.4438776,38.7697911 19.2168367,38.3751473 C18.0561224,37.9805035 16.9617347,37.4214248 16,36.6650242 L17.625,33.4092129 C18.4209184,34.0669525 19.3163265,34.6260312 20.3112245,34.9877881 C21.1734694,35.3824319 22.1020408,35.6126407 23.0306122,35.6455277 C23.4285714,35.6784147 23.7933673,35.5797538 24.125,35.3824319 C24.3903061,35.2179969 24.5229592,34.9220141 24.5229592,34.6260312 C24.5229592,34.2313874 24.2576531,33.8696306 23.8928571,33.7051957 C23.2627551,33.4092129 22.5994898,33.211891 21.9030612,33.047456 C21.0408163,32.8501342 20.2117347,32.5541513 19.4158163,32.2252815 C18.752551,31.9292986 18.1556122,31.5017678 17.6913265,30.9098021 C17.1938776,30.2520625 16.9285714,29.4298879 16.9617347,28.5748263 C16.9285714,27.7197648 17.1938776,26.8647032 17.6913265,26.1411896 C18.2219388,25.417676 18.9515306,24.8585972 19.7806122,24.5626144 C20.7755102,24.1679706 21.869898,23.9706487 22.9311224,24.0035357 C24.0255102,24.0035357 25.119898,24.1679706 26.1811224,24.4639534 C27.1760204,24.7270493 28.1377551,25.1545801 29,25.6807718 L27.4081633,28.9694701 C26.6454082,28.5748263 25.7831633,28.1801825 24.8877551,27.8841997 Z" id="Shape" fill="#272847"></path>
                    <path d="M40.308,39 L39.424,36.7574371 L33.44,36.7574371 L32.556,39 L28,39 L34.324,25 L38.88,25 L45,39 L40.308,39 Z M34.664,33.7459954 L38.268,33.7459954 L36.5,29.1647597 L34.664,33.7459954 Z" id="Shape" fill="#272847"></path>
                    <polygon id="Shape" fill="#272847" points="43 25 56 25 56 28.3242009 51.7005208 28.3242009 51.7005208 39 47.2994792 39 47.2994792 28.3242009 43 28.3242009"></polygon>
                </g>
                <g id="ACT" transform="translate(59.000000, 83.000000)" fill-rule="nonzero">
                    <circle id="Oval-4" fill="#F6F7FA" cx="23" cy="23" r="23"></circle>
                    <g transform="translate(4.000000, 15.000000)" id="Shape">
                        <path d="M38,3.08899945 L38,0.228158671 L27.3020528,0.228158671 L26.1319648,1.38349822 C26.1319648,1.38349822 25.21261,0.805828444 24.6832845,0.585763768 C22.7331378,-0.266986848 20.4765396,-0.184462595 18.5821114,0.805828444 C18.0806452,1.08090929 17.6070381,1.4110063 17.1891496,1.82362757 L17.1334311,1.87864374 L17.1055718,1.9336599 L17.0498534,1.98867607 L16.9941349,2.04369224 L16.8826979,2.15372458 L16.8269795,2.20874075 L16.771261,2.26375692 L16.7155425,2.31877309 L16.6041056,2.42880542 L16.5483871,2.48382159 L16.4369501,2.59385393 L16.3812317,2.6488701 L16.3255132,2.70388627 L16.2697947,2.75890244 L16.1583578,2.86893477 L16.1026393,2.92395094 L16.0469208,2.97896711 L15.9912023,3.03398328 L15.8797654,3.14401562 L15.8240469,3.19903179 L15.7683284,3.25404796 L15.71261,3.30906413 L15.5454545,3.47411263 L15.4897361,3.5291288 L15.4340176,3.58414497 L15.3782991,3.63916114 L14.9325513,4.07929049 L14.8768328,4.13430666 L14.8211144,4.18932283 L14.7653959,4.244339 L14.6539589,4.35437133 L14.5982405,4.4093875 L14.542522,4.46440367 L14.4868035,4.51941984 L14.431085,4.57443601 C14.1803519,4.82200877 13.957478,5.06958153 13.7346041,5.34466237 L11.7008798,0.228158671 L7.99560117,0.228158671 L5.18181818,3.03398328 L0,15 L31.6759531,15 L34.4618768,12.2491916 L34.4340176,5.81229981 L35.2697947,5.81229981 L38,3.08899945 Z" fill="#CD4B53"></path>
                        <path d="M13.136,13 L12.408,11.0778032 L7.48,11.0778032 L6.752,13 L3,13 L8.236,1 L11.96,1 L17,13 L13.136,13 Z M8.488,8.49656751 L11.456,8.49656751 L10,4.56979405 L8.488,8.49656751 Z" fill="#272847"></path>
                        <path d="M23.4321913,3.53740784 C22.9430562,3.25258902 22.3963759,3.08169773 21.8496955,3.08169773 C21.3030151,3.08169773 20.7851074,3.22410714 20.324745,3.50892595 C19.8643826,3.79374477 19.4903381,4.220973 19.2601569,4.70516499 C19.0012031,5.24632075 18.8573398,5.81595838 18.8573398,6.4140779 C18.8573398,7.01219742 18.9724304,7.58183505 19.2601569,8.12299081 C19.5191108,8.6071828 19.8643826,9.00592915 20.324745,9.31922985 C20.7851074,9.60404866 21.3030151,9.74645807 21.8496955,9.74645807 C22.3963759,9.74645807 22.9142836,9.60404866 23.374646,9.34771173 C23.9213264,9.09137479 24.4104614,8.72111033 24.8420512,8.2938821 L27,10.5724326 C26.3094564,11.3129616 25.4750495,11.9110811 24.525552,12.3383093 C22.5402391,13.2782114 20.2096544,13.2212477 18.2531141,12.1389361 C17.2460714,11.5977804 16.4404371,10.7718058 15.8649841,9.80342184 C15.2895311,8.77807409 14.9730319,7.63879882 15.0018046,6.47104166 C14.9730319,5.30328451 15.2895311,4.16400924 15.8937568,3.16714337 C16.4692098,2.19875939 17.3036167,1.4012667 18.3106594,0.860110946 C20.2959723,-0.193718681 22.5977844,-0.279164327 24.6406426,0.603774009 C25.5325948,0.974038473 26.338229,1.51519423 27,2.22724127 L24.8420512,4.76212875 C24.4680067,4.24945488 24.0076443,3.85070854 23.4321913,3.53740784 Z" fill="#272847"></path>
                        <polygon fill="#272847" points="27 1 38 1 38 3.84931507 34.3333333 3.84931507 34.3333333 13 30.609375 13 30.609375 3.84931507 27 3.84931507"></polygon>
                    </g>
                </g>
                <g id="GRE" transform="translate(270.000000, 173.000000)" fill-rule="nonzero">
                    <circle id="Oval-4" fill="#F6F7FA" cx="23" cy="23" r="23"></circle>
                    <g transform="translate(6.000000, 16.000000)" id="Shape">
                        <path d="M33.1904762,10.4660163 L33.1904762,8.14319784 L30.8076797,8.11973503 L30.8076797,8.09627221 L30.8563082,8.09627221 L30.8563082,8.04934659 L30.9049367,8.04934659 L30.9049367,8.00242097 L30.9535652,8.00242097 L30.9535652,7.95549534 L31.0021937,7.95549534 L31.0021937,7.90856972 L31.0508222,7.90856972 L31.0508222,7.86164409 L31.0994507,7.86164409 L31.0994507,7.81471847 L31.1480792,7.81471847 L31.1480792,7.76779284 L31.1967077,7.76779284 L31.1967077,7.72086722 L31.2453362,7.72086722 L31.2453362,7.67394159 L31.2939647,7.67394159 L31.2939647,7.62701597 L31.3425932,7.62701597 L31.3425932,7.58009034 L31.3912217,7.58009034 L31.3912217,7.53316472 L31.4398502,7.53316472 L31.4398502,7.50970191 L31.4884787,7.50970191 L31.4884787,7.46277628 L31.5371072,7.46277628 L31.5371072,7.41585066 L31.5857357,7.41585066 L31.5857357,7.36892503 L31.6343642,7.36892503 L31.6343642,7.32199941 L31.6829927,7.32199941 L31.6829927,7.27507378 L31.7316212,7.27507378 L31.7316212,7.22814816 L31.7802497,7.22814816 L31.7802497,7.18122253 L31.8288782,7.18122253 L31.8288782,7.13429691 L31.8775067,7.13429691 L31.8775067,7.08737128 L31.9261352,7.08737128 L31.9261352,7.04044566 L31.9747637,7.04044566 L31.9747637,6.99352003 L32.0233922,6.99352003 L32.0233922,6.94659441 L32.0720207,6.94659441 L32.0720207,6.89966878 L32.1206492,6.89966878 L32.1206492,6.85274316 L32.1692777,6.85274316 L32.1692777,6.80581753 L32.2179062,6.80581753 L32.2179062,6.75889191 L32.2665347,6.75889191 L32.2665347,6.71196629 L32.3151632,6.71196629 L32.3151632,6.66504066 L32.3637917,6.66504066 L32.3637917,6.61811504 L32.4124202,6.61811504 L32.4124202,6.57118941 L32.4610487,6.57118941 L32.4610487,6.52426379 L32.5096772,6.52426379 L32.5096772,6.47733816 L32.5096772,4.15451974 L31.3669074,4.15451974 L31.4155359,4.0841313 L31.4641644,4.03720568 L31.5127929,3.99028005 L31.5614214,3.94335443 L31.6100499,3.8964288 L31.6586784,3.84950318 L31.7073069,3.80257755 L31.7559354,3.75565193 L31.8045639,3.7087263 L33.0202764,2.53558568 L33.0202764,0.189304447 L24.3644034,0.189304447 L24.3644034,0.236230071 L24.3157749,0.236230071 L24.3157749,0.283155696 L24.2671464,0.283155696 L24.2671464,0.330081321 L24.2185179,0.330081321 L24.2185179,0.377006945 L24.1698894,0.377006945 L24.1698894,0.42393257 L24.1212609,0.42393257 L24.1212609,0.470858195 L24.0726324,0.470858195 L24.0726324,0.51778382 L24.0240039,0.51778382 L24.0240039,0.564709444 L23.9753754,0.564709444 L23.9753754,0.611635069 L23.9267469,0.611635069 L23.9267469,0.658560694 L23.8781184,0.658560694 L23.8781184,0.705486319 L23.8294899,0.705486319 L23.8294899,0.752411943 L23.7808614,0.752411943 L23.7808614,0.799337568 L23.7322329,0.799337568 L23.7322329,0.846263193 L23.6836044,0.846263193 L23.6836044,0.893188818 L23.6349759,0.893188818 L23.6349759,0.940114442 L23.5863474,0.940114442 L23.5863474,0.987040067 L23.5377189,0.987040067 L23.5377189,1.03396569 L23.4890904,1.03396569 L23.4890904,1.08089132 L23.4404619,1.08089132 L23.4404619,1.12781694 L23.3918334,1.12781694 L23.3918334,1.17474257 L23.3432049,1.17474257 L23.3432049,1.22166819 L23.2945764,1.22166819 L23.2945764,1.26859382 L23.2459479,1.26859382 L23.2459479,1.31551944 L23.1973194,1.31551944 L23.1973194,1.36244506 L23.1486909,1.36244506 L23.1486909,1.40937069 L23.1000624,1.40937069 L23.1000624,1.45629631 L23.0514339,1.45629631 L23.0514339,1.50322194 L23.0028054,1.50322194 L23.0028054,1.55014756 L22.9541769,1.55014756 L22.9541769,1.59707319 L22.9055484,1.59707319 L22.9055484,1.64399881 L22.8569199,1.64399881 L22.8569199,1.69092444 L22.8082914,1.69092444 L22.8082914,1.73785006 L22.7596629,1.73785006 L22.7596629,1.78477569 L22.7110344,1.78477569 L22.7110344,1.83170131 L22.6624059,1.83170131 C22.4922062,1.57361038 22.2976922,1.36244506 22.0545497,1.17474257 C21.2764937,0.51778382 20.1823524,0.189304447 18.7721259,0.189304447 L13.812019,0.189304447 L13.812019,0.236230071 L13.7633905,0.236230071 L13.7633905,0.283155696 L13.714762,0.283155696 L13.714762,0.330081321 L13.6661335,0.330081321 L13.6661335,0.377006945 L13.617505,0.377006945 L13.617505,0.42393257 L13.5688765,0.42393257 L13.5688765,0.470858195 L13.520248,0.470858195 L13.520248,0.51778382 L13.4716195,0.51778382 L13.4716195,0.564709444 L13.422991,0.564709444 L13.422991,0.611635069 L13.3743625,0.611635069 L13.3743625,0.658560694 L13.325734,0.658560694 L13.325734,0.705486319 L13.2771055,0.705486319 L13.2771055,0.752411943 L13.228477,0.752411943 L13.228477,0.799337568 L13.1798485,0.799337568 L13.1798485,0.846263193 L13.13122,0.846263193 L13.13122,0.893188818 L13.0825915,0.893188818 L13.0825915,0.940114442 L13.033963,0.940114442 L13.033963,0.987040067 L12.9853345,0.987040067 L12.9853345,1.03396569 L12.936706,1.03396569 L12.936706,1.08089132 L12.8880775,1.08089132 L12.8880775,1.12781694 L12.839449,1.12781694 L12.839449,1.17474257 L12.7908205,1.17474257 L12.7908205,1.22166819 L12.742192,1.22166819 L12.742192,1.26859382 L12.6935635,1.26859382 L12.6935635,1.31551944 L12.644935,1.31551944 L12.644935,1.36244506 L12.5963065,1.36244506 L12.5963065,1.40937069 L12.5719922,1.40937069 C12.0370787,0.987040067 11.4049082,0.682023506 10.7484235,0.447395383 C9.97036745,0.165841634 9.1679972,0.0250647599 8.3413127,0.00160194756 C7.29579995,-0.0218608648 6.25028721,0.212767259 5.30203146,0.682023506 C4.76711796,0.963577255 4.25651871,1.31551944 3.84317646,1.73785006 L3.79454796,1.78477569 L3.74591946,1.83170131 L3.69729096,1.87862694 L3.64866246,1.92555256 L3.60003396,1.97247819 L3.55140546,2.01940381 L3.50277696,2.06632944 L3.45414846,2.11325506 L3.35689146,2.20710631 L3.30826296,2.25403193 L3.25963446,2.30095756 L3.21100596,2.34788318 L3.11374896,2.44173443 L3.06512046,2.48866006 L3.01649196,2.53558568 L2.96786346,2.58251131 L2.91923496,2.62943693 L2.87060646,2.67636256 L2.77334946,2.77021381 L2.72472096,2.81713943 L2.67609246,2.86406506 L2.62746396,2.91099068 L2.53020696,3.00484193 L2.48157846,3.05176756 L2.43294996,3.09869318 L2.38432146,3.14561881 L2.28706446,3.23947005 L2.23843596,3.28639568 L2.18980746,3.3333213 L2.14117896,3.38024693 L2.04392196,3.47409818 L1.99529346,3.5210238 L1.94666496,3.56794943 L1.89803646,3.61487505 L1.80077946,3.7087263 L1.75215096,3.75565193 L1.70352246,3.80257755 L1.65489396,3.84950318 L1.55763696,3.94335443 L1.50900846,3.99028005 L1.46037996,4.03720568 L1.41175146,4.0841313 C1.16860896,4.34222224 0.925466458,4.62377598 0.730952458,4.90532973 C0.244667459,5.74999098 -0.0227892912,6.68850347 0.00152495881,7.65047878 C-0.0227892912,8.61245409 0.244667459,9.55096658 0.755266708,10.3956278 C1.24155171,11.1933634 1.94666496,11.8503222 2.79766371,12.2961156 C3.69729096,12.7653719 4.69417521,13 5.71537371,13 L30.5159087,12.9765372 L33.1904762,10.4660163 Z" fill="#CD4B53"></path>
                        <path d="M10.0578279,5.48794481 L12.8052003,5.48794481 L12.8052003,9.94707598 C12.1428873,10.3979994 11.406984,10.7487175 10.6465505,10.9741792 C9.86158699,11.2246922 9.02756323,11.375 8.21806957,11.375 C7.18780492,11.375 6.18207038,11.124487 5.27445628,10.623461 C4.4159024,10.1474864 3.70452919,9.44605 3.21392697,8.59430585 C2.67426454,7.71751039 2.42896343,6.69040715 2.42896343,5.6633039 C2.40443332,3.58404611 3.53281841,1.65509612 5.34804661,0.728198065 C6.30472093,0.227172091 7.3595157,-0.0233408956 8.41431046,0.00171040309 C9.24833423,0.00171040309 10.082358,0.152018195 10.8673215,0.452633779 C11.627755,0.728198065 12.3391282,1.15407014 12.952381,1.68014741 L11.1371528,3.909713 C10.7692011,3.53394352 10.3276591,3.23332793 9.83705688,3.03291754 C9.37098478,2.83250715 8.88038256,2.70725066 8.38978035,2.70725066 C7.89917813,2.70725066 7.40857592,2.83250715 7.01609414,3.10807144 C6.59908226,3.35858443 6.25566071,3.73435391 6.03488971,4.18527728 C5.78958861,4.66125196 5.66693805,5.16227793 5.69146816,5.6883552 C5.69146816,6.21443247 5.81411872,6.74050975 6.05941982,7.21648442 C6.28019082,7.6674078 6.62361237,8.04317728 7.04062426,8.29369026 C7.45763614,8.54420325 7.94823835,8.69451104 8.43884057,8.69451104 C9.00303312,8.66945974 9.56722567,8.51915195 10.0578279,8.24358767 L10.0578279,5.48794481 Z" fill="#272847"></path>
                        <path d="M20.7663949,11.3508847 L19.3683091,8.50527968 L17.7050691,8.50527968 L17.7050691,11.3508847 L14.5714286,11.3508847 L14.5714286,0.8125 L19.4888337,0.8125 C20.9110245,0.8125 21.9957462,1.15011416 22.7671039,1.80122717 C23.5384615,2.45234018 23.9241404,3.36872146 23.9241404,4.5744863 C23.9482453,5.27382991 23.7795108,5.97317352 23.4661468,6.57605594 C23.1527827,7.13070776 22.6947891,7.6130137 22.1403758,7.92651256 L24.2857143,11.375 L20.7663949,11.375 L20.7663949,11.3508847 Z M17.7291741,6.1178653 L19.5129387,6.1178653 C19.9227224,6.14198059 20.3084013,5.99728881 20.5976604,5.73202055 C20.8628146,5.44263699 21.0074442,5.05679224 20.9833392,4.64683219 C21.0074442,4.26098744 20.8628146,3.87514269 20.5976604,3.58575913 C20.3084013,3.32049087 19.8986175,3.19991438 19.5129387,3.22402968 L17.7291741,3.22402968 L17.7291741,6.1178653 Z" fill="#272847"></path>
                        <polygon fill="#272847" points="25.0952381 0.8125 33.8532182 0.8125 33.8532182 3.22402968 28.2755102 3.22402968 28.2755102 4.88798516 33.3150183 4.88798516 33.3150183 7.29951484 28.2755102 7.29951484 28.2755102 8.96347032 34 8.96347032 34 11.375 25.0952381 11.375 25.0952381 0.8125"></polygon>
                    </g>
                </g>
            </g>
        </g>
    </g>
</svg>