<?xml version="1.0" encoding="UTF-8"?>
<svg width="313px" height="163px" viewBox="0 0 313 163" version="1.1" xmlns="http://www.w3.org/2000/svg" xmlns:xlink="http://www.w3.org/1999/xlink">
    <!-- Generator: Sketch 51.3 (57544) - http://www.bohemiancoding.com/sketch -->
    <title>admission support</title>
    <desc>Created with Sketch.</desc>
    <defs>
        <polygon id="path-1" points="5.87833626e-06 6.34894587e-05 203.070121 6.34894587e-05 203.070121 256.427025 5.87833626e-06 256.427025"></polygon>
        <path d="M279.60293,292.450637 C284.112892,289.038076 288.733775,276.71179 273.702927,267.434625 C251.518917,253.746619 265.601043,227.954166 265.601043,227.954166 C265.601043,227.954166 279.94749,206.643356 265.103083,187.598147 C250.258676,168.552937 201.316972,159.129453 203.122373,102.166105 C204.927774,45.2027577 141.306863,21.2369461 102.581605,48.5492393 C59.3511037,79.0357341 58.7894234,147.669287 103.848925,171.505299 C121.463974,180.824943 133.62506,185.176785 176.42368,204.486315 C219.222301,223.795844 200.226652,261.060262 233.346908,285.280954 C262.610922,306.662564 275.088248,295.863199 279.60293,292.450637 Z" id="path-3"></path>
        <filter x="-5.1%" y="-4.2%" width="110.3%" height="108.4%" filterUnits="objectBoundingBox" id="filter-4">
            <feGaussianBlur stdDeviation="8.5" in="SourceAlpha" result="shadowBlurInner1"></feGaussianBlur>
            <feOffset dx="0" dy="5" in="shadowBlurInner1" result="shadowOffsetInner1"></feOffset>
            <feComposite in="shadowOffsetInner1" in2="SourceAlpha" operator="arithmetic" k2="-1" k3="1" result="shadowInnerInner1"></feComposite>
            <feColorMatrix values="0 0 0 0 0.0563964524   0 0 0 0 0.0651195835   0 0 0 0 0.143627764  0 0 0 1 0" type="matrix" in="shadowInnerInner1"></feColorMatrix>
        </filter>
    </defs>
    <g id="Page-1" stroke="none" stroke-width="1" fill="none" fill-rule="evenodd">
        <g id="Form--Desktop-2-Interests--Admission-support" transform="translate(-272.000000, -130.000000)">
            <g id="admission-support" transform="translate(246.000000, 61.000000)">
                <g id="Group-3" transform="translate(163.025945, 161.595531) rotate(-122.000000) translate(-163.025945, -161.595531) translate(61.025945, 33.095531)">
                    <mask id="mask-2" fill="white">
                        <use xlink:href="#path-1"></use>
                    </mask>
                    <g id="Clip-2"></g>
                    <path d="M4.52317348,251.239438 C0.055726091,248.049885 -4.75403394,236.217053 9.57412352,226.832133 C30.7563896,212.957453 16.3941346,188.308281 16.3941346,188.308281 C16.3941346,188.308281 1.90618666,168.021922 15.8074562,149.164557 C29.7087257,130.307359 76.952383,119.8641 73.6868742,64.6655419 C70.4215325,9.4669839 131.527849,-15.4594681 169.835943,10.0001629 C212.59711,38.4193382 214.964716,104.964319 171.870931,129.279086 C155.022898,138.78544 143.336966,143.327985 102.315109,163.190907 C61.2932512,183.053661 80.7174878,218.691466 49.2126904,243.058681 C21.3977826,264.572253 8.99062087,254.42899 4.52317348,251.239438" id="Fill-1" fill="#F6F7FA" mask="url(#mask-2)"></path>
                </g>
                <g id="Shape" fill-rule="nonzero" transform="translate(177.047328, 167.738926) rotate(-47.000000) translate(-177.047328, -167.738926) ">
                    <use fill="#2C3054" xlink:href="#path-3"></use>
                    <use fill="black" fill-opacity="1" filter="url(#filter-4)" xlink:href="#path-3"></use>
                </g>
                <g id="Uni-admi-support" transform="translate(114.000000, 69.000000)" fill-rule="nonzero">
                    <polygon id="Shape" fill="#062C5F" points="11.4756836 22.7939568 15.9198391 22.0772867 19.9572252 10.859075 15.286555 11.6831655"></polygon>
                    <polygon id="Shape" fill="#062C5F" points="8.41454424 24.2240904 11.2140751 23.3021994 11.7309115 20.3473381 10.0815013 12.5569579 5.97073727 14.0560329"></polygon>
                    <path d="M29.0529088,110.753587 C32.2294325,96.2630627 35.2985478,81.7479548 38.2602547,67.2082631 C41.0948794,53.2388078 44.2597051,39.2613361 46.4434987,25.1716341 C46.6377475,24.0536128 46.7724656,22.9259645 46.8470777,21.7935046 C46.8444905,21.5590547 46.6560248,21.3696302 46.4227614,21.3670298 C38.5697185,21.3670298 30.7166756,21.5914902 22.8652279,21.7181501 C15.4221448,21.8367934 7.88016086,22.2680781 0.441863271,21.8977184 C0.208243101,21.8994643 0.0192839417,22.0893846 0.0175469169,22.3241932 C-0.169088472,27.6695581 1.19,33.3083248 2.0450134,38.5494758 C3.28127346,46.139445 4.65312332,53.7101747 6.02337802,61.272888 C7.77806971,70.9984378 9.37324397,80.7528469 11.1710054,90.4703803 C13.4797542,102.910832 15.8459294,115.339527 18.2695308,127.756465 C19.1872878,132.489373 20.1077033,137.222816 21.0307775,141.956793 C21.4024531,143.861501 21.620992,145.896074 22.1713271,147.760699 C22.3069169,148.219239 23.0071984,148.135868 23.004008,147.646865 C22.9928418,145.613895 23.4825603,143.507174 23.7808579,141.504666 C24.3471448,137.735334 24.9612869,133.969209 25.585,130.214306 C26.6617426,123.720987 27.6587265,117.184378 29.0529088,110.753587 C29.1693566,110.218088 28.3526273,109.988818 28.2361796,110.52592 C26.8005228,117.113834 25.7923727,123.812374 24.6885121,130.459609 C24.0711796,134.182446 23.4697989,137.908489 22.9114879,141.639342 C22.6179759,143.593751 22.1458043,145.663597 22.1569705,147.646865 L22.9896515,147.534635 C22.2590617,145.062364 21.9703351,142.364029 21.4774263,139.838849 C20.2672207,133.626639 19.0633959,127.413361 17.8659517,121.199013 C15.1334182,107.022734 12.394504,92.844851 9.86774799,78.6300925 C8.47835121,70.8156629 7.17828418,62.9852004 5.77931635,55.1723741 C4.61164879,48.671038 0.713042895,26.7268243 0.86458445,22.3241932 L0.441863271,22.7490647 C7.72064343,23.111408 15.0967292,22.6929496 22.3786997,22.5775128 C30.3912601,22.4492497 38.4086059,22.2263926 46.4227614,22.2199794 L45.998445,21.7935046 C45.8804021,24.3315108 45.3236863,26.8775334 44.8818231,29.3706475 C44.1608043,33.3981089 43.3680027,37.4095375 42.5704155,41.4193628 C41.1347587,48.6566084 39.6065818,55.8778212 38.2139946,63.1246865 C35.3937265,77.7899692 32.1650938,92.3879137 29.0098391,106.981048 C28.7546113,108.164275 28.4977882,109.345899 28.23937,110.52592 C28.1181367,111.061418 28.9364611,111.289085 29.0529088,110.753587 Z" id="Shape" fill="#FDD13C"></path>
                    <polygon id="Shape" fill="#FDD13C" points="46.4227614 22.2199794 0.0175469169 22.3241932 22.1569705 147.646865"></polygon>
                    <path d="M28.3941019,103.917163 C31.2324486,90.9914491 33.9702994,78.0422199 36.6076542,65.0694758 C39.1360054,52.6055087 41.9594638,40.1367318 43.9071716,27.5669476 C44.0814736,26.5695101 44.2018201,25.5633045 44.267681,24.5527646 C44.2650837,24.3433749 44.0963686,24.174514 43.8880295,24.1727852 C36.8836193,24.1727852 29.8760188,24.3731963 22.8732038,24.4854265 C16.2324933,24.5912436 9.50404826,24.9760329 2.86812332,24.6457554 C2.65978424,24.6474842 2.49106908,24.8163451 2.48847185,25.0257348 C2.32895442,29.795519 3.53490617,34.8266393 4.29739946,39.5018294 C5.39966488,46.272518 6.62475871,53.0239671 7.8466622,59.7738129 C9.42428954,68.4508119 10.8344236,77.1518602 12.4423592,85.822446 C14.5054513,96.9204111 16.6179937,108.008756 18.7799866,119.087482 C19.5967158,123.310545 20.4171671,127.532539 21.2413405,131.753464 C21.5731367,133.45295 21.7693432,135.269476 22.2590617,136.932086 C22.3802949,137.340925 23.0056032,137.26557 23.0024129,136.831079 C22.9928418,135.016156 23.4283244,133.143515 23.6963137,131.351038 C24.2019839,127.984132 24.7491287,124.631655 25.3058445,121.277575 C26.2629491,115.486495 27.1530563,109.653731 28.4004826,103.91556 C28.5025737,103.434573 27.7751743,103.234162 27.6714879,103.713546 C26.3953485,109.591202 25.4908847,115.56666 24.5066622,121.497225 C23.9547319,124.817636 23.4171582,128.142857 22.9194638,131.471285 C22.6578552,133.21406 22.2367292,135.061048 22.2463003,136.831079 L22.9896515,136.730072 C22.3372252,134.523947 22.0804021,132.11741 21.6417292,129.863186 C20.5602011,124.32222 19.4861171,118.779651 18.4194772,113.235478 C15.9804558,100.590339 13.538244,87.9419938 11.2826676,75.2583762 C10.0448123,68.2872765 8.88990617,61.3097636 7.6360992,54.3306475 C6.5944504,48.5315519 5.57034853,42.7276465 4.6483378,36.9077081 C4.03738606,33.059815 3.11537534,28.9537924 3.25096515,25.0257348 L2.87131367,25.4057143 C9.3652681,25.726372 15.9517426,25.354409 22.4409115,25.2453854 C29.5888874,25.1315519 36.7416488,24.9327441 43.8912198,24.9247276 L43.5147587,24.5447482 C43.407882,26.808592 42.9117828,29.0804522 42.5145845,31.3058171 C41.8765147,34.897184 41.165067,38.4773279 40.4520241,42.047852 C39.1679088,48.504296 37.8088204,54.9463104 36.5661796,61.4107708 C34.0505898,74.4952107 31.1697051,87.5187256 28.3558177,100.531017 C28.1271761,101.584913 27.8980027,102.638808 27.6682976,103.692703 C27.5662064,104.192929 28.2952011,104.396547 28.3941019,103.917163 Z" id="Shape" fill="#062C5F"></path>
                    <path d="M9.46735925,30.850483 L34.7333244,30.850483 L34.115992,35.7533402 C29.8536863,36.3401439 25.6684808,36.9280164 21.5603753,37.5169579 C21.3641689,37.5394039 20.8409517,37.6243782 19.0463807,37.7109558 L17.8101206,37.7750874 L16.9311796,37.8183762 L17.813311,37.861665 L19.0543566,37.9257965 C20.8489276,38.0123741 21.3673592,38.0765057 21.5635657,38.1181912 C25.6514656,38.7071326 29.6627971,39.2950051 33.5975603,39.8818088 L32.9802279,44.7782528 L11.2188606,44.7782528 L10.847185,41.7608633 L23.4331099,41.7608633 L26.1784048,41.8249949 C26.7718097,41.8458376 27.4880429,41.8458376 28.9221046,41.8682837 C27.8054826,41.7608633 27.5279223,41.7384173 26.189571,41.5893114 C24.7252011,41.4386023 23.9419705,41.3520247 23.4410858,41.2686536 C19.2266354,40.6155807 14.9223235,39.9635766 10.5281501,39.3126413 C10.4015996,38.3111202 10.2750492,37.3085303 10.1484987,36.3048715 C14.5182127,35.6464543 18.9799151,34.988037 23.5336059,34.3296197 C23.873378,34.2863309 24.4444504,34.2430421 26.5229625,34.0282014 L28.3685791,33.8358068 L29.5314611,33.7492292 L28.0335925,33.7492292 C27.4545442,33.7492292 26.9440885,33.7492292 26.5357239,33.7716752 L23.5399866,33.8566495 L9.84541555,33.8566495 L9.46735925,30.850483 Z" id="Shape" fill="#062C5F"></path>
                    <polygon id="Shape" fill="#062C5F" points="11.415067 46.3142035 32.7904021 46.3142035 32.3740617 49.6217883 11.8314075 49.6217883"></polygon>
                    <path d="M14.3454021,51.1673587 L29.8823995,51.1673587 C30.5885299,51.7541624 31.2797721,52.3420349 31.956126,52.9309764 L31.2654155,58.3597122 C30.4944147,58.9529291 29.7414924,59.5472148 29.0066488,60.1425694 L24.9150268,60.1425694 C24.7778418,59.0330935 24.6316175,57.9230832 24.4763539,56.8125385 L28.0080697,56.8125385 L28.1947051,54.4717369 L16.0059786,54.4717369 C16.0687221,55.2669681 16.1314656,56.061665 16.1942091,56.8558273 L20.2698794,56.8558273 C20.4825693,57.95889 20.6915371,59.0614183 20.8967828,60.1634121 L15.1685121,60.1634121 C14.4411126,59.5830216 13.6966979,59.0031655 12.9352681,58.4238438 C12.7034361,56.5907503 12.4726676,54.7581912 12.2429625,52.9261665 C12.9288874,52.3415005 13.6297006,51.7552312 14.3454021,51.1673587 Z" id="Shape" fill="#062C5F"></path>
                    <path d="M13.3532038,61.7137924 L30.8458847,61.7137924 C30.7086997,62.8083042 30.570983,63.9033505 30.4327346,64.9989311 L24.422118,64.9989311 C24.3923414,65.8540185 24.3625648,66.7133813 24.3327882,67.5770195 L30.107319,67.5770195 L29.6909786,70.8846043 L14.5160858,70.8846043 C14.3767739,69.7751285 14.237462,68.6651182 14.0981501,67.5545735 L20.9191153,67.5545735 L20.8712601,64.9989311 L13.7679491,64.9989311 C13.6286372,63.9044193 13.4903887,62.8093731 13.3532038,61.7137924 Z" id="Shape" fill="#062C5F"></path>
                    <path d="M14.701126,72.409332 L29.4995576,72.409332 C29.3591823,73.5123947 29.2198704,74.6149229 29.081622,75.7169168 L15.1174665,75.7169168 L14.701126,72.409332 Z" id="Shape" fill="#062C5F"></path>
                    <path d="M16.8562064,77.2624872 L27.342882,77.2624872 C27.8022922,77.8364645 28.2452189,78.4093731 28.6716622,78.9812127 C28.4260054,80.9211922 28.181412,82.8611716 27.937882,84.8011511 C27.4359339,85.3676465 26.948874,85.933073 26.4767024,86.4974306 L24.2913137,86.4974306 C24.2317605,85.3954368 24.163168,84.293443 24.0855362,83.1914491 L25.979008,83.1914491 C26.0491957,82.3171223 26.1199151,81.4433299 26.1911662,80.5700719 L18.0254692,80.5700719 C18.0935299,81.4379856 18.1631859,82.304296 18.234437,83.1690031 L21.2014611,83.1690031 C21.1902949,82.5886125 21.1791287,82.0098253 21.1695576,81.4294347 L23.4490617,81.4294347 C23.4043968,83.1193011 23.3586685,84.8086331 23.3118767,86.4974306 L17.739933,86.4974306 C17.2613807,85.9106269 16.7658132,85.3227544 16.2532306,84.7338129 C16.0118275,82.8226927 15.7714879,80.911038 15.5322118,78.9988489 C15.9565282,78.4227338 16.3978597,77.8439466 16.8562064,77.2624872 Z" id="Shape" fill="#062C5F"></path>
                    <path d="M16.5515282,87.1002672 C20.3735657,88.08148 23.9488829,89.0621583 27.2774799,90.0423022 C27.06479,91.6968962 26.8568856,93.3504214 26.6537668,95.0028777 C23.4953217,95.9776773 20.5825335,96.951408 17.9154021,97.9240699 L17.465563,94.3599589 C18.0642851,94.1803905 18.6720465,94.0013566 19.2888472,93.8228571 C19.2239768,92.9549435 19.1591063,92.0886331 19.0942359,91.223926 C18.4051206,91.0443577 17.7096247,90.8663926 17.0029625,90.6868243 C16.8530161,89.4907708 16.702538,88.2952518 16.5515282,87.1002672 Z M20.9940885,91.3521891 C21.0164209,92.1249743 21.0382216,92.8982939 21.0594906,93.672148 C22.0165952,93.3707297 22.9960322,93.0698458 23.9978016,92.7694964 C24.5140144,92.6534636 25.0365247,92.5678093 25.5626676,92.5129702 C25.0433839,92.4694579 24.5285365,92.3831241 24.0233244,92.2548407 C23.0364433,91.9534224 22.0266979,91.6525385 20.9940885,91.3521891 Z" id="Shape" fill="#062C5F"></path>
                    <path d="M17.9935657,98.5477492 L26.207118,98.5477492 C26.0465371,99.8228983 25.8870197,101.096978 25.7285657,102.36999 C24.3898484,103.405171 23.1115904,104.517024 21.9001475,105.700021 C21.8554826,105.743309 21.6592761,105.849126 21.3418365,106.086413 C21.28244,106.118038 21.2253966,106.153938 21.1711528,106.193834 C21.0578954,106.278808 20.9462332,106.365385 20.8361662,106.451963 C21.0738472,106.386228 21.2541019,106.344543 21.3753351,106.301254 C21.5582352,106.221469 21.7499448,106.163878 21.9464075,106.129702 L25.2516086,106.129702 L24.8735523,109.135868 L19.3271314,109.135868 L18.8485791,105.334471 C19.947372,104.158227 21.1195358,103.053466 22.3579625,102.026886 C22.5553726,101.848787 22.7799621,101.703712 23.0231501,101.597205 L23.3804692,101.425653 L23.7457641,101.210812 L23.4602279,101.274943 L23.0183646,101.40481 C22.4951475,101.553916 22.362748,101.533073 22.3101072,101.533073 L18.3684316,101.533073 C18.2461349,100.541172 18.1211796,99.5460637 17.9935657,98.5477492 Z" id="Shape" fill="#062C5F"></path>
                    <polygon id="Shape" fill="#005E34" points="107.37756 21.8335868 112.148727 21.973073 117.943995 11.7088181 113.195161 11.6382734"></polygon>
                    <polygon id="Shape" fill="#005E34" points="104.115429 21.8848921 107.047359 21.7053237 108.301166 18.9797328 108.674437 11.0242138 104.31004 11.4234327"></polygon>
                    <path d="M101.134048,110.663803 C104.314826,96.1743474 107.383941,81.6597739 110.341394,67.1200822 C113.174424,53.1506269 116.340845,39.1731552 118.523043,25.0834532 C118.71886,23.9656646 118.853589,22.8379308 118.926622,21.7053237 C118.924885,21.4705152 118.735926,21.2805948 118.502306,21.2788489 C110.650858,21.2868654 102.79622,21.5033094 94.9463673,21.6299692 C87.5032842,21.7486125 79.9613003,22.1798972 72.5230027,21.8095375 C72.2893825,21.8112834 72.1004234,22.0012038 72.0986863,22.2360123 C71.9120509,27.5813772 73.2711394,33.2201439 74.1245576,38.461295 C75.3608177,46.0512641 76.7342627,53.6187873 78.1124933,61.1847071 C79.867185,70.9102569 81.4543834,80.664666 83.2601206,90.3821994 C85.5688695,102.822652 87.9350447,115.251346 90.3586461,127.668284 C91.276403,132.401192 92.1962869,137.134635 93.1182976,141.868613 C93.4899732,143.77332 93.7101072,145.807893 94.2604424,147.672518 C94.3960322,148.131059 95.0947185,148.047688 95.0931233,147.558684 C95.0819571,145.525714 95.5716756,143.418993 95.8699732,141.416485 C96.4362601,137.647153 97.0504021,133.881028 97.6741153,130.126125 C98.7508579,123.632806 99.7478418,117.096197 101.142024,110.663803 C101.258472,110.129908 100.441743,109.900637 100.325295,110.437739 C98.8896381,117.025653 97.8814879,123.72259 96.7776273,130.371429 C96.1602949,134.094265 95.557319,137.820308 94.999008,141.551161 C94.705496,143.50557 94.2333244,145.575416 94.2444906,147.558684 L95.0771716,147.446454 C94.3481769,144.974183 94.0594504,142.275848 93.5665416,139.750668 C92.3542091,133.539527 91.1503843,127.326783 89.955067,121.112436 C87.2193432,106.939363 84.480429,92.7566701 81.9520777,78.5419116 C80.5642761,70.727482 79.2689946,62.8970195 77.8652413,55.0841932 C76.6975737,48.5828571 72.7973727,26.6386434 72.9505094,22.2360123 L72.5277882,22.6608839 C79.8065684,23.0232271 87.1826542,22.6047688 94.4646247,22.489332 C102.47559,22.3610689 110.492936,22.1382117 118.507091,22.1317986 L118.08437,21.7053237 C117.966327,24.2433299 117.409611,26.7893525 116.967748,29.2824666 C116.246729,33.3083248 115.453928,37.3213566 114.65634,41.3311819 C113.220684,48.5684275 111.692507,55.7896403 110.298324,63.0365057 C107.479651,77.7017883 104.249424,92.2981295 101.095764,106.892867 C100.840536,108.076095 100.583713,109.257718 100.325295,110.437739 C100.204062,110.973237 101.020791,111.200904 101.134048,110.663803 Z" id="Shape" fill="#005E34"></path>
                    <polygon id="Shape" fill="#005E34" points="118.507091 22.1317986 72.1034718 22.2360123 94.2413003 147.558684"></polygon>
                    <path d="M100.484812,103.828983 C103.323159,90.9032682 106.06101,77.9535046 108.698365,64.9796917 C111.226716,52.5173279 114.051769,40.0485509 115.999477,27.4787667 C116.173251,26.4813006 116.293065,25.4750949 116.358391,24.4645838 C116.357517,24.2550918 116.188767,24.0854827 115.980335,24.0846043 C108.975925,24.0846043 101.968324,24.2850154 94.9639142,24.3972456 C88.3247989,24.5030627 81.5963539,24.887852 74.9588338,24.5575745 C74.7507615,24.5593174 74.5825115,24.7284233 74.5807775,24.937554 C74.4212601,29.7073381 75.6272118,34.7384584 76.3897051,39.4136485 C77.4919705,46.1843371 78.7170643,52.9357862 79.9389678,59.6856321 C81.5102145,68.362631 82.9203485,77.0636793 84.5314745,85.7342652 C86.5913762,96.8322302 88.7023235,107.920576 90.8643164,118.999301 C91.6831725,123.222364 92.5041555,127.444358 93.3272654,131.665283 C93.6590617,133.364769 93.8552681,135.181295 94.3449866,136.843905 C94.4662198,137.252744 95.089933,137.17739 95.0883378,136.742898 C95.0787668,134.927975 95.5142493,133.055334 95.7822386,131.262857 C96.2863137,127.895951 96.8350536,124.543474 97.3917694,121.189394 C98.348874,115.398314 99.2389812,109.56555 100.484812,103.827379 C100.588499,103.346393 99.8610992,103.145982 99.7558177,103.625365 C98.4796783,109.503022 97.5752145,115.478479 96.590992,121.409044 C96.0406568,124.729455 95.5030831,128.054676 95.0053887,131.383104 C94.7437802,133.125879 94.3226542,134.972867 94.3322252,136.742898 L95.0755764,136.641891 C94.4231501,134.435766 94.1663271,132.029229 93.726059,129.775005 C92.6466577,124.234039 91.5725737,118.69147 90.503807,113.147297 C88.0663807,100.502158 85.6241689,87.8602261 83.3685925,75.1701953 C82.1291421,68.1990956 80.9758311,61.2135663 79.7220241,54.2424666 C78.6787802,48.443371 77.6562735,42.647482 76.727882,36.8195272 C76.1169303,32.9636177 75.1949196,28.8656115 75.3305094,24.937554 L74.9524531,25.3175334 C81.4464075,25.6381912 88.032882,25.2662282 94.5236461,25.1572045 C101.671622,25.043371 108.824383,24.8445632 115.973954,24.8365468 L115.595898,24.4565673 C115.490617,26.7204111 114.994517,28.9922713 114.597319,31.2160329 C113.959249,34.8090031 113.247802,38.389147 112.534759,41.9660843 C111.258619,48.4225283 109.891555,54.8645427 108.647319,61.3290031 C106.133324,74.413443 103.250845,87.4369579 100.436957,100.457266 C100.210442,101.511161 99.981269,102.565057 99.749437,103.618952 C99.6505362,104.104748 100.379531,104.308366 100.484812,103.828983 Z" id="Shape" fill="#FFFFFF"></path>
                    <path d="M83.5408713,29.1365673 L105.075724,29.1365673 C104.863034,31.2614594 104.650344,33.3852826 104.437654,35.508037 C103.629433,36.0018499 102.831845,36.4961973 102.044893,36.9910791 L86.5924397,36.9910791 C85.7948525,36.4780267 84.9866309,35.9649743 84.1677748,35.4519219 L83.5408713,29.1365673 Z M100.956984,31.9743885 L87.7170375,31.9743885 L87.8526273,34.1340185 L100.815013,34.1340185 C100.863932,33.4146763 100.911256,32.6947996 100.956984,31.9743885 Z" id="Shape" fill="#FFFFFF"></path>
                    <path d="M84.4214075,38.0155807 C91.0977435,38.8503597 97.607118,39.6862076 103.949531,40.5231244 C103.809155,41.9329496 103.669312,43.3422405 103.53,44.7509969 C97.3013762,45.5815005 91.2386506,46.4114697 85.3418231,47.2409044 C85.2418588,46.2276259 85.1418945,45.2148818 85.0419303,44.2026721 L88.7443298,43.7441316 C88.7017918,43.0066187 88.6581903,42.2685714 88.6135255,41.5299897 L84.7308713,41.0714491 C84.6255898,40.0538952 84.5224352,39.0352724 84.4214075,38.0155807 Z M92.2090483,41.6390134 L92.252118,43.6174717 C94.1535657,43.3609455 96.0677748,43.1044193 97.9947453,42.8478931 C98.5195576,42.7741418 99.776555,42.7019938 101.01122,42.6282425 C99.7350804,42.5737307 98.5339142,42.4823433 98.0122922,42.408592 C96.0959562,42.1520658 94.1615416,41.8955396 92.2090483,41.6390134 Z" id="Shape" fill="#FFFFFF"></path>
                    <path d="M85.442319,48.3215211 L103.175871,48.3215211 C102.970626,50.4025899 102.764316,52.4831244 102.556944,54.5631244 C101.882717,55.059075 101.219656,55.5534224 100.567761,56.0461665 L96.1012735,56.0461665 C95.5929446,55.6378623 95.0771716,55.2290236 94.5539544,54.8196506 C94.0520063,55.2279548 93.5564388,55.6367934 93.067252,56.0461665 L86.2080027,56.0461665 C86.1144191,55.1066393 86.0208356,54.167112 85.927252,53.2275848 L93.0417292,53.2275848 L93.0098257,51.1433094 L85.7230697,51.1433094 C85.6284227,50.2016444 85.5348391,49.2610483 85.442319,48.3215211 Z M99.8945979,51.1449126 L96.0661796,51.1449126 C96.0523548,51.84074 96.0385299,52.5354985 96.0247051,53.2291881 L99.7669839,53.2291881 L99.8945979,51.1449126 Z" id="Shape" fill="#FFFFFF"></path>
                    <path d="M99.0698928,57.0530319 L102.309692,57.0530319 C102.064035,59.5295786 101.81891,62.0066598 101.574316,64.4842754 L98.6312198,64.4842754 C98.6780116,63.7168345 98.7237399,62.9483248 98.7684048,62.1787461 L86.8173592,62.1787461 C86.7237757,61.2392189 86.6307239,60.2991572 86.5382038,59.3585612 L98.9343029,59.3585612 C98.9789678,58.585776 99.0241644,57.8172662 99.0698928,57.0530319 Z" id="Shape" fill="#FFFFFF"></path>
                    <path d="M87.1459651,65.4911408 L101.47382,65.4911408 C101.336635,66.8806578 101.198919,68.2701747 101.06067,69.6596917 C98.6572744,70.1599178 96.3059875,70.6606783 94.0068097,71.1619733 C93.5424542,71.2469414 93.0729506,71.3005046 92.6014611,71.3223022 L91.9091555,71.3784173 L91.4178418,71.4136896 L91.9123458,71.4505653 L92.6062466,71.5066804 C93.6096113,71.5788284 93.899933,71.6333402 94.01,71.6670092 C96.295353,72.1672354 98.528597,72.6679959 100.709732,73.1692909 C100.572547,74.5588078 100.43483,75.9483248 100.296582,77.3378417 L88.3216086,77.3378417 L88.0679759,74.7725797 L95.0452681,74.7725797 L96.5670643,74.8286948 C96.8956702,74.8463309 97.2928686,74.8463309 98.0872654,74.8639671 C97.469933,74.7741829 97.3152011,74.7549435 96.5750402,74.6266804 C95.7630965,74.4984173 95.3276139,74.4262693 95.0500536,74.352518 C92.7104647,73.7956423 90.3139812,73.24037 87.8606032,72.6867009 L87.6069705,70.1214388 C90.0529044,69.5602878 92.557328,68.9991367 95.1202413,68.4379856 C95.3116622,68.40111 95.6338874,68.3642343 96.8063405,68.1814594 L97.8463941,68.0211305 L98.5036059,67.9473792 L97.6581635,67.9473792 C97.3391287,67.9473792 97.0440214,67.9473792 96.8143164,67.9666187 L95.1250268,68.04037 L87.3995979,68.04037 L87.1459651,65.4911408 Z" id="Shape" fill="#FFFFFF"></path>
                    <path d="M89.808311,79.2201028 L98.806689,79.2201028 C99.2044191,79.7139157 99.5904513,80.2082631 99.9647855,80.7031449 C99.8052681,82.3064337 99.6457507,83.9049126 99.4862332,85.4985817 C99.0491555,85.9988078 98.6237757,86.4995683 98.2100938,87.0008633 L90.4080965,87.0008633 C89.9933512,86.5006372 89.5679714,85.9998767 89.1319571,85.4985817 C88.9735031,83.8952929 88.8139857,82.296814 88.6534048,80.7031449 C89.0288025,80.209332 89.4137712,79.7149846 89.808311,79.2201028 Z M97.7937534,82.0386845 L90.8068901,82.0386845 L90.9408847,84.1630421 L97.6613539,84.1630421 C97.7060188,83.4543885 97.7506836,82.7462693 97.7953485,82.0386845 L97.7937534,82.0386845 Z" id="Shape" fill="#FFFFFF"></path>
                    <path d="M90.5644236,88.847852 L99.1576273,88.847852 L98.880067,91.6487975 L91.4258177,91.6487975 L91.5630027,93.8469065 L98.6631233,93.8469065 C98.5695398,94.7864337 98.4759562,95.7259609 98.3823727,96.6654882 L91.1626139,96.6654882 C90.8169929,96.1716752 90.4591421,95.6773279 90.0890617,95.182446 C89.9295442,93.5652621 89.7700268,91.9480781 89.6105094,90.3308941 C89.9157194,89.8370812 90.2336908,89.3427338 90.5644236,88.847852 Z" id="Shape" fill="#FFFFFF"></path>
                    <path d="M96.6755362,97.6531141 L98.285067,97.6531141 L97.5480965,105.085961 L96.2368633,105.085961 C96.2815282,104.316382 96.3267248,103.547338 96.3724531,102.778828 L90.8419839,102.778828 L90.5628284,99.9602467 L96.5383512,99.9602467 C96.585143,99.190668 96.6308713,98.4216238 96.6755362,97.6531141 Z" id="Shape" fill="#FFFFFF"></path>
                    <path d="M91.1705898,106.092826 L97.4491957,106.092826 L97.1700402,108.892169 L95.1074799,108.892169 L95.0468633,111.090277 L96.9530965,111.090277 L96.6675603,113.908859 L91.9458445,113.908859 C91.8511975,112.962919 91.7576139,112.016978 91.6650938,111.071038 L93.9174799,111.071038 C93.9068454,110.345283 93.8962109,109.618993 93.8855764,108.892169 L91.4481501,108.892169 L91.1705898,106.092826 Z" id="Shape" fill="#FFFFFF"></path>
                    <polygon id="Shape" fill="#CD4B53" points="73.2567828 12.5681809 78.6787802 12.7269065 85.2620643 1.06458376 79.867185 0.98602261"></polygon>
                    <polygon id="Shape" fill="#CD4B53" points="69.5495979 12.6275026 72.8819169 12.4238849 74.3064075 9.32633094 74.7307239 0.286988695 69.7713271 0.742322713"></polygon>
                    <polygon id="Shape" fill="#CD4B53" points="46.1946515 13.5606166 51.2449732 12.7461459 55.8326944 0 50.5255496 0.936320658"></polygon>
                    <polygon id="Shape" fill="#CD4B53" points="42.7171716 15.1863515 45.8979491 14.1378006 46.4849732 10.7805139 44.6122386 1.92875642 39.9399732 3.63144913"></polygon>
                    <path d="M66.1678284,113.503227 C69.7835567,97.0427955 73.2706077,80.550298 76.6289812,64.0257348 C79.8496381,48.1531757 83.446756,32.2709969 85.927252,16.2621583 C86.1483063,14.9919226 86.3011327,13.7106425 86.385067,12.4238849 C86.385067,12.1582433 86.1708119,11.9428983 85.9065147,11.9428983 C76.9847051,11.9428983 68.0597051,12.1978212 59.1394906,12.3405139 C50.685067,12.4767934 42.1141957,12.9657965 33.6613673,12.5457348 C33.3970702,12.5457348 33.182815,12.7610799 33.182815,13.0267215 C32.9706568,19.0999794 34.5147855,25.5083248 35.4846515,31.4645427 C36.89,40.0886331 38.4500804,48.6870709 40.0069705,57.2774923 C42.007319,68.3273587 43.8034853,79.4108941 45.8548794,90.4527441 C48.4752189,104.590545 51.1625559,118.71445 53.9168901,132.82446 C54.9580071,138.201891 56.003378,143.579856 57.0530027,148.958356 C57.4757239,151.122795 57.724571,153.434738 58.3498794,155.554286 C58.5093968,156.073751 59.3069839,155.979157 59.2958177,155.424419 C59.2846515,153.11408 59.8381769,150.72037 60.1795442,148.445303 C60.8176139,144.162919 61.5210858,139.888551 62.2293432,135.618993 C63.4528418,128.243864 64.58063,120.814224 66.1694236,113.506434 C66.3002279,112.898787 65.3718365,112.639054 65.2410322,113.249908 C63.6139544,120.73406 62.4638338,128.344872 61.2100268,135.897965 C60.5081501,140.129044 59.8238204,144.361727 59.1905362,148.602425 C58.8571448,150.82298 58.319571,153.173402 58.3323324,155.427626 L59.2782708,155.300966 C58.4487802,152.490401 58.1217694,149.424913 57.5618633,146.553422 C56.1846962,139.490401 54.8160366,132.431655 53.4558847,125.377184 C50.3516756,109.268941 47.2347051,93.1510791 44.3633914,77.0075642 C42.7905496,68.123741 41.3150134,59.2270915 39.7198391,50.3432682 C38.3958445,42.9681398 33.9660456,18.0289825 34.1367292,13.0267215 L33.6581769,13.5077081 C41.9291555,13.9181501 50.3102011,13.4419733 58.5827748,13.3121069 C67.6880295,13.1662076 76.7964745,12.912888 85.9033244,12.9048715 C85.743807,12.7445427 85.5842895,12.5842138 85.4247721,12.4238849 C85.2907775,15.3098047 84.6574933,18.1957246 84.1486327,21.0335457 C83.3287131,25.6077287 82.4290349,30.1722919 81.5213807,34.7240288 C79.8863271,42.947297 78.1635389,51.1529291 76.5683646,59.3858171 C73.3636595,76.0487975 69.6947587,92.6348201 66.1104021,109.219239 C65.8200804,110.561727 65.5281635,111.904214 65.2346515,113.246701 C65.1054424,113.854347 66.0402145,114.11408 66.1678284,113.503227 Z" id="Shape" fill="#062244"></path>
                    <polygon id="Shape" fill="#062244" points="85.9033244 12.9080781 33.1764343 13.0267215 58.3307373 155.424419"></polygon>
                    <path d="M65.4260724,105.736896 C68.6504513,91.049702 71.7610411,76.3357862 74.7578418,61.595149 C77.6291555,47.4349024 80.8402413,33.265036 83.052748,18.9829394 C83.2509471,17.8502816 83.3872728,16.7075629 83.4611126,15.5599178 C83.4602449,15.321827 83.2688917,15.1287853 83.0320107,15.1270298 C75.0720912,15.1350462 67.1105764,15.3546968 59.152252,15.4829599 C51.6070777,15.6032066 43.9630027,16.0393011 36.4210188,15.6641316 C36.1844979,15.6667473 35.9936418,15.8592874 35.9919169,16.0970195 C35.8020912,21.5145324 37.1803217,27.2318602 38.0465013,32.543556 C39.2987131,40.2393422 40.6913003,47.9094758 42.0791019,55.5796095 C43.8672922,65.4382323 45.4624665,75.3257143 47.2969169,85.1763207 C49.6365058,97.7888592 52.0356479,110.388037 54.4943432,122.973854 C55.4227346,127.770894 56.3553798,132.569003 57.2922788,137.368181 C57.6687399,139.292127 57.8904692,141.361973 58.4487802,143.252251 C58.5859651,143.715601 59.2958177,143.630627 59.2926273,143.136814 C59.2814611,141.074985 59.7711796,138.939404 60.0806434,136.90964 C60.6549062,133.089003 61.2770241,129.276382 61.9103083,125.463762 C63.0014075,118.890277 64.0079625,112.255868 65.4196917,105.743309 C65.5361394,105.199794 64.7098391,104.968921 64.5902011,105.514039 C63.1385925,112.191737 62.1128954,118.981665 60.9946783,125.715478 C60.36937,129.488016 59.7584182,133.265365 59.1921314,137.047523 C58.895429,139.029188 58.4152815,141.12629 58.4264477,143.140021 L59.2718901,143.026187 C58.5317292,140.518643 58.2382172,137.785036 57.7389276,135.221377 C56.5106434,128.926865 55.2903351,122.629681 54.0780027,116.329825 C51.3087802,101.959548 48.5315818,87.587667 45.9697319,73.1773073 C44.5627882,65.2554573 43.2499598,57.3175745 41.8222788,49.3973279 C40.6482306,42.8078109 39.4853485,36.2102775 38.4436997,29.5983145 C37.7497989,25.2149229 36.7017694,20.5605755 36.8485255,16.0970195 L36.4194236,16.5283042 C43.7986997,16.8954573 51.2768767,16.4705858 58.657748,16.3535457 C66.7787802,16.2236793 74.906193,15.9976156 83.0304155,15.9912025 L82.6013137,15.5599178 C82.4800804,18.1251799 81.9169839,20.712888 81.4655496,23.2396711 C80.7349598,27.3216444 79.930992,31.3891881 79.1222386,35.4535252 C77.6626542,42.7901747 76.1185255,50.1107914 74.7052011,57.4554573 C71.848244,72.3227544 68.5733512,87.1163001 65.376622,101.914656 C65.1182038,103.112847 64.8576586,104.310504 64.5949866,105.507626 C64.4769437,106.049538 65.3064343,106.280411 65.4260724,105.736896 Z" id="Shape" fill="#CD4B53"></path>
                    <path d="M46.8805764,23.5523124 L74.5169705,23.5523124 L73.7975469,27.6070298 L49.5397319,27.6070298 L49.8954558,30.7831449 L73.2328552,30.7831449 C72.9925156,32.1448715 72.7511126,33.5055293 72.5086461,34.8651182 L48.4310858,34.8651182 C47.3027659,34.153258 46.1457328,33.43926 44.9599866,32.7231244 C44.5505585,30.3823227 44.1331546,28.0409866 43.7077748,25.6991161 C44.7382574,24.9819116 45.7958579,24.2663104 46.8805764,23.5523124 Z" id="Shape" fill="#FFFFFF"></path>
                    <path d="M45.8165952,37.5474203 L72.0332842,37.5474203 L70.3966354,46.7711408 C69.4214522,47.4776567 68.4755139,48.1847071 67.5588204,48.8922919 L58.0180831,48.8922919 C57.1758311,48.1440904 56.3038025,47.3932169 55.4019973,46.6396711 L55.1292225,41.6293936 L46.5408043,41.6293936 C46.3004647,40.2687359 46.0590617,38.9080781 45.8165952,37.5474203 Z M66.740496,41.6293936 L59.6595174,41.6293936 L59.6308043,44.7317575 L66.392748,44.7317575 C66.5097274,43.6971017 66.6256434,42.6629805 66.740496,41.6293936 Z" id="Shape" fill="#FFFFFF"></path>
                    <path d="M48.2444504,51.2250771 L69.6070241,51.2250771 L67.8842359,60.9249743 L64.3301877,60.9249743 L64.9331635,55.3134635 L61.1494102,55.3134635 L60.9436327,60.4824666 L57.3832038,60.4824666 C57.3300313,58.7594656 57.2768588,57.0364645 57.2236863,55.3134635 L53.0570912,55.3134635 L53.6409249,60.9057348 L49.9608579,60.9057348 C49.3887221,57.6777801 48.8165862,54.4508941 48.2444504,51.2250771 Z" id="Shape" fill="#FFFFFF"></path>
                    <path d="M50.3899598,63.3122713 L67.4583244,63.3122713 L66.6208579,68.0307503 C63.6506434,69.3999589 60.9388472,70.7691675 58.4854692,72.1383762 C58.3913539,72.1912847 57.9638472,72.3243577 57.2683512,72.6193628 C57.1410049,72.6565979 57.0158506,72.7010262 56.8934853,72.7524358 L56.1549196,73.0730935 C56.6781367,72.9929291 57.0737399,72.9400206 57.3369437,72.887112 C57.747907,72.7875875 58.1652518,72.7168726 58.5859651,72.6754779 L65.7961528,72.6754779 C65.5760188,73.9110791 65.3564164,75.1482837 65.1373458,76.3870915 L52.707748,76.3870915 C52.4301877,74.8222816 52.1531591,73.2580062 51.8766622,71.6942652 C54.1503172,70.3346763 56.6829223,68.9740185 59.4744772,67.6122919 C59.9199988,67.3809085 60.3911911,67.2033126 60.8782306,67.0832066 L61.6343432,66.8699692 L62.4000268,66.6054265 L61.7986461,66.685591 L60.8670643,66.8459198 C59.7632038,67.030298 59.4840483,67.0062487 59.3739812,67.0062487 L51.0455764,67.0062487 C50.8265058,65.7717163 50.6079669,64.5403905 50.3899598,63.3122713 Z" id="Shape" fill="#FFFFFF"></path>
                    <path d="M53.1831099,79.0565673 L64.6683646,79.0565673 L63.8308981,83.7750462 C62.0123913,85.0171998 60.2861185,86.3905611 58.6657239,87.8842754 C58.6098928,87.937184 58.3546649,88.0702569 57.9447051,88.3652621 C57.8683497,88.4038412 57.79479,88.447773 57.724571,88.4967318 C57.5810054,88.6025488 57.4374397,88.7083659 57.2970643,88.8173895 C57.6017426,88.7372251 57.8362332,88.6843165 57.98937,88.631408 C58.2270685,88.5318364 58.4754448,88.4602802 58.7295308,88.4181706 L63.0093834,88.4181706 C62.7892493,89.6559096 62.569647,90.8931141 62.3505764,92.1297842 L55.5024933,92.1297842 L54.6698123,87.4385612 C56.0894373,85.9511054 57.6304371,84.5856818 59.2766756,83.3565879 C59.5505737,83.1342674 59.8566557,82.9553069 60.1843298,82.8258993 L60.6756434,82.6142652 L61.1797185,82.3481192 L60.7873056,82.4282837 L60.1811394,82.5886125 C59.4649062,82.774594 59.2862466,82.7489414 59.2144638,82.7489414 L53.8371314,82.7489414 C53.6201877,81.5165468 53.4021805,80.2857554 53.1831099,79.0565673 Z" id="Shape" fill="#FFFFFF"></path>
                </g>
                <g id="Group-6" transform="translate(77.000000, 122.000000)" fill="#0E1435" fill-rule="nonzero">
                    <g id="Group-7">
                        <path d="M8.65335,19.4809 L8.4792,19.3837 C8.4063,19.33915 1.011,15.0745 0.2982,7.18105 L0.2982,0.0814 L17.06925,0.0814 L17.06925,7.17295 C16.59945,14.7262 9.1434,19.19335 8.82345,19.37965 L8.65335,19.4809 Z M0.99075,0.77395 L0.99075,7.14865 C1.60635,13.98505 7.55175,17.99455 8.64525,18.679 C9.7671,17.9581 15.96765,13.6975 16.38075,7.14055 L16.38075,0.77395 L0.99075,0.77395 Z" id="Shape" stroke="#0E1536"></path>
                        <polygon id="Shape" points="8.96115 10.14565 8.96115 14.65735 10.79985 14.36575 10.79985 9.85405"></polygon>
                        <polygon id="Shape" points="8.2686 10.1497 6.4299 9.85405 6.4299 14.36575 8.2686 14.65735"></polygon>
                        <polygon id="Shape" points="11.99865 2.965 10.1559 2.6734 10.1559 7.1851 11.99865 7.4767"></polygon>
                        <polygon id="Shape" points="12.68715 2.965 12.68715 7.4767 14.52585 7.1851 14.52585 2.6734"></polygon>
                        <polygon id="Shape" points="4.67625 2.965 2.83755 2.6734 2.83755 7.1851 4.67625 7.4767"></polygon>
                        <polygon id="Shape" points="5.3688 2.965 5.3688 7.4767 7.2075 7.1851 7.2075 2.6734"></polygon>
                    </g>
                    <g id="Group-4" transform="translate(162.000000, 20.000000)">
                        <path d="M9.57385,20.08435 C9.49285,20.04385 1.567,15.8521 0.97975,7.0231 L0.97975,0.73345 L18.4879,0.73345 L18.4879,7.015 C18.26515,15.77515 9.9829,20.05195 9.88975,20.09245 L9.7318,20.17345 L9.57385,20.08435 Z M1.6804,1.4341 L1.6804,6.98665 C2.1988,14.7262 8.6383,18.73165 9.73585,19.3756 C10.8658,18.76 17.605,14.6614 17.78725,7.015 L17.78725,1.4341 L1.6804,1.4341 Z" id="Shape" stroke="#0E1536"></path>
                        <polygon id="Shape" points="9.84925 5.32615 16.8841 12.3286 16.1065 13.76635 14.96035 15.3904 9.7885 10.04845 4.5721 15.3256 3.61225 13.95265 2.76175 12.42175"></polygon>
                    </g>
                    <g id="Group-2" transform="translate(18.000000, 55.000000)">
                        <path d="M8.9861,23.2923 C6.57255125,21.4085107 4.53271528,19.0898285 2.97185,16.4559 C-0.31675,10.7859 0.2786,4.59345 0.30695,4.3302 L0.34745,3.9252 L0.75245,4.0386 C2.14708115,4.39869221 3.61031885,4.39869221 5.00495,4.0386 C6.63551665,3.50448711 8.01973765,2.40199749 8.9051,0.93225 L9.2129,0.36525 L9.5045,0.94035 C10.2896339,2.26492078 11.4917363,3.2918353 12.9227,3.8604 C15.11375,4.7433 17.63285,4.05075 17.65715,4.0467 L18.03785,3.93735 L18.0824,4.34235 C18.4069691,8.56230252 17.4920127,12.7851785 15.4499,16.49235 C13.60715,19.8255 9.58955,23.1546 9.41945,23.2923 L9.21695,23.45835 L8.9861,23.2923 Z M12.6554,4.4841 C11.2559308,3.91999416 10.0502272,2.96190294 9.18455,1.72605 C8.21314394,3.125715 6.80640199,4.16510935 5.18315,4.68255 C3.80263021,5.05650576 2.35237301,5.09262328 0.95495,4.78785 C0.88205,6.22965 0.8375,11.442 3.55505,16.12785 C5.0349958,18.6003203 6.9377015,20.793641 9.17645,22.60785 C10.02695,21.8748 13.29125,18.96285 14.84645,16.1724 C16.7277003,12.6891171 17.6225064,8.75841191 17.4344,4.80405 C15.8428439,5.14667543 14.1870802,5.03582346 12.6554,4.4841 Z" id="Shape" stroke="#0E1536" stroke-width="0.7"></path>
                        <path d="M17.33315,10.33635 C17.7630126,8.37748319 17.8995022,6.36562637 17.73815,4.36665 C17.73815,4.36665 15.1178,5.1078 12.785,4.1682 C11.2786892,3.57005425 10.0146546,2.48700319 9.19265,1.0902 C8.26638832,2.64085298 6.80845285,3.80230799 5.09,4.35855 C3.62939109,4.73918507 2.09560891,4.73918507 0.635,4.35855 C0.499469233,6.34954618 0.635721235,8.34972558 1.04,10.30395 L17.33315,10.33635 Z" id="Shape"></path>
                        <polygon id="Shape" points="15.13805 16.31415 9.1967 10.6563 3.26345 16.28985 5.2034 19.08435 9.1805 15.1356 13.16165 19.08435"></polygon>
                    </g>
                    <g id="Group-3" transform="translate(204.000000, 55.000000)">
                        <path d="M8.96420681,18.9960483 C1.52717631,17.3205075 -0.00397702165,13.4636023 0.0238621299,10.5590682 L0,0 L18,0 L18,10.5827787 C18,17.8737521 9.16305789,18.9920965 9.07556341,19 L9.01988511,19 L8.96420681,18.9960483 Z M0.652231551,0.648086522 L0.676093681,10.56302 C0.640300486,14.4041181 3.53557225,17.0952579 9.05170128,18.3519135 C10.5051775,18.1229526 11.9123291,17.6639985 13.21962,16.9925125 C15.9597879,15.5422213 17.3477684,13.3845674 17.3477684,10.5827787 L17.3477684,0.648086522 L0.652231551,0.648086522 Z" id="Shape" stroke="#0E1536" stroke-width="0.8"></path>
                        <polygon id="Shape" points="8 18.627451 9.48531469 19 11 18.627451 11 0 8 0"></polygon>
                        <rect id="Rectangle-path" x="0" y="7" width="18" height="3"></rect>
                    </g>
                </g>
            </g>
        </g>
    </g>
</svg>